<svg xmlns="http://www.w3.org/2000/svg" xmlns:svg="http://www.w3.org/2000/svg" xmlns:xlink="http://www.w3.org/1999/xlink" id="svg4428" width="119.467" height="29.867" version="1.1"><defs id="defs4430"><linearGradient id="linearGradient3913"><stop style="stop-color:#fff;stop-opacity:1" id="stop3915" offset="0"/><stop id="stop3921" offset=".5" style="stop-color:#fff;stop-opacity:.49803922"/><stop style="stop-color:#fff;stop-opacity:0" id="stop3917" offset="1"/></linearGradient><linearGradient id="linearGradient3868"><stop style="stop-color:#5a5a5a;stop-opacity:1" id="stop3870" offset="0"/><stop style="stop-color:#646464;stop-opacity:1" id="stop3872" offset="1"/></linearGradient><linearGradient id="linearGradient3813"><stop style="stop-color:#666;stop-opacity:1" id="stop3815" offset="0"/><stop style="stop-color:#636363;stop-opacity:1" id="stop3817" offset="1"/></linearGradient><linearGradient id="linearGradient3787"><stop style="stop-color:#e5e5df;stop-opacity:1" id="stop3789" offset="0"/><stop style="stop-color:#dadad4;stop-opacity:1" id="stop3791" offset="1"/></linearGradient><linearGradient id="linearGradient3806-3-5-6"><stop style="stop-color:#303030;stop-opacity:1" id="stop3808-6-9-1" offset="0"/><stop style="stop-color:#232323;stop-opacity:1" id="stop3810-4-6-3" offset="1"/></linearGradient><linearGradient id="linearGradient3793" x1="40" x2="40" y1="1044.362" y2="1032.362" gradientUnits="userSpaceOnUse" xlink:href="#linearGradient3787"/><linearGradient id="linearGradient3828" x1="40" x2="40" y1="1044.362" y2="1032.362" gradientTransform="matrix(1.1666666,0,0,1.0769231,-6.5,-80.335554)" gradientUnits="userSpaceOnUse" xlink:href="#linearGradient3787"/><linearGradient id="linearGradient3835" x1="40" x2="40" y1="1044.362" y2="1032.362" gradientTransform="matrix(1.1666666,0,0,1.0769231,-35.5,-1105.6978)" gradientUnits="userSpaceOnUse" xlink:href="#linearGradient3787-8"/><linearGradient id="linearGradient3835-4" x1="40" x2="40" y1="1044.362" y2="1032.362" gradientTransform="matrix(1.1666666,0,0,1.0769231,-35.5,-1105.6978)" gradientUnits="userSpaceOnUse" xlink:href="#linearGradient3787-8"/><linearGradient id="linearGradient3787-8"><stop style="stop-color:#f5f5ee;stop-opacity:1" id="stop3789-2" offset="0"/><stop style="stop-color:#e6e6df;stop-opacity:1" id="stop3791-6" offset="1"/></linearGradient><linearGradient id="linearGradient3835-3" x1="40" x2="40" y1="1044.362" y2="1032.362" gradientTransform="matrix(1.1666666,0,0,1.0769231,-35.5,-1105.6978)" gradientUnits="userSpaceOnUse" xlink:href="#linearGradient3787-8"/><linearGradient id="linearGradient3787-7"><stop style="stop-color:#f5f5ee;stop-opacity:1" id="stop3789-3" offset="0"/><stop style="stop-color:#e6e6e0;stop-opacity:1" id="stop3791-3" offset="1"/></linearGradient><linearGradient id="linearGradient3807" x1="11" x2="11" y1="15.75" y2="8.25" gradientUnits="userSpaceOnUse" xlink:href="#linearGradient3787"/><linearGradient id="linearGradient3819" x1="29.5" x2="29.5" y1="15.2" y2="8.8" gradientUnits="userSpaceOnUse" xlink:href="#linearGradient3813"/><linearGradient id="linearGradient3807-1" x1="10" x2="10" y1="7" y2="15.889" gradientUnits="userSpaceOnUse" xlink:href="#linearGradient4231"/><linearGradient id="linearGradient4231"><stop id="stop4233" offset="0" style="stop-color:#e7e7e1;stop-opacity:1"/><stop id="stop4239" offset="1" style="stop-color:#dadad3;stop-opacity:1"/></linearGradient><linearGradient id="linearGradient3807-1-1" x1="10" x2="10" y1="15.889" y2="7" gradientUnits="userSpaceOnUse" xlink:href="#linearGradient4231-1"/><linearGradient id="linearGradient4231-1"><stop id="stop4233-6" offset="0" style="stop-color:#e5e5de;stop-opacity:1"/><stop id="stop4239-7" offset="1" style="stop-color:#dadad3;stop-opacity:1"/></linearGradient><linearGradient id="linearGradient4363"><stop style="stop-color:#979791;stop-opacity:1" id="stop4365" offset="0"/><stop style="stop-color:#dadad4;stop-opacity:0" id="stop4367" offset="1"/></linearGradient><linearGradient id="linearGradient4363-7"><stop style="stop-color:#f5f5ef;stop-opacity:1" id="stop4365-9" offset="0"/><stop style="stop-color:#dadad4;stop-opacity:0" id="stop4367-8" offset="1"/></linearGradient><linearGradient id="linearGradient4361" x1="248.632" x2="248.632" y1="79" y2="58" gradientTransform="matrix(1.1875,0,0,1,-41.25,0)" gradientUnits="userSpaceOnUse" xlink:href="#linearGradient4231-7"/><linearGradient id="linearGradient4231-7"><stop id="stop4233-4" offset="0" style="stop-color:#e6e6df;stop-opacity:1"/><stop id="stop4239-8" offset="1" style="stop-color:#d1d1ca;stop-opacity:1"/></linearGradient><linearGradient id="linearGradient3127" x1="248.632" x2="248.632" y1="79" y2="58" gradientTransform="matrix(1.1875,0,0,1,-262.25,-55.99998)" gradientUnits="userSpaceOnUse" xlink:href="#linearGradient4231-7"/><linearGradient id="linearGradient3154" x1="248.632" x2="248.632" y1="79" y2="58" gradientTransform="matrix(1.1875,0,0,1,-262.25,-55.99998)" gradientUnits="userSpaceOnUse" xlink:href="#linearGradient4231-7"/><linearGradient id="linearGradient3159" x1="248.632" x2="248.632" y1="79" y2="58" gradientTransform="matrix(1.1875,0,0,1,-249.25,-54.99998)" gradientUnits="userSpaceOnUse" xlink:href="#linearGradient4231-7"/><linearGradient id="linearGradient3159-0" x1="248.632" x2="248.632" y1="79" y2="58" gradientTransform="matrix(1.1875,0,0,1,-262.25,-55.99998)" gradientUnits="userSpaceOnUse" xlink:href="#linearGradient4231-7-9"/><linearGradient id="linearGradient4231-7-9"><stop id="stop4233-4-2" offset="0" style="stop-color:#e6e6df;stop-opacity:1"/><stop id="stop4239-8-9" offset="1" style="stop-color:#d1d1ca;stop-opacity:1"/></linearGradient><linearGradient id="linearGradient4231-5"><stop id="stop4233-41" offset="0" style="stop-color:#e5e5de;stop-opacity:1"/><stop id="stop4239-73" offset="1" style="stop-color:#dadad3;stop-opacity:1"/></linearGradient><linearGradient id="linearGradient3159-1" x1="248.632" x2="248.632" y1="79" y2="58" gradientTransform="matrix(1.1875,0,0,1,-262.25,-55.99998)" gradientUnits="userSpaceOnUse" xlink:href="#linearGradient4231-7-7"/><linearGradient id="linearGradient4231-7-7"><stop id="stop4233-4-7" offset="0" style="stop-color:#e6e6df;stop-opacity:1"/><stop id="stop4239-8-2" offset="1" style="stop-color:#d1d1ca;stop-opacity:1"/></linearGradient><linearGradient id="linearGradient3807-1-7" x1="10" x2="10" y1="15.889" y2="7" gradientUnits="userSpaceOnUse" xlink:href="#linearGradient4231-73"/><linearGradient id="linearGradient4231-73"><stop id="stop4233-1" offset="0" style="stop-color:#e5e5de;stop-opacity:1"/><stop id="stop4239-85" offset="1" style="stop-color:#dadad3;stop-opacity:1"/></linearGradient></defs><metadata id="metadata4433"/><g id="layer1" transform="translate(0,-1092.653)"><g id="active-center" transform="matrix(0.01754682,0,0,-0.01754674,2.8814742,1117.5909)" style="stroke-width:1.26053345"><path id="path899" d="m 519.66906,-52.931017 c 251.79998,0 455.92005,204.124137 455.92005,455.928407 0,251.7946 -204.12007,455.92004 -455.92005,455.92004 -251.79888,0 -455.923844,-204.12544 -455.923844,-455.92004 0,-251.80427 204.124964,-455.928407 455.923844,-455.928407" style="fill:#70c4bb;fill-opacity:1;fill-rule:evenodd;stroke:none;stroke-width:1.34456933;enable-background:new;opacity:0"/><path style="fill:#70c4bb;fill-opacity:1;fill-rule:evenodd;stroke:none;stroke-width:1.34456933;enable-background:new" id="path14-3" d="m 519.66882,4.0574116 c 220.32614,0 398.93214,178.6095584 398.93214,398.9394584 0,220.32143 -178.606,398.93213 -398.93214,398.93213 -220.32518,0 -398.93546,-178.6107 -398.93546,-398.93213 0,-220.3299 178.61028,-398.9394584 398.93546,-398.9394584"/><path style="fill:#7dd1c8;fill-opacity:1;fill-rule:evenodd;stroke:none;stroke-width:1.34456909;enable-background:new" id="path16-6" d="m 519.66714,32.559364 c 204.58568,0 370.4375,165.849266 370.4375,370.437756 0,204.58088 -165.85182,370.42993 -370.4375,370.42993 -204.58465,0 -370.43746,-165.84905 -370.43746,-370.42993 0,-204.58849 165.85281,-370.437756 370.43746,-370.437756"/></g><g id="hover-center" transform="matrix(0.01754674,0,0,-0.01754674,24.895818,1118.601)" style="stroke-width:1.26053357"><path id="path901" d="m 461.86451,4.6374457 c 251.80184,0 455.92334,204.1245143 455.92334,455.9292243 0,251.79508 -204.1215,455.92086 -455.92334,455.92086 -251.8007,0 -455.927123,-204.12578 -455.927123,-455.92086 0,-251.80471 204.126423,-455.9292243 455.927123,-455.9292243" style="opacity:0;fill:#8cd6d2;fill-opacity:1;fill-rule:evenodd;stroke:none;stroke-width:1.34457219;enable-background:new"/><path style="fill:#70c4bb;fill-opacity:1;fill-rule:evenodd;stroke:none;stroke-width:1.34457219;enable-background:new" id="path14-3-7" d="m 461.86427,61.630094 c 220.3255,0 398.9309,178.608046 398.9309,398.936056 0,220.31958 -178.6054,398.92873 -398.9309,398.92873 -220.32449,0 -398.934211,-178.60915 -398.934211,-398.92873 0,-220.32801 178.609721,-398.936056 398.934211,-398.936056"/><path style="fill:#8cd6d2;fill-opacity:1;fill-rule:evenodd;stroke:none;stroke-width:1.34457219;enable-background:new" id="path16-5" d="m 461.86261,90.128947 c 204.58657,0 370.43918,165.849133 370.43918,370.437453 0,204.58074 -165.85261,370.42963 -370.43918,370.42963 -204.58563,0 -370.439171,-165.84889 -370.439171,-370.42963 0,-204.58832 165.853541,-370.437453 370.439171,-370.437453"/><ellipse id="path4179" cx="461.863" cy="-460.563" rx="144.677" ry="144.677" transform="scale(1,-1)" style="opacity:1;fill:#3d9388;fill-opacity:1;stroke:none;stroke-width:121.58003998;stroke-miterlimit:4;stroke-dasharray:none;stroke-opacity:1;enable-background:new"/></g><g id="pressed-center" transform="matrix(0.01754674,0,0,-0.01754682,47.895819,1118.7002)" style="stroke-width:1.26053357"><path style="fill:#58b4aa;fill-opacity:1;fill-rule:evenodd;stroke:none;stroke-width:1.34456933;opacity:0" id="path903" d="m 461.86449,10.287447 c 251.80179,0 455.92339,204.123583 455.92339,455.927123 0,251.79395 -204.1216,455.91881 -455.92339,455.91881 -251.80072,0 -455.927139,-204.12486 -455.927139,-455.91881 0,-251.80354 204.126419,-455.927123 455.927139,-455.927123"/><path id="path14-2" d="m 461.86425,67.278048 c 220.32644,0 398.93274,178.608032 398.93274,398.936002 0,220.31958 -178.6063,398.92872 -398.93274,398.92872 -220.3255,0 -398.93601,-178.60914 -398.93601,-398.92872 0,-220.32797 178.61051,-398.936002 398.93601,-398.936002" style="fill:#58b4aa;fill-opacity:1;fill-rule:evenodd;stroke:none;stroke-width:1.34456933"/><path id="path16-9" d="m 461.86262,95.778579 c 204.58658,0 370.43917,165.848391 370.43917,370.435761 0,204.57979 -165.85259,370.4279 -370.43917,370.4279 -204.58561,0 -370.439175,-165.84811 -370.439175,-370.4279 0,-204.58737 165.853565,-370.435761 370.439175,-370.435761" style="fill:#58b4aa;fill-opacity:1;fill-rule:evenodd;stroke:none;stroke-width:1.34456921"/><ellipse style="opacity:1;fill:#3d9388;fill-opacity:1;stroke:none;stroke-width:121.57977295;stroke-miterlimit:4;stroke-dasharray:none;stroke-opacity:1;enable-background:new" id="path4179-6" cx="461.863" cy="-466.21" rx="144.677" ry="144.676" transform="scale(1,-1)"/></g><g style="display:inline" id="inactive-center" transform="translate(-223,1371.1575)"><rect id="rect1561-02-6" width="16" height="16" x="293" y="-268.638" ry="0" style="opacity:0;fill:#000;fill-opacity:1;stroke:none;stroke-width:.47432083;stroke-linejoin:miter;stroke-miterlimit:4;stroke-dasharray:none;stroke-opacity:1;paint-order:markers stroke fill"/><g id="titlebutton-close-backdrop-1-3-4" transform="translate(294,-267.63782)" style="enable-background:new"><g id="g6-97-7-3" transform="translate(-4.9999997,-1033.3622)"><path style="fill:#5d5d5d;fill-opacity:1;fill-rule:evenodd;stroke:none" id="path2-361-5-3" d="m 12.000061,1047.3622 c 3.865929,0 6.999939,-3.134 6.999939,-7 0,-3.866 -3.13401,-7 -6.999939,-7 -3.8660427,0 -7.0000616,3.134 -7.0000616,7 0,3.866 3.1340189,7 7.0000616,7"/></g></g></g><use id="deactivated-center" width="100%" height="100%" x="0" y="0" transform="translate(29.429759,0.66259998)" xlink:href="#inactive-center"/></g></svg>