<svg xmlns="http://www.w3.org/2000/svg" xmlns:svg="http://www.w3.org/2000/svg" xmlns:xlink="http://www.w3.org/1999/xlink" id="svg4428" width="24" height="24" version="1.1"><metadata id="metadata4433"/><g id="layer1" transform="translate(0,-1098.5197)"><g style="display:inline" id="active-center" transform="translate(-286.87288,1376.6524)"><rect style="opacity:0;fill:#000;fill-opacity:1;stroke:none;stroke-width:.47432083;stroke-linejoin:miter;stroke-miterlimit:4;stroke-dasharray:none;stroke-opacity:1;paint-order:markers stroke fill" id="rect1569-36-2" width="16" height="16" x="293" y="-242.638" ry="0"/><g id="titlebutton-close-1-7-1" transform="translate(294,-241.63782)" style="enable-background:new"><g id="g6-53-7" transform="translate(-4.9999997,-1033.3622)"><path style="fill:#e9524a;fill-opacity:1;fill-rule:evenodd;stroke:none" id="path2-56-8" d="m 12.000061,1047.3622 c 3.865929,0 6.999939,-3.134 6.999939,-7 0,-3.866 -3.13401,-7 -6.999939,-7 -3.8660427,0 -7.0000616,3.134 -7.0000616,7 0,3.866 3.1340189,7 7.0000616,7"/></g></g></g><g style="display:inline" id="inactive-center" transform="translate(-289.32297,1313.0314)"><rect id="rect1561-02-6" width="16" height="16" x="293" y="-268.638" ry="0" style="opacity:0;fill:#000;fill-opacity:1;stroke:none;stroke-width:.47432083;stroke-linejoin:miter;stroke-miterlimit:4;stroke-dasharray:none;stroke-opacity:1;paint-order:markers stroke fill"/><g id="titlebutton-close-backdrop-1-3-4" transform="translate(294,-267.63782)" style="enable-background:new"><g id="g6-97-7-3" transform="translate(-4.9999997,-1033.3622)"><path style="fill:#5d5d5d;fill-opacity:1;fill-rule:evenodd;stroke:none" id="path2-361-5-3" d="m 12.000061,1047.3622 c 3.865929,0 6.999939,-3.134 6.999939,-7 0,-3.866 -3.13401,-7 -6.999939,-7 -3.8660427,0 -7.0000616,3.134 -7.0000616,7 0,3.866 3.1340189,7 7.0000616,7"/></g></g></g><g style="display:inline" id="pressed-center" transform="translate(-288.10682,1261.6974)"><rect style="opacity:0;fill:#000;fill-opacity:1;stroke:none;stroke-width:.47432083;stroke-linejoin:miter;stroke-miterlimit:4;stroke-dasharray:none;stroke-opacity:1;paint-order:markers stroke fill" id="rect1586-93-9" width="16" height="16" x="293" y="-190.638" ry="0"/><g id="titlebutton-close-active-1-1-7" transform="translate(294,-189.63782)" style="enable-background:new"><g id="g6-3-9-7" transform="translate(-4.9999997,-1033.3622)"><path style="fill:#e9524a;fill-opacity:1;fill-rule:evenodd;stroke:none" id="path2-6-4-6" d="m 12.000061,1047.3622 c 3.865929,0 6.999939,-3.134 6.999939,-7 0,-3.866 -3.13401,-7 -6.999939,-7 -3.8660427,0 -7.0000616,3.134 -7.0000616,7 0,3.866 3.1340189,7 7.0000616,7"/><path style="opacity:.5;fill:#000;fill-opacity:1;stroke:none;stroke-width:2;stroke-linecap:round;stroke-linejoin:round;stroke-miterlimit:4;stroke-dasharray:none;stroke-opacity:1;enable-background:new" id="path4-7-7-4" d="m 9.1715729,1037.5338 c -0.3917372,0.3917 -0.3917372,1.0224 0,1.4142 l 1.4142131,1.4142 -1.4142131,1.4142 c -0.3917372,0.3918 -0.3917372,1.0225 0,1.4142 0.3917371,0.3918 1.0224761,0.3918 1.4142131,0 L 12,1041.7764 l 1.414214,1.4142 c 0.391737,0.3918 1.022476,0.3918 1.414213,0 0.391737,-0.3917 0.391737,-1.0224 0,-1.4142 l -1.414213,-1.4142 1.414213,-1.4142 c 0.391737,-0.3918 0.391737,-1.0225 0,-1.4142 -0.391737,-0.3918 -1.022476,-0.3918 -1.414213,0 L 12,1038.948 l -1.414214,-1.4142 c -0.391737,-0.3918 -1.022476,-0.3918 -1.4142131,0 z"/><path id="path3626" d="m 12.000061,1047.3622 c 3.865929,0 6.999939,-3.134 6.999939,-7 0,-3.866 -3.13401,-7 -6.999939,-7 -3.8660427,0 -7.0000616,3.134 -7.0000616,7 0,3.866 3.1340189,7 7.0000616,7" style="opacity:.2;fill:#000;fill-opacity:1;fill-rule:evenodd;stroke:none"/></g></g></g><g style="display:inline" id="hover-center" transform="translate(-288.71495,1319.1693)"><rect id="rect1577-8-3" width="16" height="16" x="293" y="-216.638" ry="0" style="opacity:0;fill:#000;fill-opacity:1;stroke:none;stroke-width:.47432083;stroke-linejoin:miter;stroke-miterlimit:4;stroke-dasharray:none;stroke-opacity:1;paint-order:markers stroke fill"/><g id="titlebutton-close-hover-1-4-0" transform="translate(294,-215.63782)" style="enable-background:new"><g id="g8-5-3" transform="translate(-4.9999997,-1033.3622)"><path style="fill:#e9524a;fill-opacity:1;fill-rule:evenodd;stroke:none" id="path2-62-0-0" d="m 12.000061,1047.3622 c 3.865929,0 6.999939,-3.134 6.999939,-7 0,-3.866 -3.13401,-7 -6.999939,-7 -3.8660427,0 -7.0000616,3.134 -7.0000616,7 0,3.866 3.1340189,7 7.0000616,7"/><path style="opacity:.5;fill:#000;fill-opacity:1;stroke:none;stroke-width:2;stroke-linecap:round;stroke-linejoin:round;stroke-miterlimit:4;stroke-dasharray:none;stroke-opacity:1;enable-background:new" id="path6-36-9" d="m 9.1715729,1037.5338 c -0.3917372,0.3917 -0.3917372,1.0224 0,1.4142 l 1.4142131,1.4142 -1.4142131,1.4142 c -0.3917372,0.3918 -0.3917372,1.0225 0,1.4142 0.3917371,0.3918 1.0224761,0.3918 1.4142131,0 L 12,1041.7764 l 1.414214,1.4142 c 0.391737,0.3918 1.022476,0.3918 1.414213,0 0.391737,-0.3917 0.391737,-1.0224 0,-1.4142 l -1.414213,-1.4142 1.414213,-1.4142 c 0.391737,-0.3918 0.391737,-1.0225 0,-1.4142 -0.391737,-0.3918 -1.022476,-0.3918 -1.414213,0 L 12,1038.948 l -1.414214,-1.4142 c -0.391737,-0.3918 -1.022476,-0.3918 -1.4142131,0 z"/></g></g></g><use id="deactivated-center" width="100%" height="100%" x="0" y="0" transform="translate(-0.21337223,-26.948412)" xlink:href="#inactive-center"/><g id="hover-inactive-center" transform="translate(-256.73259,1293.5618)" style="display:inline"><rect id="rect854" width="16" height="16" x="293" y="-190.638" ry="0" style="opacity:0;fill:#000;fill-opacity:1;stroke:none;stroke-width:.47432083;stroke-linejoin:miter;stroke-miterlimit:4;stroke-dasharray:none;stroke-opacity:1;paint-order:markers stroke fill"/><g style="enable-background:new" id="g864" transform="translate(294,-189.63782)"><g id="g862" transform="translate(-4.9999997,-1033.3622)"><path id="path856" d="m 12.000061,1047.3622 c 3.865929,0 6.999939,-3.134 6.999939,-7 0,-3.866 -3.13401,-7 -6.999939,-7 -3.8660427,0 -7.0000616,3.134 -7.0000616,7 0,3.866 3.1340189,7 7.0000616,7" style="fill:#5d5d5d;fill-opacity:1;fill-rule:evenodd;stroke:none"/><path id="path858" d="m 9.1715729,1037.5338 c -0.3917372,0.3917 -0.3917372,1.0224 0,1.4142 l 1.4142131,1.4142 -1.4142131,1.4142 c -0.3917372,0.3918 -0.3917372,1.0225 0,1.4142 0.3917371,0.3918 1.0224761,0.3918 1.4142131,0 L 12,1041.7764 l 1.414214,1.4142 c 0.391737,0.3918 1.022476,0.3918 1.414213,0 0.391737,-0.3917 0.391737,-1.0224 0,-1.4142 l -1.414213,-1.4142 1.414213,-1.4142 c 0.391737,-0.3918 0.391737,-1.0225 0,-1.4142 -0.391737,-0.3918 -1.022476,-0.3918 -1.414213,0 L 12,1038.948 l -1.414214,-1.4142 c -0.391737,-0.3918 -1.022476,-0.3918 -1.4142131,0 z" style="opacity:.5;fill:#000;fill-opacity:1;stroke:none;stroke-width:2;stroke-linecap:round;stroke-linejoin:round;stroke-miterlimit:4;stroke-dasharray:none;stroke-opacity:1;enable-background:new"/></g></g></g><use id="deactivated-inactive-center" width="100%" height="100%" x="0" y="0" transform="translate(28.709752,-26.948412)" xlink:href="#inactive-center"/></g></svg>