<svg xmlns="http://www.w3.org/2000/svg" xmlns:svg="http://www.w3.org/2000/svg" xmlns:xlink="http://www.w3.org/1999/xlink" id="svg3642" width="355" height="310" version="1.0"><defs id="defs3644"><linearGradient id="linearGradient975"><stop style="stop-color:#2f3232;stop-opacity:1" id="stop971" offset="0"/><stop style="stop-color:#323434;stop-opacity:1" id="stop973" offset="1"/></linearGradient><linearGradient id="linearGradient966"><stop style="stop-color:#2f3232;stop-opacity:1" id="stop962" offset="0"/><stop style="stop-color:#323434;stop-opacity:1" id="stop964" offset="1"/></linearGradient><linearGradient id="shadow_active"><stop id="stop7028" offset="0" style="stop-color:#000;stop-opacity:.92168677"/><stop id="stop7026" offset=".125" style="stop-color:#000;stop-opacity:.74096388"/><stop id="stop6834" offset=".25" style="stop-color:#000;stop-opacity:.60240966"/><stop id="stop6832" offset=".5" style="stop-color:#000;stop-opacity:.33132529"/><stop style="stop-color:#000;stop-opacity:.10843374" id="stop6836" offset=".75"/><stop id="stop6894" offset=".875" style="stop-color:#000;stop-opacity:.03921569"/><stop id="stop6721" offset="1" style="stop-color:#000;stop-opacity:0"/></linearGradient><linearGradient id="linearGradient5688" x1="398" x2="398" y1="138.14" y2="221.163" gradientTransform="matrix(1,0,0,1.0117647,0,137.2353)" gradientUnits="userSpaceOnUse" xlink:href="#shadow_active"/><linearGradient id="linearGradient6612" x1="396" x2="396" y1="64.167" y2="14.583" gradientTransform="matrix(1,0,0,1.0285694,-215,50.00005)" gradientUnits="userSpaceOnUse" xlink:href="#shadow_active"/><linearGradient id="linearGradient5688-2" x1="398" x2="398" y1="138.14" y2="171.744" gradientTransform="matrix(1,0,0,1.0117647,0,137.15731)" gradientUnits="userSpaceOnUse" xlink:href="#shadow_inactive"/><linearGradient id="shadow_inactive"><stop style="stop-color:#000;stop-opacity:1" id="stop6719-25" offset="0"/><stop id="stop6834-1" offset=".25" style="stop-color:#000;stop-opacity:.63855422"/><stop id="stop6832-0" offset=".5" style="stop-color:#000;stop-opacity:.33734939"/><stop style="stop-color:#000;stop-opacity:.10843374" id="stop6836-0" offset=".75"/><stop id="stop6894-7" offset=".875" style="stop-color:#000;stop-opacity:.03921569"/><stop id="stop6721-4" offset="1" style="stop-color:#000;stop-opacity:0"/></linearGradient><linearGradient id="linearGradient6612-5" x1="396" x2="396" y1="66" y2="30" gradientTransform="translate(200,5)" gradientUnits="userSpaceOnUse" xlink:href="#shadow_inactive"/><linearGradient id="linearGradient1126" x1="348.493" x2="279.414" y1="99" y2="99" gradientTransform="matrix(1.0133333,0,0,1,-3.2650058,140)" gradientUnits="userSpaceOnUse" xlink:href="#shadow_active"/><radialGradient id="radialGradient1306" cx="296.477" cy="80.417" r="17.5" fx="296.477" fy="80.417" gradientTransform="matrix(9.4919759e-7,-2.9142759,4.0000007,1.1504403e-6,-211.66707,980.01628)" gradientUnits="userSpaceOnUse" xlink:href="#shadow_active"/><linearGradient id="linearGradient1389" x1="348.493" x2="304.086" y1="99.015" y2="99.015" gradientTransform="matrix(1.0133333,0,0,1,-3.2650058,140)" gradientUnits="userSpaceOnUse" xlink:href="#shadow_inactive"/><radialGradient id="radialGradient965" cx="48.271" cy="178.723" r="17.5" fx="48.271" fy="178.723" gradientTransform="matrix(-4.0000019,3.2964352e-6,1.0208917e-6,-4.799999,303.08329,1053.8707)" gradientUnits="userSpaceOnUse" xlink:href="#shadow_active"/><radialGradient id="radialGradient967" cx="48.271" cy="181.177" r="17.5" fx="48.271" fy="181.177" gradientTransform="matrix(-2.5714291,8.7200345e-7,-2.0148289e-7,-1.9428564,594.12508,548.00068)" gradientUnits="userSpaceOnUse" xlink:href="#shadow_inactive"/><radialGradient id="radialGradient969" cx="296.451" cy="80.417" r="17.5" fx="296.451" fy="80.417" gradientTransform="matrix(-3.7607938e-7,-2.0571166,2.5714318,-5.1233137e-7,263.21413,725.83432)" gradientUnits="userSpaceOnUse" xlink:href="#shadow_inactive"/><linearGradient id="linearGradient968" x1="348.493" x2="279.414" y1="99" y2="99" gradientTransform="matrix(1.0133333,0,0,1,-3.2650058,140)" gradientUnits="userSpaceOnUse" xlink:href="#shadow_active"/><linearGradient id="linearGradient1012" x1="348.493" x2="304.086" y1="99.015" y2="99.015" gradientTransform="matrix(1.0133333,0,0,1,-3.2650058,140)" gradientUnits="userSpaceOnUse" xlink:href="#shadow_inactive"/><linearGradient id="linearGradient969" x1="396.223" x2="395.943" y1="206.136" y2="176.624" gradientUnits="userSpaceOnUse" xlink:href="#linearGradient966"/><linearGradient id="linearGradient977" x1="95.394" x2="95.797" y1="115.957" y2="86.127" gradientUnits="userSpaceOnUse" xlink:href="#linearGradient975"/></defs><metadata id="metadata3647"/><g id="layer1" transform="translate(0,-90)"><g id="decoration-inactive-topleft" transform="translate(140,-31.063)"><path id="rect6520-3-2-6" d="m 365,50 v 66 h 76 V 98 c 0,-6.648 5.352,-12 12,-12 h 17 V 50 Z" transform="translate(-140,115.063)" style="opacity:.5;fill:url(#radialGradient969);fill-opacity:1;stroke:none"/><g id="6utrh-9"><g id="decoration-toplefthaerty-5" transform="translate(0,1)"><g id="49093u-9" transform="translate(-19,25)"><path id="rect5073-4-9-6" d="m 453,86 c -6.648,0 -12,5.352 -12,12 V 115.93555 116 h 29 V 86 Z" transform="translate(-121,89.063)" style="opacity:1;fill:#2c2f2f;fill-opacity:1;stroke:none;stroke-width:1"/></g></g></g><path id="path202" d="M 453 79 C 445.798 79 440 84.798 440 92 L 440 110 L 441 110 L 441 92 C 441 85.352 446.352 80 453 80 L 470 80 L 470 79 L 453 79 z" transform="translate(-140,121.063)" style="opacity:1;fill:#434646;fill-opacity:1;stroke:none"/></g><g id="decoration-right" transform="matrix(-1,0,0,1,604.875,3)"><path id="path960" d="m 244.875,197 v 86 h 76 v -86 z" style="opacity:.5;fill:url(#linearGradient968);fill-opacity:1;stroke:none;stroke-width:1.00664"/><path id="path962" d="m 284,116 v 86 h 1 v -86 z" transform="matrix(-1,0,0,1,604.875,81)" style="opacity:1;fill:#4f5454;fill-opacity:1;stroke:none"/><path id="path964" d="m 576,121 v 86 h 29 v -86 z" transform="translate(-255.125,76)" style="opacity:1;fill:#2f3232;fill-opacity:1;stroke:none"/></g><g id="decoration-bottom" transform="translate(-215,9)"><path style="opacity:.5;fill:url(#linearGradient5688);fill-opacity:1;stroke:none;stroke-width:1.0058651" id="path6217-8" d="m 325,289 v 86 h 145 v -86 z"/><path id="path6214-7" d="M 470,289 H 325 v 1 h 145 z" style="opacity:1;fill:#4f5454;fill-opacity:1;stroke:none;stroke-width:.413845"/><path id="path6211-7" d="M 470,277 H 325 v 12 h 145 z" style="opacity:.95;fill:#2c2f2f;fill-opacity:1;stroke:none;stroke-width:1.41421"/></g><path style="opacity:1;fill:#2f3232;fill-opacity:1;stroke:none" id="decoration-center" d="m 110,200 v 86 h 145 v -86 z"/><g id="decoration-top" transform="translate(-215,-5.99995)"><path id="path6055-5" d="M 110,50 V 86 H 255 V 50 Z" transform="translate(215,89.99995)" style="opacity:.5;fill:url(#linearGradient6612);fill-opacity:1;stroke:none;stroke-width:1.01418"/><path id="path6098-4" d="m 110,85 v 1 h 145 v -1 z" transform="translate(215,89.99995)" style="opacity:1;fill:#4f5454;fill-opacity:1;stroke:none"/><path style="opacity:1;fill:url(#linearGradient969);fill-opacity:1;stroke:none;stroke-width:1" id="path6092-3" d="m 325,175.99994 v 30.00002 h 145 v -30.00002 z"/><path id="path966" d="m 325,175.99994 v 1.00001 h 145 v -1.00001 z" style="opacity:1;fill:#3e4242;fill-opacity:1;stroke:none;stroke-width:.182575"/></g><g id="decoration-left" transform="translate(-239.875,3)"><path style="opacity:.5;fill:url(#linearGradient1126);fill-opacity:1;stroke:none;stroke-width:1.00664" id="path6345-1" d="m 244.875,197 v 86 h 76 v -86 z"/><path id="path6342-6" d="m 80,116 v 86 h 1 v -86 z" transform="translate(239.875,81)" style="opacity:1;fill:#4f5454;fill-opacity:1;stroke:none"/><path style="opacity:1;fill:#2f3232;fill-opacity:1;stroke:none" id="path6339-9" d="m 576,121 v 86 h 29 v -86 z" transform="translate(-255.125,76)"/></g><g id="decoration-inactive-bottom" transform="translate(145,9.07798)"><path style="opacity:.5;fill:url(#linearGradient5688-2);fill-opacity:1;stroke:none;stroke-width:1.0058651" id="path6217-8-2" d="m 325,288.92202 v 86 h 145 v -86 z"/><path id="path6214-7-4" d="M 470,288.92202 H 325 v 1 h 145 z" style="opacity:1;fill:#434646;fill-opacity:1;stroke:none;stroke-width:.39242497"/><path id="path6211-7-5" d="M 470,276.92202 H 325 v 12 h 145 z" style="opacity:.96;fill:#2c2f2f;fill-opacity:1;stroke:none;stroke-width:1.41421"/></g><path style="opacity:1;fill:#2c2f2f;fill-opacity:1;stroke:none" id="decoration-inactive-center" d="m 470,200 v 86 h 145 v -86 z"/><g id="decoration-inactive-top" transform="translate(145,-6)"><path style="opacity:.5;fill:url(#linearGradient6612-5);fill-opacity:1;stroke:none" id="path6055-5-5" d="M 525,5 V 41 H 670 V 5 Z" transform="translate(-200,135)"/><path style="opacity:1;fill:#434646;fill-opacity:1;stroke:none" id="path6098-4-8" d="m 470,85 v 1 h 145 v -1 z" transform="translate(-145,90)"/><path style="opacity:1;fill:#2c2f2f;fill-opacity:1;stroke:none;stroke-width:1" id="path6092-3-3" d="m 325,176 v 30 h 145 v -30 z"/></g><g id="decoration-inactive-left" transform="translate(120.125,2.98452)"><path style="opacity:.5;fill:url(#linearGradient1389);fill-opacity:1;stroke:none;stroke-width:1.00664" id="path6345-1-1" d="m 244.875,197.01548 v 86 l 76,-0.0155 v -85.98452 z"/><path id="path6342-6-6" d="m 319.875,197.01548 v 86 h 1 v -86 z" style="opacity:1;fill:#434646;fill-opacity:1;stroke:none;stroke-width:.447214"/><path style="opacity:.99;fill:#2c2f2f;fill-opacity:1;stroke:none" id="path6339-9-9" d="m 320.875,197.01548 v 86 h 29 v -86 z"/></g><g id="decoration-bottomleft" transform="translate(-385,-4.000015)"><path id="rect7023-1" d="M 81 196 C 81 202.648 86.352 208 93 208 L 110 208 L 110 196 L 81 196 z" transform="translate(385,94.000015)" style="opacity:.95;fill:#2c2f2f;fill-opacity:1;stroke:none"/><g id="hrh-6" transform="matrix(1,0,0,0.99932111,165,-10.666582)"><path id="rect5099-9-5" d="M 5 196 L 5 294 L 110 294 L 110 208 L 93 208 C 86.352 208 81 202.648 81 196 L 5 196 z" transform="matrix(1,0,0,1.0006794,220,104.7377)" style="opacity:.5;fill:url(#radialGradient965);fill-opacity:1;stroke:none"/><path id="path168" d="M 80 196 C 80 203.202 85.798 209 93 209 L 110 209 L 110 208 L 93 208 C 86.352 208 81 202.648 81 196 L 80 196 z" transform="matrix(1,0,0,1.0006794,220,104.7377)" style="opacity:1;fill:#4f5454;fill-opacity:1;stroke:none"/></g></g><g id="decoration-inactive-bottomleft"><path id="path4207" d="m 441,196 c 0,6.648 5.352,12 12,12 h 14 3 v -12 z" transform="translate(0,90)" style="opacity:.96;fill:#2c2f2f;fill-opacity:1;stroke:none;stroke-width:1.41421"/><g id="hrh-3" transform="matrix(1,0,0,0.99932111,140,-14.604092)"><path id="rect5099-9-6" d="m 365,196 v 98 h 105 v -86 h -3 -14 c -6.648,0 -12,-5.352 -12,-12 z" transform="matrix(1,0,0,1.0006794,-140,104.67515)" style="opacity:.5;fill:url(#radialGradient967);fill-opacity:1;stroke:none"/><path id="path188" d="m 440,196 c 0,7.202 5.798,13 13,13 h 14 l 3,-1e-5 V 208 h -3 -14 c -6.648,0 -12,-5.352 -12,-12 z" transform="matrix(1,0,0,1.0006794,-140,104.67515)" style="opacity:1;fill:#434646;fill-opacity:1;stroke:none"/></g></g><rect style="opacity:1;fill:#f0f;fill-opacity:1;stroke:none;stroke-width:.447214" id="shadow-hint-top-margin" width="4" height="36" x="174" y="134"/><rect style="opacity:1;fill:#f0f;fill-opacity:1;stroke:none;stroke-width:1.18321598" id="shadow-hint-bottom-margin" width="4" height="86" x="175" y="298"/><rect style="opacity:1;fill:#f0f;fill-opacity:1;stroke:none;stroke-width:.707107" id="shadow-hint-right-margin" width="76" height="4" x="284" y="230"/><rect style="opacity:1;fill:#f0f;fill-opacity:1;stroke:none;stroke-width:.707107" id="shadow-hint-left-margin" width="76" height="4" x="5" y="224"/><rect id="hint-top-margin" width="4" height="66" x="186" y="134" style="fill:#00ff29;fill-opacity:1;stroke:none;stroke-width:1.08465"/><rect id="hint-bottom-margin" width="4" height="98" x="187" y="286" style="fill:#00ff29;fill-opacity:1;stroke:none;stroke-width:1.11946"/><rect id="hint-right-margin" width="4" height="105" x="219" y="-360" transform="rotate(90)" style="fill:#00ff29;fill-opacity:1;stroke:none;stroke-width:1.08465"/><rect id="hint-left-margin" width="4" height="105" x="216" y="-110" transform="rotate(90)" style="fill:#00ff29;fill-opacity:1;stroke:none;stroke-width:1.0853"/><g id="decoration-topleft" transform="matrix(-1,0,0,1,535,-31.0625)"><path id="path1019" d="m 5,50 v 66 H 81 V 98 c 0,-6.648 5.352,-12 12,-12 h 17 V 50 Z" transform="matrix(-1,0,0,1,535,115.0625)" style="opacity:.5;fill:url(#radialGradient1306);fill-opacity:1;stroke:none"/><g id="g1027" transform="translate(250)"><g id="g1025" transform="matrix(-1,0,0,1,524,26)"><path id="path1023" d="m 93,86 c -6.648,0 -12,5.352 -12,12 v 18 h 29 V 86 Z" transform="translate(239,89.0625)" style="opacity:1;fill:url(#linearGradient977);fill-opacity:1;stroke:none;stroke-width:1"/><path style="opacity:1;fill:#3e4242;fill-opacity:1;stroke:none;stroke-width:1" id="path961" d="M 93 80 C 86.352 80 81 85.352 81 92 L 81 92.599609 C 81 86.173209 86.352 81 93 81 L 110 81 L 110 80 L 93 80 z" transform="translate(239,95.0625)"/></g></g><path id="path187" d="m 93,85 c -7.202,0 -13,5.798 -13,13 v 18 h 1 V 98 c 0,-6.648 5.352,-12 12,-12 h 17 v -1 z" transform="matrix(-1,0,0,1,535,115.0625)" style="opacity:1;fill:#4f5454;fill-opacity:1;stroke:none"/></g><g id="decoration-inactive-right" transform="matrix(-1,0,0,1,964.875,2.98452)"><path id="path1004" d="m 244.875,197.01548 v 86 l 76,-0.0155 v -85.98452 z" style="opacity:.5;fill:url(#linearGradient1012);fill-opacity:1;stroke:none;stroke-width:1.00664"/><path style="opacity:1;fill:#434646;fill-opacity:1;stroke:none;stroke-width:.447214" id="path1006" d="m 319.875,197.01548 v 86 h 1 v -86 z"/><path id="path1008" d="m 320.875,197.01548 v 86 h 29 v -86 z" style="opacity:.99;fill:#2c2f2f;fill-opacity:1;stroke:none"/></g><use id="decoration-topright" width="100%" height="100%" x="0" y="0" transform="matrix(-1,0,0,1,365,0)" xlink:href="#decoration-topleft"/><use id="decoration-inactive-topright" width="100%" height="100%" x="0" y="0" transform="matrix(-1,0,0,1,1085,0)" xlink:href="#decoration-inactive-topleft"/><use id="decoration-bottomright" width="100%" height="100%" x="0" y="0" transform="matrix(-1,0,0,1,365,0)" xlink:href="#decoration-bottomleft"/><use id="decoration-inactive-bottomright" width="100%" height="100%" x="0" y="0" transform="matrix(-1,0,0,1,1085,0)" xlink:href="#decoration-inactive-bottomleft"/></g></svg>