<svg xmlns="http://www.w3.org/2000/svg" xmlns:svg="http://www.w3.org/2000/svg" xmlns:xlink="http://www.w3.org/1999/xlink" id="svg4428" width="119.467" height="29.867" version="1.1"><defs id="defs4430"><linearGradient id="linearGradient3913"><stop style="stop-color:#fff;stop-opacity:1" id="stop3915" offset="0"/><stop id="stop3921" offset=".5" style="stop-color:#fff;stop-opacity:.49803922"/><stop style="stop-color:#fff;stop-opacity:0" id="stop3917" offset="1"/></linearGradient><linearGradient id="linearGradient3868"><stop style="stop-color:#5a5a5a;stop-opacity:1" id="stop3870" offset="0"/><stop style="stop-color:#646464;stop-opacity:1" id="stop3872" offset="1"/></linearGradient><linearGradient id="linearGradient3813"><stop style="stop-color:#666;stop-opacity:1" id="stop3815" offset="0"/><stop style="stop-color:#636363;stop-opacity:1" id="stop3817" offset="1"/></linearGradient><linearGradient id="linearGradient3787"><stop style="stop-color:#e5e5df;stop-opacity:1" id="stop3789" offset="0"/><stop style="stop-color:#dadad4;stop-opacity:1" id="stop3791" offset="1"/></linearGradient><linearGradient id="linearGradient3806-3-5-6"><stop style="stop-color:#303030;stop-opacity:1" id="stop3808-6-9-1" offset="0"/><stop style="stop-color:#232323;stop-opacity:1" id="stop3810-4-6-3" offset="1"/></linearGradient><linearGradient id="linearGradient3793" x1="40" x2="40" y1="1044.362" y2="1032.362" gradientUnits="userSpaceOnUse" xlink:href="#linearGradient3787"/><linearGradient id="linearGradient3828" x1="40" x2="40" y1="1044.362" y2="1032.362" gradientTransform="matrix(1.1666666,0,0,1.0769231,-6.5,-80.335554)" gradientUnits="userSpaceOnUse" xlink:href="#linearGradient3787"/><linearGradient id="linearGradient3835" x1="40" x2="40" y1="1044.362" y2="1032.362" gradientTransform="matrix(1.1666666,0,0,1.0769231,-35.5,-1105.6978)" gradientUnits="userSpaceOnUse" xlink:href="#linearGradient3787-8"/><linearGradient id="linearGradient3835-4" x1="40" x2="40" y1="1044.362" y2="1032.362" gradientTransform="matrix(1.1666666,0,0,1.0769231,-35.5,-1105.6978)" gradientUnits="userSpaceOnUse" xlink:href="#linearGradient3787-8"/><linearGradient id="linearGradient3787-8"><stop style="stop-color:#f5f5ee;stop-opacity:1" id="stop3789-2" offset="0"/><stop style="stop-color:#e6e6df;stop-opacity:1" id="stop3791-6" offset="1"/></linearGradient><linearGradient id="linearGradient3835-3" x1="40" x2="40" y1="1044.362" y2="1032.362" gradientTransform="matrix(1.1666666,0,0,1.0769231,-35.5,-1105.6978)" gradientUnits="userSpaceOnUse" xlink:href="#linearGradient3787-8"/><linearGradient id="linearGradient3787-7"><stop style="stop-color:#f5f5ee;stop-opacity:1" id="stop3789-3" offset="0"/><stop style="stop-color:#e6e6e0;stop-opacity:1" id="stop3791-3" offset="1"/></linearGradient><linearGradient id="linearGradient3807" x1="11" x2="11" y1="15.75" y2="8.25" gradientUnits="userSpaceOnUse" xlink:href="#linearGradient3787"/><linearGradient id="linearGradient3819" x1="29.5" x2="29.5" y1="15.2" y2="8.8" gradientUnits="userSpaceOnUse" xlink:href="#linearGradient3813"/><linearGradient id="linearGradient3807-1" x1="10" x2="10" y1="7" y2="15.889" gradientUnits="userSpaceOnUse" xlink:href="#linearGradient4231"/><linearGradient id="linearGradient4231"><stop id="stop4233" offset="0" style="stop-color:#e7e7e1;stop-opacity:1"/><stop id="stop4239" offset="1" style="stop-color:#dadad3;stop-opacity:1"/></linearGradient><linearGradient id="linearGradient3807-1-1" x1="10" x2="10" y1="15.889" y2="7" gradientUnits="userSpaceOnUse" xlink:href="#linearGradient4231-1"/><linearGradient id="linearGradient4231-1"><stop id="stop4233-6" offset="0" style="stop-color:#e5e5de;stop-opacity:1"/><stop id="stop4239-7" offset="1" style="stop-color:#dadad3;stop-opacity:1"/></linearGradient><linearGradient id="linearGradient4363"><stop style="stop-color:#979791;stop-opacity:1" id="stop4365" offset="0"/><stop style="stop-color:#dadad4;stop-opacity:0" id="stop4367" offset="1"/></linearGradient><linearGradient id="linearGradient4363-7"><stop style="stop-color:#f5f5ef;stop-opacity:1" id="stop4365-9" offset="0"/><stop style="stop-color:#dadad4;stop-opacity:0" id="stop4367-8" offset="1"/></linearGradient><linearGradient id="linearGradient4361" x1="248.632" x2="248.632" y1="79" y2="58" gradientTransform="matrix(1.1875,0,0,1,-41.25,0)" gradientUnits="userSpaceOnUse" xlink:href="#linearGradient4231-7"/><linearGradient id="linearGradient4231-7"><stop id="stop4233-4" offset="0" style="stop-color:#e6e6df;stop-opacity:1"/><stop id="stop4239-8" offset="1" style="stop-color:#d1d1ca;stop-opacity:1"/></linearGradient><linearGradient id="linearGradient3127" x1="248.632" x2="248.632" y1="79" y2="58" gradientTransform="matrix(1.1875,0,0,1,-262.25,-55.99998)" gradientUnits="userSpaceOnUse" xlink:href="#linearGradient4231-7"/><linearGradient id="linearGradient3154" x1="248.632" x2="248.632" y1="79" y2="58" gradientTransform="matrix(1.1875,0,0,1,-262.25,-55.99998)" gradientUnits="userSpaceOnUse" xlink:href="#linearGradient4231-7"/><linearGradient id="linearGradient3159" x1="248.632" x2="248.632" y1="79" y2="58" gradientTransform="matrix(1.1875,0,0,1,-249.25,-54.99998)" gradientUnits="userSpaceOnUse" xlink:href="#linearGradient4231-7"/><linearGradient id="linearGradient3159-0" x1="248.632" x2="248.632" y1="79" y2="58" gradientTransform="matrix(1.1875,0,0,1,-262.25,-55.99998)" gradientUnits="userSpaceOnUse" xlink:href="#linearGradient4231-7-9"/><linearGradient id="linearGradient4231-7-9"><stop id="stop4233-4-2" offset="0" style="stop-color:#e6e6df;stop-opacity:1"/><stop id="stop4239-8-9" offset="1" style="stop-color:#d1d1ca;stop-opacity:1"/></linearGradient><linearGradient id="linearGradient4231-5"><stop id="stop4233-41" offset="0" style="stop-color:#e5e5de;stop-opacity:1"/><stop id="stop4239-73" offset="1" style="stop-color:#dadad3;stop-opacity:1"/></linearGradient><linearGradient id="linearGradient3159-1" x1="248.632" x2="248.632" y1="79" y2="58" gradientTransform="matrix(1.1875,0,0,1,-262.25,-55.99998)" gradientUnits="userSpaceOnUse" xlink:href="#linearGradient4231-7-7"/><linearGradient id="linearGradient4231-7-7"><stop id="stop4233-4-7" offset="0" style="stop-color:#e6e6df;stop-opacity:1"/><stop id="stop4239-8-2" offset="1" style="stop-color:#d1d1ca;stop-opacity:1"/></linearGradient><linearGradient id="linearGradient3807-1-7" x1="10" x2="10" y1="15.889" y2="7" gradientUnits="userSpaceOnUse" xlink:href="#linearGradient4231-73"/><linearGradient id="linearGradient4231-73"><stop id="stop4233-1" offset="0" style="stop-color:#e5e5de;stop-opacity:1"/><stop id="stop4239-85" offset="1" style="stop-color:#dadad3;stop-opacity:1"/></linearGradient></defs><metadata id="metadata4433"/><g id="layer1" transform="translate(0,-1092.653)"><g id="active-center" transform="matrix(0.01754682,0,0,-0.01754674,2.9481648,1117.6576)" style="stroke-width:1.26053357"><path id="path900" d="m 458.87896,7.858312 c 251.8005,0 455.9211,204.124598 455.9211,455.929418 0,251.79519 -204.1206,455.92109 -455.9211,455.92109 C 207.07951,919.70882 2.9541065,715.58292 2.9541065,463.78773 2.9541065,211.98291 207.07951,7.858312 458.87896,7.858312" style="fill:#c5a8ce;fill-opacity:1;fill-rule:evenodd;stroke:none;stroke-width:1.34456921;enable-background:new;opacity:0"/><path style="fill:#ccc;fill-opacity:1;fill-rule:evenodd;stroke:none;stroke-width:1.34456921;enable-background:new" id="path14" d="m 458.87873,64.846581 c 220.32675,0 398.93335,178.610089 398.93335,398.940629 0,220.32211 -178.6066,398.93334 -398.93335,398.93334 -220.32584,0 -398.936639,-178.61123 -398.936639,-398.93334 0,-220.33054 178.610799,-398.940629 398.936639,-398.940629"/><path style="fill:#f0f0f0;fill-opacity:1;fill-rule:evenodd;stroke:none;stroke-width:1.34456921;enable-background:new" id="path16" d="m 458.87706,93.349705 c 204.58563,0 370.43752,165.849295 370.43752,370.437775 0,204.58091 -165.85189,370.42995 -370.43752,370.42995 -204.58467,0 -370.437464,-165.84904 -370.437464,-370.42995 0,-204.58848 165.852794,-370.437774 370.437464,-370.437774"/></g><g id="hover-center" transform="matrix(0.01754674,0,0,-0.01754674,24.895819,1117.601)" style="stroke-width:1.26053357"><path id="path902" d="m 461.8607,916.48751 c -251.80178,0 -455.92333,-204.1245 -455.92333,-455.9291 0,-251.79517 204.12155,-455.92095 455.92333,-455.92095 251.80066,0 455.92716,204.12578 455.92716,455.92095 0,251.8046 -204.1265,455.9291 -455.92716,455.9291" style="fill:#d1b6da;fill-opacity:1;fill-rule:evenodd;stroke:none;stroke-width:1.34457219;enable-background:new;opacity:0"/><path style="fill:#ccc;fill-opacity:1;fill-rule:evenodd;stroke:none;stroke-width:1.34457219;enable-background:new" id="path14-3" d="m 461.86094,859.49667 c -220.32644,0 -398.932701,-178.60885 -398.932701,-398.93775 0,-220.32066 178.606261,-398.930619 398.932701,-398.930619 220.32546,0 398.93605,178.609959 398.93605,398.930619 0,220.3289 -178.61059,398.93775 -398.93605,398.93775"/><path style="fill:#f0f0f0;fill-opacity:1;fill-rule:evenodd;stroke:none;stroke-width:1.34457219;enable-background:new" id="path16-5" d="m 461.86259,830.99598 c -204.58656,0 -370.43915,-165.84906 -370.43915,-370.43736 0,-204.58074 165.85259,-370.429629 370.43915,-370.429629 204.58561,0 370.4392,165.848889 370.4392,370.429629 0,204.5883 -165.85359,370.43736 -370.4392,370.43736"/><ellipse id="path4179-3" cx="460.029" cy="-452.385" rx="144.677" ry="144.677" transform="scale(1,-1)" style="opacity:1;fill:#999;fill-opacity:1;stroke:none;stroke-width:121.58;stroke-miterlimit:4;stroke-dasharray:none;stroke-opacity:1;enable-background:new"/></g><g id="pressed-center" transform="matrix(0.01754674,0,0,-0.01754682,47.895819,1117.7002)" style="stroke-width:1.26053357"><path id="path904" d="m 461.86074,922.13339 c -251.8018,0 -455.9233,-204.1236 -455.9233,-455.9271 0,-251.79399 204.1215,-455.91885 455.9233,-455.91885 251.80066,0 455.92706,204.12486 455.92706,455.91885 0,251.8035 -204.1264,455.9271 -455.92706,455.9271" style="fill:#bfa2c8;fill-opacity:1;fill-rule:evenodd;stroke:none;stroke-width:1.34456933;enable-background:new;opacity:0"/><path style="fill:#ccc;fill-opacity:1;fill-rule:evenodd;stroke:none;stroke-width:1.34456933;enable-background:new" id="path14-2-3" d="m 461.86098,865.14441 c -220.32735,0 -398.934283,-178.60877 -398.934283,-398.9376 0,-220.32051 178.606933,-398.930389 398.934283,-398.930389 220.32634,0 398.93756,178.609879 398.93756,398.930389 0,220.32883 -178.61122,398.9376 -398.93756,398.9376"/><path style="fill:#f0f0f0;fill-opacity:1;fill-rule:evenodd;stroke:none;stroke-width:1.34456933;enable-background:new" id="path16-9-6" d="m 461.86264,836.64229 c -204.58665,0 -370.439202,-165.84838 -370.439202,-370.43573 0,-204.57983 165.852552,-370.428015 370.439202,-370.428015 204.58563,0 370.43916,165.848185 370.43916,370.428015 0,204.58735 -165.85353,370.43573 -370.43916,370.43573"/><ellipse id="path4179" cx="462.325" cy="-464.315" rx="144.677" ry="144.676" transform="scale(1,-1)" style="opacity:1;fill:#999;fill-opacity:1;stroke:none;stroke-width:121.58;stroke-miterlimit:4;stroke-dasharray:none;stroke-opacity:1;enable-background:new"/></g><g style="display:inline" id="inactive-center" transform="translate(-224,1370.1575)"><rect id="rect1561-02" width="16" height="16" x="293" y="-268.638" ry="0" style="opacity:0;fill:#000;fill-opacity:1;stroke:none;stroke-width:.47432083;stroke-linejoin:miter;stroke-miterlimit:4;stroke-dasharray:none;stroke-opacity:1;paint-order:markers stroke fill"/><g id="titlebutton-close-backdrop-1-3" transform="translate(294,-267.63782)" style="enable-background:new"><g id="g6-97-7" transform="translate(-4.9999997,-1033.3622)"><path style="fill:#ccc;fill-opacity:1;fill-rule:evenodd;stroke:none" id="path2-361-5" d="m 12.000061,1047.3622 c 3.865929,0 6.999939,-3.134 6.999939,-7 0,-3.866 -3.13401,-7 -6.999939,-7 -3.8660427,0 -7.0000616,3.134 -7.0000616,7 0,3.866 3.1340189,7 7.0000616,7"/><path style="opacity:1;fill:#f0f0f0;fill-opacity:1;fill-rule:evenodd;stroke:none" id="path4-2" d="m 12.000067,1046.8623 c 3.589781,0 6.499933,-2.9103 6.499933,-6.5001 0,-3.5899 -2.910152,-6.5 -6.499933,-6.5 -3.5899136,0 -6.5000676,2.9101 -6.5000676,6.5 0,3.5898 2.910154,6.5001 6.5000676,6.5001"/></g></g></g><g id="deactivated-center" transform="translate(-196.17222,1370.1575)" style="display:inline"><rect style="opacity:0;fill:#000;fill-opacity:1;stroke:none;stroke-width:.47432083;stroke-linejoin:miter;stroke-miterlimit:4;stroke-dasharray:none;stroke-opacity:1;paint-order:markers stroke fill" id="rect918" width="16" height="16" x="293" y="-268.638" ry="0"/><g style="enable-background:new" id="g926" transform="translate(294,-267.63782)"><g id="g924" transform="translate(-4.9999997,-1033.3622)"><path id="path920" d="m 12.000061,1047.3622 c 3.865929,0 6.999939,-3.134 6.999939,-7 0,-3.866 -3.13401,-7 -6.999939,-7 -3.8660427,0 -7.0000616,3.134 -7.0000616,7 0,3.866 3.1340189,7 7.0000616,7" style="fill:#ccc;fill-opacity:1;fill-rule:evenodd;stroke:none"/><path id="path922" d="m 12.000067,1046.8623 c 3.589781,0 6.499933,-2.9103 6.499933,-6.5001 0,-3.5899 -2.910152,-6.5 -6.499933,-6.5 -3.5899136,0 -6.5000676,2.9101 -6.5000676,6.5 0,3.5898 2.910154,6.5001 6.5000676,6.5001" style="opacity:1;fill:#f0f0f0;fill-opacity:1;fill-rule:evenodd;stroke:none"/></g></g></g></g></svg>