<svg xmlns="http://www.w3.org/2000/svg" xmlns:svg="http://www.w3.org/2000/svg" xmlns:xlink="http://www.w3.org/1999/xlink" id="svg4428" width="24" height="24" version="1.1"><defs id="defs4430"><linearGradient id="linearGradient3868"><stop style="stop-color:#5a5a5a;stop-opacity:1" id="stop3870" offset="0"/><stop style="stop-color:#646464;stop-opacity:1" id="stop3872" offset="1"/></linearGradient><linearGradient id="linearGradient3813"><stop style="stop-color:#666;stop-opacity:1" id="stop3815" offset="0"/><stop style="stop-color:#636363;stop-opacity:1" id="stop3817" offset="1"/></linearGradient><linearGradient id="linearGradient3787"><stop style="stop-color:#e5e5df;stop-opacity:1" id="stop3789" offset="0"/><stop style="stop-color:#dadad4;stop-opacity:1" id="stop3791" offset="1"/></linearGradient><linearGradient id="linearGradient3806-3-5-6"><stop style="stop-color:#303030;stop-opacity:1" id="stop3808-6-9-1" offset="0"/><stop style="stop-color:#232323;stop-opacity:1" id="stop3810-4-6-3" offset="1"/></linearGradient><linearGradient id="linearGradient3793" x1="40" x2="40" y1="1044.362" y2="1032.362" gradientUnits="userSpaceOnUse" xlink:href="#linearGradient3787"/><linearGradient id="linearGradient3828" x1="40" x2="40" y1="1044.362" y2="1032.362" gradientTransform="matrix(1.1666666,0,0,1.0769231,-6.5,-80.335554)" gradientUnits="userSpaceOnUse" xlink:href="#linearGradient3787"/><linearGradient id="linearGradient3835" x1="40" x2="40" y1="1044.362" y2="1032.362" gradientTransform="matrix(1.1666666,0,0,1.0769231,-35.5,-1105.6978)" gradientUnits="userSpaceOnUse" xlink:href="#linearGradient3787-8"/><linearGradient id="linearGradient3835-4" x1="40" x2="40" y1="1044.362" y2="1032.362" gradientTransform="matrix(1.1666666,0,0,1.0769231,-35.5,-1105.6978)" gradientUnits="userSpaceOnUse" xlink:href="#linearGradient3787-8"/><linearGradient id="linearGradient3787-8"><stop style="stop-color:#f5f5ee;stop-opacity:1" id="stop3789-2" offset="0"/><stop style="stop-color:#e6e6df;stop-opacity:1" id="stop3791-6" offset="1"/></linearGradient><linearGradient id="linearGradient3835-3" x1="40" x2="40" y1="1044.362" y2="1032.362" gradientTransform="matrix(1.1666666,0,0,1.0769231,-35.5,-1105.6978)" gradientUnits="userSpaceOnUse" xlink:href="#linearGradient3787-8"/><linearGradient id="linearGradient3787-7"><stop style="stop-color:#f5f5ee;stop-opacity:1" id="stop3789-3" offset="0"/><stop style="stop-color:#e6e6e0;stop-opacity:1" id="stop3791-3" offset="1"/></linearGradient><linearGradient id="linearGradient3807" x1="11" x2="11" y1="15.75" y2="8.25" gradientUnits="userSpaceOnUse" xlink:href="#linearGradient3787"/><linearGradient id="linearGradient3819" x1="29.5" x2="29.5" y1="15.2" y2="8.8" gradientUnits="userSpaceOnUse" xlink:href="#linearGradient3813"/><linearGradient id="linearGradient3807-1" x1="10" x2="10" y1="7" y2="15.889" gradientUnits="userSpaceOnUse" xlink:href="#linearGradient4231"/><linearGradient id="linearGradient4231"><stop id="stop4233" offset="0" style="stop-color:#e7e7e1;stop-opacity:1"/><stop id="stop4239" offset="1" style="stop-color:#dadad3;stop-opacity:1"/></linearGradient><linearGradient id="linearGradient3807-1-1" x1="10" x2="10" y1="15.889" y2="7" gradientUnits="userSpaceOnUse" xlink:href="#linearGradient4231-1"/><linearGradient id="linearGradient4231-1"><stop id="stop4233-6" offset="0" style="stop-color:#e5e5de;stop-opacity:1"/><stop id="stop4239-7" offset="1" style="stop-color:#dadad3;stop-opacity:1"/></linearGradient><linearGradient id="linearGradient4363"><stop style="stop-color:#979791;stop-opacity:1" id="stop4365" offset="0"/><stop style="stop-color:#dadad4;stop-opacity:0" id="stop4367" offset="1"/></linearGradient><linearGradient id="linearGradient4363-7"><stop style="stop-color:#f5f5ef;stop-opacity:1" id="stop4365-9" offset="0"/><stop style="stop-color:#dadad4;stop-opacity:0" id="stop4367-8" offset="1"/></linearGradient><linearGradient id="linearGradient4361" x1="248.632" x2="248.632" y1="79" y2="58" gradientTransform="matrix(1.1875,0,0,1,-41.25,0)" gradientUnits="userSpaceOnUse" xlink:href="#linearGradient4231-7"/><linearGradient id="linearGradient4231-7"><stop id="stop4233-4" offset="0" style="stop-color:#e6e6df;stop-opacity:1"/><stop id="stop4239-8" offset="1" style="stop-color:#d1d1ca;stop-opacity:1"/></linearGradient><linearGradient id="linearGradient3127" x1="248.632" x2="248.632" y1="79" y2="58" gradientTransform="matrix(1.1875,0,0,1,-262.25,-55.99998)" gradientUnits="userSpaceOnUse" xlink:href="#linearGradient4231-7"/><linearGradient id="linearGradient3154" x1="248.632" x2="248.632" y1="79" y2="58" gradientTransform="matrix(1.1875,0,0,1,-262.25,-55.99998)" gradientUnits="userSpaceOnUse" xlink:href="#linearGradient4231-7"/><linearGradient id="linearGradient3159" x1="248.632" x2="248.632" y1="79" y2="58" gradientTransform="matrix(1.1875,0,0,1,-249.25,-54.99998)" gradientUnits="userSpaceOnUse" xlink:href="#linearGradient4231-7"/><linearGradient id="linearGradient3159-0" x1="248.632" x2="248.632" y1="79" y2="58" gradientTransform="matrix(1.1875,0,0,1,-262.25,-55.99998)" gradientUnits="userSpaceOnUse" xlink:href="#linearGradient4231-7-9"/><linearGradient id="linearGradient4231-7-9"><stop id="stop4233-4-2" offset="0" style="stop-color:#e6e6df;stop-opacity:1"/><stop id="stop4239-8-9" offset="1" style="stop-color:#d1d1ca;stop-opacity:1"/></linearGradient><linearGradient id="linearGradient4231-5"><stop id="stop4233-41" offset="0" style="stop-color:#e5e5de;stop-opacity:1"/><stop id="stop4239-73" offset="1" style="stop-color:#dadad3;stop-opacity:1"/></linearGradient><linearGradient id="linearGradient3159-1" x1="248.632" x2="248.632" y1="79" y2="58" gradientTransform="matrix(1.1875,0,0,1,-262.25,-55.99998)" gradientUnits="userSpaceOnUse" xlink:href="#linearGradient4231-7-7"/><linearGradient id="linearGradient4231-7-7"><stop id="stop4233-4-7" offset="0" style="stop-color:#e6e6df;stop-opacity:1"/><stop id="stop4239-8-2" offset="1" style="stop-color:#d1d1ca;stop-opacity:1"/></linearGradient><linearGradient id="linearGradient3807-1-7" x1="10" x2="10" y1="15.889" y2="7" gradientUnits="userSpaceOnUse" xlink:href="#linearGradient4231-73"/><linearGradient id="linearGradient4231-73"><stop id="stop4233-1" offset="0" style="stop-color:#e5e5de;stop-opacity:1"/><stop id="stop4239-85" offset="1" style="stop-color:#dadad3;stop-opacity:1"/></linearGradient></defs><metadata id="metadata4433"/><g id="layer1" transform="translate(0,-1098.5197)"><g style="display:inline" id="inactive-center" transform="translate(-248.71593,1319.5894)"><rect id="rect1557-60" width="16" height="16" x="253" y="-268.638" ry="0" style="opacity:0;fill:#000;fill-opacity:1;stroke:none;stroke-width:.47432083;stroke-linejoin:miter;stroke-miterlimit:4;stroke-dasharray:none;stroke-opacity:1;paint-order:markers stroke fill"/><g id="titlebutton-minimize-backdrop-1-6" transform="translate(254,-267.63782)" style="enable-background:new"><g id="g6-6-2" transform="translate(-4.9999997,-1033.3622)"><path style="fill:#bababa;fill-opacity:1;fill-rule:evenodd;stroke:none" id="path2-26-6" d="m 12.000061,1047.3622 c 3.865929,0 6.999939,-3.134 6.999939,-7 0,-3.866 -3.13401,-7 -6.999939,-7 -3.8660427,0 -7.0000616,3.134 -7.0000616,7 0,3.866 3.1340189,7 7.0000616,7"/><path style="opacity:1;fill:#cecece;fill-opacity:1;fill-rule:evenodd;stroke:none" id="path4-1" d="m 12.000067,1046.8623 c 3.589781,0 6.499933,-2.9103 6.499933,-6.5001 0,-3.5899 -2.910152,-6.5 -6.499933,-6.5 -3.5899136,0 -6.5000676,2.9101 -6.5000676,6.5 0,3.5898 2.910154,6.5001 6.5000676,6.5001"/></g></g></g><g style="display:inline" id="active-center" transform="translate(-248.71593,1319.5894)"><rect style="opacity:0;fill:#000;fill-opacity:1;stroke:none;stroke-width:.47432083;stroke-linejoin:miter;stroke-miterlimit:4;stroke-dasharray:none;stroke-opacity:1;paint-order:markers stroke fill" id="rect1565-18" width="16" height="16" x="253" y="-242.638" ry="0"/><g id="titlebutton-minimize-1-7" transform="translate(254,-241.63782)" style="enable-background:new"><g id="g6-2-9" transform="translate(-4.9999997,-1033.3622)"><path style="fill:#caa124;fill-opacity:1;fill-rule:evenodd;stroke:none" id="path2-37-2" d="m 12.000061,1047.3622 c 3.865929,0 6.999939,-3.134 6.999939,-7 0,-3.866 -3.13401,-7 -6.999939,-7 -3.8660427,0 -7.0000616,3.134 -7.0000616,7 0,3.866 3.1340189,7 7.0000616,7"/><path style="opacity:1;fill:#fdc92d;fill-opacity:1;fill-rule:evenodd;stroke:none" id="path4-59" d="m 12.000067,1046.8623 c 3.589781,0 6.499933,-2.9103 6.499933,-6.5001 0,-3.5899 -2.910152,-6.5 -6.499933,-6.5 -3.5899136,0 -6.5000676,2.9101 -6.5000676,6.5 0,3.5898 2.910154,6.5001 6.5000676,6.5001"/></g></g></g><g style="display:inline" id="pressed-center" transform="translate(-248.71593,1319.5894)"><rect style="opacity:0;fill:#000;fill-opacity:1;stroke:none;stroke-width:.47432083;stroke-linejoin:miter;stroke-miterlimit:4;stroke-dasharray:none;stroke-opacity:1;paint-order:markers stroke fill" id="rect1582-7" width="16" height="16" x="253" y="-190.638" ry="0"/><g id="titlebutton-minimize-active-1-6" transform="translate(254,-189.63782)" style="enable-background:new"><g id="g6-22-5" transform="translate(-4.9999997,-1033.3622)"><path style="fill:#caa124;fill-opacity:1;fill-rule:evenodd;stroke:none" id="path2-8-6" d="m 12.000061,1047.3622 c 3.865929,0 6.999939,-3.134 6.999939,-7 0,-3.866 -3.13401,-7 -6.999939,-7 -3.8660427,0 -7.0000616,3.134 -7.0000616,7 0,3.866 3.1340189,7 7.0000616,7"/><rect style="opacity:.5;fill:#000;fill-opacity:1;stroke:none;stroke-width:2;stroke-linecap:round;stroke-linejoin:round;stroke-miterlimit:4;stroke-dasharray:none;stroke-opacity:1" id="rect4-9" width="8" height="2" x="8" y="1039.36" ry="1"/></g></g></g><g style="display:inline" id="hover-center" transform="translate(-248.71593,1319.5894)"><rect id="rect1573-3" width="16" height="16" x="253" y="-216.638" ry="0" style="opacity:0;fill:#000;fill-opacity:1;stroke:none;stroke-width:.47432083;stroke-linejoin:miter;stroke-miterlimit:4;stroke-dasharray:none;stroke-opacity:1;paint-order:markers stroke fill"/><g id="titlebutton-minimize-hover-1-7" transform="translate(254,-215.63782)" style="enable-background:new"><g id="g8-9-45" transform="translate(-4.9999997,-1033.3622)"><path style="fill:#caa124;fill-opacity:1;fill-rule:evenodd;stroke:none" id="path2-31-2" d="m 12.000061,1047.3622 c 3.865929,0 6.999939,-3.134 6.999939,-7 0,-3.866 -3.13401,-7 -6.999939,-7 -3.8660427,0 -7.0000616,3.134 -7.0000616,7 0,3.866 3.1340189,7 7.0000616,7"/><path style="opacity:1;fill:#fdc92d;fill-opacity:1;fill-rule:evenodd;stroke:none" id="path4-94" d="m 12.000067,1046.8623 c 3.589781,0 6.499933,-2.9103 6.499933,-6.5001 0,-3.5899 -2.910152,-6.5 -6.499933,-6.5 -3.5899136,0 -6.5000676,2.9101 -6.5000676,6.5 0,3.5898 2.910154,6.5001 6.5000676,6.5001"/><rect style="opacity:.5;fill:#000;fill-opacity:1;stroke:none;stroke-width:2;stroke-linecap:round;stroke-linejoin:round;stroke-miterlimit:4;stroke-dasharray:none;stroke-opacity:1" id="rect6-5" width="8" height="2" x="8" y="1039.36" ry="1"/></g></g></g><g id="deactivated-center" transform="translate(-215.70856,1319.5894)" style="display:inline"><rect style="opacity:0;fill:#000;fill-opacity:1;stroke:none;stroke-width:.47432083;stroke-linejoin:miter;stroke-miterlimit:4;stroke-dasharray:none;stroke-opacity:1;paint-order:markers stroke fill" id="rect963" width="16" height="16" x="253" y="-268.638" ry="0"/><g style="enable-background:new" id="g971" transform="translate(254,-267.63782)"><g id="g969" transform="translate(-4.9999997,-1033.3622)"><path id="path965" d="m 12.000061,1047.3622 c 3.865929,0 6.999939,-3.134 6.999939,-7 0,-3.866 -3.13401,-7 -6.999939,-7 -3.8660427,0 -7.0000616,3.134 -7.0000616,7 0,3.866 3.1340189,7 7.0000616,7" style="fill:#bababa;fill-opacity:1;fill-rule:evenodd;stroke:none"/><path id="path967" d="m 12.000067,1046.8623 c 3.589781,0 6.499933,-2.9103 6.499933,-6.5001 0,-3.5899 -2.910152,-6.5 -6.499933,-6.5 -3.5899136,0 -6.5000676,2.9101 -6.5000676,6.5 0,3.5898 2.910154,6.5001 6.5000676,6.5001" style="opacity:1;fill:#cecece;fill-opacity:1;fill-rule:evenodd;stroke:none"/></g></g></g></g></svg>