<svg xmlns="http://www.w3.org/2000/svg" xmlns:svg="http://www.w3.org/2000/svg" id="svg17" version="1.1" viewBox="0 0 54 32"><metadata id="metadata19"/><defs id="defs5"><style id="current-color-scheme" type="text/css">.ColorScheme-Text{color:#363636}</style></defs><g id="22-22-akregator"><path id="path7" fill="none" d="m0 10v22h22v-22h-22z"/><path id="path9" fill="#fff" d="m3 13v3a13 13 0 0 1 13 13h3a16 16 0 0 0-16-16zm0 6v3a7 7 0 0 1 7 7h3a10 10 0 0 0-10-10zm2 6a2 2 0 0 0-2 2 2 2 0 0 0 2 2 2 2 0 0 0 2-2 2 2 0 0 0-2-2z" class="ColorScheme-Text" style="fill:#fff;fill-opacity:1"/></g><g id="akregator"><path id="path12" fill="#fff" d="m26 4v4a20 20 0 0 1 20 20h4a24 24 0 0 0-24-24zm0 8v4a12 12 0 0 1 12 12h4a16 16 0 0 0-16-16zm3.5 9a3.5 3.5 0 0 0-3.5 3.5 3.5 3.5 0 0 0 3.5 3.5 3.5 3.5 0 0 0 3.5-3.5 3.5 3.5 0 0 0-3.5-3.5z" class="ColorScheme-Text" style="fill:#fff;fill-opacity:1"/><path id="path14" fill="none" d="m22 0v32h32v-32h-32z"/></g></svg>