<svg xmlns="http://www.w3.org/2000/svg" xmlns:svg="http://www.w3.org/2000/svg" id="svg17" version="1.1" viewBox="0 0 54 32"><metadata id="metadata19"/><defs id="defs5"><style id="current-color-scheme" type="text/css">.ColorScheme-Text{color:#363636}</style></defs><g id="22-22-configure"><path id="path9" fill="none" d="m0 10v22h22v-22h-22z"/><path id="path128" d="m 6.2085441,13.522916 c -2.1339837,0 -3.8519561,1.614212 -3.8519561,3.619308 0,2.005097 1.7179724,3.619308 3.8519561,3.619308 h 9.6298899 c 2.133984,0 3.851957,-1.614211 3.851957,-3.619308 0,-2.005096 -1.717973,-3.619308 -3.851957,-3.619308 z m 0,0.904828 h 9.6298899 c 1.600488,0 2.888966,1.210658 2.888966,2.71448 0,1.503823 -1.288478,2.71448 -2.888966,2.71448 H 6.2085441 c -1.6004879,0 -2.8889672,-1.210657 -2.8889672,-2.71448 0,-1.503822 1.2884793,-2.71448 2.8889672,-2.71448 z" style="fill:#dedede;fill-opacity:1;stroke-width:.933454"/><path id="path130" d="m 6.2085441,21.66636 c -2.1339837,0 -3.8519561,1.61421 -3.8519561,3.619308 0,2.005095 1.7179724,3.619308 3.8519561,3.619308 h 9.6298899 c 2.133984,0 3.851957,-1.614213 3.851957,-3.619308 0,-2.005098 -1.717973,-3.619308 -3.851957,-3.619308 z m 9.5828969,1.809654 a 1.9259782,1.8096543 0 0 1 0.04702,0 1.9259782,1.8096543 0 0 1 1.925978,1.809654 1.9259782,1.8096543 0 0 1 -1.925978,1.809655 1.9259782,1.8096543 0 0 1 -1.925978,-1.809655 1.9259782,1.8096543 0 0 1 1.878984,-1.809654 z" style="fill:#dedede;fill-opacity:1;stroke-width:.933454"/><ellipse id="circle132" cx="6.209" cy="17.141" rx="1.926" ry="1.81" style="fill:#dedede;fill-opacity:1;stroke-width:3.4671"/></g><g id="configure"><path id="path12" fill="#fff" d="m37.664 4.8008c-0.68924 0-1.2441 0.55492-1.2441 1.2441v2.4648c-0.6687 0.19375-1.3129 0.46375-1.9199 0.80469l-1.748-1.75c-0.48736-0.48736-1.2724-0.48736-1.7598 0l-1.7598 1.7598c-0.48736 0.48736-0.48736 1.2724 0 1.7598l1.7422 1.7422c-0.33663 0.60948-0.60204 1.2557-0.79102 1.9258h-2.4727c-0.68924 0-1.2441 0.55488-1.2441 1.2441v2.4883c0 0.68926 0.5549 1.2441 1.2441 1.2441h2.4668c0.19375 0.6687 0.46375 1.3129 0.80469 1.9199l-1.75 1.75c-0.48736 0.48736-0.48736 1.2705 0 1.7578l1.7598 1.7598c0.48736 0.48736 1.2724 0.48736 1.7598 0l1.7422-1.7422c0.60939 0.3373 1.2556 0.60337 1.9258 0.79297v2.4707c0 0.68922 0.5549 1.2441 1.2441 1.2441h2.4883c0.68924 0 1.2441-0.55492 1.2441-1.2441v-2.4668c0.6687-0.19375 1.3129-0.46375 1.9199-0.80469l1.75 1.75c0.48736 0.48736 1.2704 0.48736 1.7578 0l1.7598-1.7598c0.48736-0.48736 0.48736-1.2705 0-1.7578l-1.7422-1.7422c0.33744-0.61001 0.60352-1.2568 0.79297-1.9277h2.4707c0.68924 0 1.2441-0.55488 1.2441-1.2441v-2.4883c0-0.68926-0.5549-1.2441-1.2441-1.2441h-2.4668c-0.19375-0.6687-0.46375-1.3129-0.80469-1.9199l1.75-1.748c0.48736-0.48736 0.48736-1.2724 0-1.7598l-1.7598-1.7598c-0.48736-0.48736-1.2704-0.48736-1.7578 0l-1.7422 1.7422c-0.6101-0.33677-1.2569-0.60218-1.9277-0.79102v-2.4707c0-0.68922-0.5549-1.2441-1.2441-1.2441zm1.2441 7.2129c2.8866-2.02e-4 5.2268 2.3399 5.2266 5.2266 2.02e-4 2.8866-2.3399 5.2268-5.2266 5.2266-2.8866 2.02e-4 -5.2268-2.3399-5.2266-5.2266-2.02e-4 -2.8866 2.3399-5.2268 5.2266-5.2266z" class="ColorScheme-Text" style="fill:#fff;fill-opacity:1"/><path id="path14" fill="none" d="m22 0v32h32v-32h-32z"/></g></svg>