<svg xmlns="http://www.w3.org/2000/svg" xmlns:svg="http://www.w3.org/2000/svg" id="svg30" width="32" height="32" version="1.1" viewBox="0 0 32 32"><metadata id="metadata32"/><defs id="defs5"><style id="current-color-scheme" type="text/css">.ColorScheme-Text{color:#363636}</style></defs><g id="device-notifier" fill="currentColor" class="ColorScheme-Text" transform="translate(-321,-529.36)"><rect id="rect9" width="32" height="32" x="321" y="529.36" fill-opacity="0"/><path id="path27-6" d="m 332.80778,534.3632 c -0.62317,0 -1.12483,0.57881 -1.12483,1.29777 v 5.19113 h -1.12482 c -1.24627,0 -2.24962,1.15763 -2.24962,2.59556 v 3.89335 c 0,5.73396 4.02875,10.38223 8.99852,10.38223 4.96981,0 8.99856,-4.64827 8.99856,-10.38223 v -3.89335 c 0,-1.43793 -1.00335,-2.59556 -2.24963,-2.59556 h -1.12481 v -5.19113 c 0,-0.71896 -0.50167,-1.29777 -1.12483,-1.29777 z m 2.24964,2.59557 c 0.62314,0 1.1248,0.5788 1.1248,1.29775 v 1.29781 c 0,0.71894 -0.50166,1.29777 -1.1248,1.29777 -0.62317,0 -1.1248,-0.57883 -1.1248,-1.29777 v -1.29781 c 0,-0.71895 0.50163,-1.29775 1.1248,-1.29775 z m 4.49926,0 c 0.62315,0 1.1248,0.5788 1.1248,1.29775 v 1.29781 c 0,0.71894 -0.50165,1.29777 -1.1248,1.29777 -0.62316,0 -1.12482,-0.57883 -1.12482,-1.29777 v -1.29781 c 0,-0.71895 0.50166,-1.29775 1.12482,-1.29775 z m -8.99855,6.48889 h 13.49783 v 3.89335 c 0,4.31382 -3.01002,7.78667 -6.74893,7.78667 -3.73887,0 -6.7489,-3.47285 -6.7489,-7.78667 z" style="fill:#dedede;fill-opacity:1;stroke-width:1.20821"/></g><g id="16-16-device-notifier" fill="currentColor" class="ColorScheme-Text" transform="matrix(0.82716393,0,0,0.89461289,-252.67963,-471.91981)"><rect id="rect14" width="16" height="16" x="393.5" y="537.36" opacity="0" ry="0"/><g id="g22" transform="translate(-19.5)"><path id="path16" d="m 97,8 c -0.55399,0 -1,0.44601 -1,1 v 3 c -1.108,0 -2,0.89201 -2,2 v 4 c 0,3.324 2.676,6 6,6 3.324,0 6,-2.676 6,-6 v -4 c 0,-1.108 -0.89201,-2 -2,-2 V 9 c 0,-0.55399 -0.44601,-1 -1,-1 z m 1,1 c 0.55399,0 1,0.44601 1,1 v 1 c 0,0.55399 -0.44601,1 -1,1 -0.55399,0 -1,-0.44601 -1,-1 v -1 c 0,-0.55399 0.44601,-1 1,-1 z m 4,0 c 0.55399,0 1,0.44601 1,1 v 1 c 0,0.55399 -0.44601,1 -1,1 -0.55399,0 -1,-0.44601 -1,-1 v -1 c 0,-0.55399 0.44601,-1 1,-1 z m -6,4 h 8 c 0.55399,0 1,0.44601 1,1 v 4 a 5,5 0 0 1 -5,5 5,5 0 0 1 -5,-5 v -4 c 0,-0.55399 0.44601,-1 1,-1 z" transform="translate(321,529.36)"/><circle id="circle18" cx="421" cy="549.36" r="2" opacity=".25"/><circle id="circle20" cx="421" cy="549.36" r="1"/></g></g><g id="22-22-device-notifier" fill="currentColor" class="ColorScheme-Text" transform="translate(-321,-529.36)"><rect id="rect25" width="22" height="22" x="365" y="534.36" opacity="0"/><path id="path27" d="m 372.82624,538.51834 c -0.41622,0 -0.75129,0.36077 -0.75129,0.80889 v 3.23559 h -0.75129 c -0.83241,0 -1.50256,0.72154 -1.50256,1.61779 v 2.4267 c 0,3.57394 2.69088,6.47117 6.01028,6.47117 3.31941,0 6.01029,-2.89723 6.01029,-6.47117 v -2.4267 c 0,-0.89625 -0.67015,-1.61779 -1.50257,-1.61779 h -0.75128 v -3.23559 c 0,-0.44812 -0.33507,-0.80889 -0.75129,-0.80889 z m 1.50257,1.6178 c 0.41621,0 0.75128,0.36076 0.75128,0.80888 v 0.80891 c 0,0.44812 -0.33507,0.80889 -0.75128,0.80889 -0.41621,0 -0.75127,-0.36077 -0.75127,-0.80889 v -0.80891 c 0,-0.44812 0.33506,-0.80888 0.75127,-0.80888 z m 3.00514,0 c 0.41622,0 0.75128,0.36076 0.75128,0.80888 v 0.80891 c 0,0.44812 -0.33506,0.80889 -0.75128,0.80889 -0.41621,0 -0.75128,-0.36077 -0.75128,-0.80889 v -0.80891 c 0,-0.44812 0.33507,-0.80888 0.75128,-0.80888 z m -6.01029,4.04447 h 9.01544 v 2.4267 c 0,2.68877 -2.01045,4.85337 -4.50772,4.85337 -2.49727,0 -4.50772,-2.1646 -4.50772,-4.85337 z" style="stroke-width:.77956"/></g></svg>