<svg xmlns="http://www.w3.org/2000/svg" xmlns:xlink="http://www.w3.org/1999/xlink" baseProfile="tiny" version="1.2" viewBox="0 0 50 50"><title>Qt SVG Document</title><desc>Generated with Qt</desc><g fill="none" fill-rule="evenodd" stroke="#000" stroke-linecap="square" stroke-linejoin="bevel" stroke-width="1"><g fill="#000" fill-opacity="1" stroke="none" font-family="Nimbus Sans" font-size="10" font-style="normal" font-weight="400" opacity="0" transform="matrix(3.125,0,0,3.125,-853.125,758.243)"><rect width="16" height="16" x="273" y="-242.638"/></g><g fill="#20a932" fill-opacity="1" stroke="none" font-family="Nimbus Sans" font-size="10" font-style="normal" font-weight="400"><path fill-rule="evenodd" d="M12.0001,1047.36 C15.866,1047.36 19,1044.23 19,1040.36 C19,1036.5 15.866,1033.36 12.0001,1033.36 C8.13402,1033.36 5,1036.5 5,1040.36 C5,1044.23 8.13402,1047.36 12.0001,1047.36" transform="matrix(3.125,0,0,3.125,-12.5,-3226.13)" vector-effect="none"/></g><g fill="#28d33f" fill-opacity="1" stroke="none" font-family="Nimbus Sans" font-size="10" font-style="normal" font-weight="400"><path fill-rule="evenodd" d="M12.0001,1046.86 C15.5898,1046.86 18.5,1043.95 18.5,1040.36 C18.5,1036.77 15.5898,1033.86 12.0001,1033.86 C8.41015,1033.86 5.5,1036.77 5.5,1040.36 C5.5,1043.95 8.41015,1046.86 12.0001,1046.86" transform="matrix(3.125,0,0,3.125,-12.5,-3226.13)" vector-effect="none"/></g></g></svg>