<svg xmlns="http://www.w3.org/2000/svg" xmlns:xlink="http://www.w3.org/1999/xlink" baseProfile="tiny" version="1.2" viewBox="0 0 50 50"><title>Qt SVG Document</title><desc>Generated with Qt</desc><g fill="none" fill-rule="evenodd" stroke="#000" stroke-linecap="square" stroke-linejoin="bevel" stroke-width="1"><g fill="#000" fill-opacity="1" stroke="none" font-family="Nimbus Sans" font-size="10" font-style="normal" font-weight="400" opacity="0" transform="matrix(3.125,0,0,3.125,-978.125,676.993)"><rect width="16" height="16" x="313" y="-216.638"/></g><g fill="#20a932" fill-opacity="1" stroke="none" font-family="Nimbus Sans" font-size="10" font-style="normal" font-weight="400"><path fill-rule="evenodd" d="M326.222,-210.418 C330.088,-210.418 333.222,-213.552 333.222,-217.418 C333.222,-221.284 330.088,-224.418 326.222,-224.418 C322.356,-224.418 319.222,-221.284 319.222,-217.418 C319.222,-213.552 322.356,-210.418 326.222,-210.418" transform="matrix(3.125,0,0,3.125,-994.444,704.432)" vector-effect="none"/></g><g fill="#28d33f" fill-opacity="1" stroke="none" font-family="Nimbus Sans" font-size="10" font-style="normal" font-weight="400"><path fill-rule="evenodd" d="M326.222,-210.918 C329.812,-210.918 332.722,-213.828 332.722,-217.418 C332.722,-221.008 329.812,-223.918 326.222,-223.918 C322.632,-223.918 319.722,-221.008 319.722,-217.418 C319.722,-213.828 322.632,-210.918 326.222,-210.918" transform="matrix(3.125,0,0,3.125,-994.444,704.432)" vector-effect="none"/></g><g fill="#000" fill-opacity="1" stroke="none" font-family="Nimbus Sans" font-size="10" font-style="normal" font-weight="400" opacity=".5"><path fill-rule="nonzero" d="M326.214,-222.086 L326.214,-218.5 C326.214,-218.084 326.798,-217.5 327.214,-217.5 L330.8,-217.5 L326.214,-222.086" transform="matrix(3.125,0,0,3.125,-994.42,704.673)" vector-effect="none"/></g><g fill="#000" fill-opacity="1" stroke="none" font-family="Nimbus Sans" font-size="10" font-style="normal" font-weight="400" opacity=".5"><path fill-rule="nonzero" d="M326.215,-212.905 L326.215,-216.491 C326.215,-216.906 325.63,-217.491 325.215,-217.491 L321.629,-217.491 L326.215,-212.905" transform="matrix(3.125,0,0,3.125,-994.42,704.673)" vector-effect="none"/></g></g></svg>