<svg xmlns="http://www.w3.org/2000/svg" xmlns:svg="http://www.w3.org/2000/svg" id="svg71" width="48" height="48" version="1.1"><metadata id="metadata77"/><g id="remove-normal" transform="matrix(1.375,0,0,1.375,0,-24.75)"><rect style="opacity:.00100002" id="rect2" width="16" height="16" x="0" y="34"/><path style="fill:#1a1a1a;fill-opacity:1;stroke-width:.83116883" id="path4" d="M 13.818182,41.999999 A 5.8181817,5.8181817 0 0 1 8,47.81818 5.8181817,5.8181817 0 0 1 2.1818182,41.999999 5.8181817,5.8181817 0 0 1 8,36.181817 a 5.8181817,5.8181817 0 0 1 5.818182,5.818182 z"/><rect style="fill:#fff;stroke-width:.72727275" id="rect6" width="1.455" height="5.818" x="41.273" y="-10.909" transform="rotate(90)"/></g><g id="add-normal" transform="matrix(1.375,0,0,1.375,0,-24.75)"><rect style="opacity:.00100002" id="rect9" width="16" height="16" x="0" y="18"/><path style="fill:#1a1a1a;fill-opacity:1;stroke-width:.83116883" id="path11" d="M 13.818182,25.999999 A 5.8181817,5.8181817 0 0 1 8,31.81818 5.8181817,5.8181817 0 0 1 2.1818182,25.999999 5.8181817,5.8181817 0 0 1 8,20.181817 a 5.8181817,5.8181817 0 0 1 5.818182,5.818182 z"/><path style="fill:#fff;stroke-width:1" id="rect13" d="M 10 7 L 10 10 L 7 10 L 7 12 L 10 12 L 10 15 L 12 15 L 12 12 L 15 12 L 15 10 L 12 10 L 12 7 L 10 7 z" transform="matrix(0.72727273,0,0,0.72727273,0,18)"/></g><g id="open-normal" transform="matrix(1.375,0,0,1.375,0,-24.75)"><rect style="opacity:.00100002" id="rect18" width="16" height="16" x="0" y="50"/><path style="fill:#1a1a1a;fill-opacity:1;stroke-width:.83116883" id="path20" d="M 13.818182,57.999999 A 5.8181817,5.8181817 0 0 1 8,63.81818 5.8181817,5.8181817 0 0 1 2.1818182,57.999999 5.8181817,5.8181817 0 0 1 8,52.181817 a 5.8181817,5.8181817 0 0 1 5.818182,5.818182 z"/><path style="fill:#fff;stroke-width:.66452283" id="path22" d="m 7.9999999,55.818182 1.4545454,1.818182 1.4545457,1.818181 H 7.9999997 5.0909089 l 1.4545454,-1.818181 z"/></g><g id="remove-hover" transform="matrix(1.375,0,0,1.375,23,-24.75)"><rect id="rect853" width="16" height="16" x="0" y="34" style="opacity:.00100002"/><path id="path855" d="M 13.818182,41.999999 A 5.8181817,5.8181817 0 0 1 8,47.81818 5.8181817,5.8181817 0 0 1 2.1818182,41.999999 5.8181817,5.8181817 0 0 1 8,36.181817 a 5.8181817,5.8181817 0 0 1 5.818182,5.818182 z" style="fill:#333;fill-opacity:1;stroke-width:.83116883"/><rect id="rect857" width="1.455" height="5.818" x="41.273" y="-10.909" transform="rotate(90)" style="fill:#fff;stroke-width:.72727275"/></g><g id="add-hover" transform="matrix(1.375,0,0,1.375,23,-24.75)"><rect id="rect861" width="16" height="16" x="0" y="18" style="opacity:.00100002"/><path id="path863" d="M 13.818182,25.999999 A 5.8181817,5.8181817 0 0 1 8,31.81818 5.8181817,5.8181817 0 0 1 2.1818182,25.999999 5.8181817,5.8181817 0 0 1 8,20.181817 a 5.8181817,5.8181817 0 0 1 5.818182,5.818182 z" style="fill:#333;fill-opacity:1;stroke-width:.83116883"/><path id="path865" d="m 10,7 v 3 H 7 v 2 h 3 v 3 h 2 v -3 h 3 V 10 H 12 V 7 Z" transform="matrix(0.72727273,0,0,0.72727273,0,18)" style="fill:#fff;stroke-width:1"/></g><g id="open-hover" transform="matrix(1.375,0,0,1.375,23,-24.75)"><rect id="rect869" width="16" height="16" x="0" y="50" style="opacity:.00100002"/><path id="path871" d="M 13.818182,57.999999 A 5.8181817,5.8181817 0 0 1 8,63.81818 5.8181817,5.8181817 0 0 1 2.1818182,57.999999 5.8181817,5.8181817 0 0 1 8,52.181817 a 5.8181817,5.8181817 0 0 1 5.818182,5.818182 z" style="fill:#333;fill-opacity:1;stroke-width:.83116883"/><path id="path873" d="m 7.9999999,55.818182 1.4545454,1.818182 1.4545457,1.818181 H 7.9999997 5.0909089 l 1.4545454,-1.818181 z" style="fill:#fff;stroke-width:.66452283"/></g><g id="remove-pressed" transform="matrix(1.375,0,0,1.375,48,-24.75)"><rect style="opacity:.00100002" id="rect877" width="16" height="16" x="0" y="34"/><path style="fill:#4285f4;fill-opacity:1;stroke-width:.83116883" id="path879" d="M 13.818182,41.999999 A 5.8181817,5.8181817 0 0 1 8,47.81818 5.8181817,5.8181817 0 0 1 2.1818182,41.999999 5.8181817,5.8181817 0 0 1 8,36.181817 a 5.8181817,5.8181817 0 0 1 5.818182,5.818182 z"/><rect style="fill:#fff;stroke-width:.72727275" id="rect881" width="1.455" height="5.818" x="41.273" y="-10.909" transform="rotate(90)"/></g><g id="add-pressed" transform="matrix(1.375,0,0,1.375,48,-24.75)"><rect style="opacity:.00100002" id="rect885" width="16" height="16" x="0" y="18"/><path style="fill:#4285f4;fill-opacity:1;stroke-width:.83116883" id="path887" d="M 13.818182,25.999999 A 5.8181817,5.8181817 0 0 1 8,31.81818 5.8181817,5.8181817 0 0 1 2.1818182,25.999999 5.8181817,5.8181817 0 0 1 8,20.181817 a 5.8181817,5.8181817 0 0 1 5.818182,5.818182 z"/><path style="fill:#fff;stroke-width:1" id="path889" d="m 10,7 v 3 H 7 v 2 h 3 v 3 h 2 v -3 h 3 V 10 H 12 V 7 Z" transform="matrix(0.72727273,0,0,0.72727273,0,18)"/></g><g id="open-pressed" transform="matrix(1.375,0,0,1.375,48,-24.75)"><rect style="opacity:.00100002" id="rect893" width="16" height="16" x="0" y="50"/><path style="fill:#4285f4;fill-opacity:1;stroke-width:.83116883" id="path895" d="M 13.818182,57.999999 A 5.8181817,5.8181817 0 0 1 8,63.81818 5.8181817,5.8181817 0 0 1 2.1818182,57.999999 5.8181817,5.8181817 0 0 1 8,52.181817 a 5.8181817,5.8181817 0 0 1 5.818182,5.818182 z"/><path style="fill:#fff;stroke-width:.66452283" id="path897" d="m 7.9999999,55.818182 1.4545454,1.818182 1.4545457,1.818181 H 7.9999997 5.0909089 l 1.4545454,-1.818181 z"/></g></svg>