<svg xmlns="http://www.w3.org/2000/svg" xmlns:xlink="http://www.w3.org/1999/xlink" width="80" height="80" version="1.1" viewBox="0 0 80 80"><defs><style id="current-color-scheme" type="text/css">.ColorScheme-Background{color:#eff0f1;stop-color:#eff0f1}</style><linearGradient id="a"><stop offset="0"/><stop offset="1" stop-opacity="0"/></linearGradient><linearGradient id="linearGradient1037" x1="-916.36" x2="-904.36" y1="-35" y2="-35" gradientTransform="matrix(2 0 0 1 910.36 0)" gradientUnits="userSpaceOnUse" xlink:href="#a"/><linearGradient id="linearGradient1043" x1="948.36" x2="960.36" y1="-35" y2="-35" gradientTransform="matrix(2 0 0 1 -954.36 0)" gradientUnits="userSpaceOnUse" xlink:href="#a"/><linearGradient id="linearGradient1045" x1="-19" x2="-7" y1="932.36" y2="932.36" gradientTransform="matrix(2,0,0,1,13,0)" gradientUnits="userSpaceOnUse" xlink:href="#a"/><linearGradient id="linearGradient1047" x1="51" x2="63" y1="932.36" y2="932.36" gradientTransform="matrix(2,0,0,1,-57,0)" gradientUnits="userSpaceOnUse" xlink:href="#a"/><radialGradient id="radialGradient1112" cx="19" cy="12" r="6" gradientTransform="matrix(1.2619e-6 -4 4 1.2619e-6 104 94)" gradientUnits="userSpaceOnUse" xlink:href="#a"/><radialGradient id="radialGradient1011" cx="19" cy="12" r="6" gradientTransform="matrix(1.2619e-6 -4 4 1.2619e-6 -23 94)" gradientUnits="userSpaceOnUse" xlink:href="#a"/><linearGradient id="linearGradient1013" x1="-19" x2="-7" y1="932.36" y2="932.36" gradientTransform="matrix(1.5 0 0 1 -198.5 -904.36)" gradientUnits="userSpaceOnUse" xlink:href="#a"/><radialGradient id="radialGradient1129" cx="19" cy="12" r="6" gradientTransform="matrix(4.3179e-7 -3 3 4.3179e-7 -11 75)" gradientUnits="userSpaceOnUse" xlink:href="#a"/><linearGradient id="linearGradient1133" x1="-916.36" x2="-907.36" y1="-35" y2="-35" gradientTransform="matrix(2 0 0 1 910.36 0)" gradientUnits="userSpaceOnUse" xlink:href="#a"/><linearGradient id="linearGradient1135" x1="-19" x2="-10" y1="932.36" y2="932.36" gradientTransform="matrix(2,0,0,1,13,0)" gradientUnits="userSpaceOnUse" xlink:href="#a"/><linearGradient id="linearGradient1137" x1="51" x2="60" y1="932.36" y2="932.36" gradientTransform="matrix(2,0,0,1,-57,0)" gradientUnits="userSpaceOnUse" xlink:href="#a"/><linearGradient id="linearGradient1141" x1="948.36" x2="957.36" y1="-35" y2="-35" gradientTransform="matrix(2 0 0 1 -954.36 0)" gradientUnits="userSpaceOnUse" xlink:href="#a"/></defs><use id="shadow-bottom" width="100%" height="100%" transform="rotate(-90 165 39)" xlink:href="#shadow-left"/><use id="shadow-right" width="100%" height="100%" transform="rotate(180 165 39)" xlink:href="#shadow-left"/><use id="shadow-top" width="100%" height="100%" transform="rotate(90 165 39)" xlink:href="#shadow-left"/><g id="shadow-left" transform="matrix(1.3333 0 0 .625 -147.67 21.5)"><rect width="9" height="32" x="-218" y="12" fill="url(#linearGradient1013)" stroke-width="1.225" opacity=".05" transform="scale(-1,1)"/><rect width="18" height="32" x="-227" y="12" stroke-width="1.732" opacity="0" transform="scale(-1,1)"/></g><g id="shadow-topleft"><g fill-rule="evenodd"><path fill="url(#radialGradient1112)" stroke-width="2" d="m128-6v24h12c0-6.648 5.352-12 12-12v-12z" opacity=".05" transform="matrix(1.3333 0 0 1.3333 129.67 -1192.8) matrix(.75 0 0 .75 -95 902.86)"/></g></g><g id="top" transform="matrix(.625 0 0 1 16.125 -893.36)"><rect width="12" height="32" x="-922.36" y="-51" fill="#2e2e2e" stroke-width="1.414" class="ColorScheme-Background" color="#eff0f1" opacity=".95" transform="matrix(0,-1,-1,0,0,0)"/><rect width="12" height="32" x="-910.36" y="-51" fill="url(#linearGradient1037)" stroke-width="1.414" opacity=".15" transform="matrix(0,-1,-1,0,0,0)"/><rect width="12" height="32" x="-910.36" y="-51" fill="url(#linearGradient1133)" stroke-width="1.414" opacity=".25" transform="matrix(0,-1,-1,0,0,0)"/></g><g id="topleft"><g fill-rule="evenodd" stroke-width="2"><path fill="url(#radialGradient1011)" d="m1-6v24h12c0-6.648 5.352-12 12-12v-12z" opacity=".15" transform="matrix(1.3333 0 0 1.3333 2.6667 -1192.8) matrix(.75 0 0 .75 .25 902.86)"/><path fill="url(#radialGradient1129)" d="m1-6v24h12c0-6.648 5.352-12 12-12v-12z" opacity=".25" transform="matrix(1.3333 0 0 1.3333 2.6667 -1192.8) matrix(.75 0 0 .75 .25 902.86)"/></g><path fill="#2e2e2e" stroke-width="1.5" d="m19 907.36c-4.986 0-9 4.014-9 9h9v-7.5z" color="#eff0f1" opacity=".95" transform="matrix(1.3333 0 0 1.3333 2.6667 -1192.8)"/></g><g id="bottom" transform="matrix(.625 0 0 1 16.125 -893.36)"><rect width="12" height="32" x="942.36" y="-51" fill="#2e2e2e" stroke-width="1.414" class="ColorScheme-Background" color="#eff0f1" opacity=".95" transform="rotate(90)"/><rect width="12" height="32" x="954.36" y="-51" fill="url(#linearGradient1043)" stroke-width="1.414" opacity=".15" transform="rotate(90)"/><rect width="12" height="32" x="954.36" y="-51" fill="url(#linearGradient1141)" stroke-width="1.414" opacity=".25" transform="rotate(90)"/></g><g id="left" transform="matrix(1 0 0 .625 3 -543.72)"><rect width="12" height="32" x="-25" y="916.36" fill="#2e2e2e" stroke-width="1.414" class="ColorScheme-Background" color="#eff0f1" opacity=".95" transform="scale(-1,1)"/><rect width="12" height="32" x="-13" y="916.36" fill="url(#linearGradient1045)" stroke-width="1.414" opacity=".15" transform="scale(-1,1)"/><rect width="12" height="32" x="-13" y="916.36" fill="url(#linearGradient1135)" stroke-width="1.414" opacity=".25" transform="scale(-1,1)"/></g><g id="right" stroke-width="1.414" transform="matrix(1 0 0 .625 3 -543.72)"><rect width="12" height="32" x="45" y="916.36" fill="#2e2e2e" class="ColorScheme-Background" color="#eff0f1" opacity=".95"/><rect width="12" height="32" x="57" y="916.36" fill="url(#linearGradient1047)" opacity=".15"/><rect width="12" height="32" x="57" y="916.36" fill="url(#linearGradient1137)" opacity=".25"/></g><g id="center" transform="matrix(.625 0 0 .625 16.125 -543.72)"><rect width="32" height="32" x="19" y="916.36" fill="none"/><rect width="32" height="32" x="19" y="916.36" fill="#2e2e2e" class="ColorScheme-Background" color="#eff0f1" opacity=".95"/></g><rect id="hint-top-margin" width="4" height="24" x="36" y="5" fill="#f0f" stroke-width="1.414"/><rect id="hint-bottom-margin" width="4" height="24" x="36" y="49" fill="#f0f" stroke-width="1.414"/><rect id="hint-right-margin" width="4" height="24" x="37" y="-72" fill="#f0f" stroke-width="1.414" transform="rotate(90)"/><rect id="hint-left-margin" width="4" height="24" x="37" y="-28" fill="#f0f" stroke-width="1.414" transform="rotate(90)"/><g id="shadow-center" fill="none" opacity="0" transform="matrix(.625 0 0 .625 143.12 -543.73)"><rect width="32" height="32" x="19" y="916.36"/><rect width="32" height="32" x="19" y="916.36"/></g><rect id="shadow-hint-top-margin" width="4" height="24" x="163" y="5" fill="#f0f" stroke-width="1.414"/><rect id="shadow-hint-bottom-margin" width="4" height="24" x="163" y="49" fill="#f0f" stroke-width="1.414"/><rect id="shadow-hint-right-margin" width="4" height="24" x="37" y="-199" fill="#f0f" stroke-width="1.414" transform="rotate(90)"/><rect id="shadow-hint-left-margin" width="4" height="24" x="37" y="-155" fill="#f0f" stroke-width="1.414" transform="rotate(90)"/><use id="topright" width="100%" height="100%" transform="matrix(-1 0 0 1 76 -2.0646e-7)" xlink:href="#topleft"/><use id="bottomleft" width="100%" height="100%" transform="rotate(-90 38 39)" xlink:href="#topleft"/><use id="bottomright" width="100%" height="100%" transform="rotate(180 38 39)" xlink:href="#topleft"/><g id="shadow-topright"><g fill-rule="evenodd"><path fill="url(#radialGradient1112)" stroke-width="2" d="m128-6v24h12c0-6.648 5.352-12 12-12v-12z" opacity=".05" transform="matrix(-1.3333 0 0 1.3333 200.33 -1192.8) matrix(.75 0 0 .75 -95 902.86)"/></g></g><g id="shadow-bottomright"><g fill-rule="evenodd"><path fill="url(#radialGradient1112)" stroke-width="2" d="m128-6v24h12c0-6.648 5.352-12 12-12v-12z" opacity=".05" transform="matrix(-1.3333 0 0 -1.3333 200.33 1270.8) matrix(.75 0 0 .75 -95 902.86)"/></g></g><g id="shadow-bottomleft"><g fill-rule="evenodd"><path fill="url(#radialGradient1112)" stroke-width="2" d="m128-6v24h12c0-6.648 5.352-12 12-12v-12z" opacity=".05" transform="matrix(1.3333 0 0 -1.3333 129.67 1270.8) matrix(.75 0 0 .75 -95 902.86)"/></g></g><rect id="hint-tile-center" width="5" height="5" x="5" y="5" fill="#f60"/></svg>