<svg xmlns="http://www.w3.org/2000/svg" xmlns:osb="http://www.openswatchbook.org/uri/2009/osb" xmlns:svg="http://www.w3.org/2000/svg" xmlns:xlink="http://www.w3.org/1999/xlink" id="svg2" width="34" height="16" version="1.1" viewBox="0 0 34 16"><defs id="defs4"><style id="current-color-scheme" type="text/css"/><linearGradient id="ay" x1="18" x2="32" y1="38.362" y2="38.362" gradientUnits="userSpaceOnUse" xlink:href="#hightlight"/><linearGradient id="hightlight" osb:paint="solid"><stop id="stop13" offset="0" stop-color="#5887fc"/></linearGradient><linearGradient id="be" x1="24" x2="24" y1="45.362" y2="32.253" gradientTransform="matrix(1,0,0,0.99168,0,0.3776)" gradientUnits="userSpaceOnUse" xlink:href="#dark_checked_bg"/><linearGradient id="dark_checked_bg" osb:paint="gradient"><stop id="stop16" offset="0" stop-color="#3458c0"/><stop id="stop18" offset="1" stop-color="#3d67e3"/></linearGradient><filter style="color-interpolation-filters:sRGB" id="bn"><feFlood id="feFlood60" flood-color="#000" flood-opacity=".353" result="flood"/><feComposite id="feComposite62" in="flood" in2="SourceGraphic" operator="in" result="composite1"/><feGaussianBlur id="feGaussianBlur64" in="composite1" result="blur"/><feOffset id="feOffset66" dx="0" dy=".5" result="offset"/><feComposite id="feComposite68" in="SourceGraphic" in2="offset" result="composite2"/></filter><linearGradient id="av" x1="51.611" x2="80.996" y1="141.02" y2="141.02" gradientUnits="userSpaceOnUse" xlink:href="#hightlight"/><linearGradient id="bg" x1="51.611" x2="80.996" y1="141.02" y2="141.02" gradientTransform="matrix(1,0,0,0.92857,0,11.106)" gradientUnits="userSpaceOnUse" xlink:href="#dark_checked_bg"/><filter style="color-interpolation-filters:sRGB" id="bp"><feFlood id="feFlood38" flood-color="#000" flood-opacity=".353" result="flood"/><feComposite id="feComposite40" in="flood" in2="SourceGraphic" operator="in" result="composite1"/><feGaussianBlur id="feGaussianBlur42" in="composite1" result="blur"/><feOffset id="feOffset44" dx="0" dy=".5" result="offset"/><feComposite id="feComposite46" in="SourceGraphic" in2="offset" result="composite2"/></filter></defs><metadata id="metadata7"/><g id="layer1" transform="translate(0,-904.36218)"><g id="checkbox" transform="translate(-19,904.00016)"><g id="g236" transform="translate(19)"><g id="g234" transform="translate(0,-30)"><rect style="color:#000;fill:none" id="rect224" width="16" height="16" x="17" y="30.362"/><g id="g232"><rect id="rect226" width="16" height="16" x="17" y="30.362" rx="2.286" ry="2.286" style="color:#000;opacity:.12000002;paint-order:fill markers stroke"/><rect id="rect228" width="14" height="14" x="18" y="31.362" rx="2" ry="2" style="color:#000;fill:url(#ay);paint-order:fill markers stroke"/><rect id="rect230" width="14" height="13" x="18" y="32.362" rx="2" ry="1.857" style="color:#000;fill:url(#be);paint-order:fill markers stroke"/></g></g></g><g id="g248" transform="translate(36,-1036)"><g id="g246" transform="rotate(45,7.5,1026.4)"><g id="g244" transform="translate(12.374,11.531)"><g style="fill:#3b3c3e" id="g240" transform="translate(-3,-5)"><path style="fill:#fff;filter:url(#bn)" id="path238" d="m 154.16,15.881 c -0.25562,0 -0.51116,0.0971 -0.70703,0.29297 l -3.5352,3.5352 -1.4785,-1.4766 c -0.35638,-0.35638 -0.95788,-0.32923 -1.3496,0.0625 -0.39174,0.39173 -0.42083,0.99519 -0.0645,1.3516 l 2.1856,2.1836 0.0644,0.06445 c 0.35638,0.35638 0.95788,0.32728 1.3496,-0.06445 l 4.2422,-4.2422 c 0.39174,-0.39174 0.39174,-1.0223 0,-1.4141 C 154.6711,15.9781 154.41556,15.881 154.15994,15.881 Z" transform="rotate(-45,1304,694.22)"/></g><rect style="fill-opacity:0" id="rect242" width="3" height="1" x="5" y="-8" transform="translate(0,1036.4)"/></g></g></g></g><g id="radiobutton" transform="translate(-116,903.99996)"><g id="g302" transform="translate(19.004,-4.6993e-6)"><g id="g300" transform="matrix(0.93617,0,0,0.93566,-96.783,-244.76)"><rect style="color:#000;fill:none" id="rect288" width="17.091" height="17.1" x="206.99" y="261.98"/><g id="g298" transform="matrix(0.50892,0,0,0.5174,181.79,197.56)"><g id="g296"><rect style="color:#000;opacity:.12000002" id="rect290" width="33.583" height="33.05" x="49.512" y="124.5" rx="16.791" ry="16.525"/><rect style="color:#000;fill:url(#av);stroke-width:0" id="rect292" width="29.385" height="28.919" x="51.611" y="126.56" rx="14.692" ry="14.46"/><rect style="color:#000;fill:url(#bg);stroke-width:0" id="rect294" width="29.385" height="26.853" x="51.611" y="128.63" rx="14.692" ry="13.427"/></g></g></g></g><rect style="color:#000;fill:#fff;filter:url(#bp)" id="rect304" width="4" height="4" x="122" y="6.362" rx="1.999" ry="2"/></g></g></svg>