<svg xmlns="http://www.w3.org/2000/svg" xmlns:svg="http://www.w3.org/2000/svg" xmlns:xlink="http://www.w3.org/1999/xlink" id="svg132" width="128" height="128" version="1"><metadata id="metadata136"/><defs id="defs19"><linearGradient id="linearGradient4303"><stop style="stop-color:#00626d" id="stop2" offset="0"/><stop style="stop-color:#4285f4" id="stop4" offset="1"/></linearGradient><linearGradient id="linearGradient4291"><stop style="stop-color:#007584" id="stop7" offset="0"/><stop style="stop-color:#4285f4" id="stop9" offset="1"/></linearGradient><linearGradient id="linearGradient4297" x1="266" x2="266" y1="108" y2="112" gradientUnits="userSpaceOnUse" xlink:href="#linearGradient4291"/><linearGradient id="linearGradient4301" x1="115" x2="115" y1="103" y2="107" gradientUnits="userSpaceOnUse" xlink:href="#linearGradient4303"/><linearGradient id="linearGradient4315" x1="266" x2="266" y1="121" y2="118" gradientUnits="userSpaceOnUse" xlink:href="#linearGradient4291"/><linearGradient id="linearGradient4317" x1="101" x2="101" y1="118" y2="114" gradientUnits="userSpaceOnUse" xlink:href="#linearGradient4303"/><linearGradient id="linearGradient4325" x1="268" x2="268" y1="112" y2="108" gradientUnits="userSpaceOnUse" xlink:href="#linearGradient4303"/><linearGradient id="linearGradient4333" x1="91" x2="95" y1="80.5" y2="80.5" gradientUnits="userSpaceOnUse" xlink:href="#linearGradient4303"/><linearGradient id="linearGradient4341" x1="106" x2="102" y1="67" y2="67" gradientUnits="userSpaceOnUse" xlink:href="#linearGradient4303"/></defs><rect id="hint-stretch-borders" width="5.221" height="5.403" x="-10" y="0" style="opacity:.65;fill:#023812"/><g id="north-center" transform="matrix(1,0,0,1.2,-152,-29.4)" style="stroke-width:.91287088"><path style="fill:#4285f4;stroke-width:.91287088;fill-opacity:1" id="path22" d="m 264,112 v 5 h 5 v -5 z"/></g><g id="north-top" transform="translate(-152,-8)" style="fill:url(#linearGradient4297)"><path style="fill:#4285f4;fill-opacity:1" id="path25" d="m 112,103 v 1 1 2 h 5 v -2 -1 -1 z" transform="translate(152,5)"/></g><g id="north-bottom" transform="matrix(1,0,0,1.5,-152,-63.5)" style="stroke-width:.81649661"><path style="fill:#4285f4;stroke-width:.81649661;fill-opacity:1" id="path28" d="m 112,114 v 3 1 h 5 v -1 -3 z" transform="translate(152,3)"/></g><g id="south-center" transform="matrix(1,0,0,1.2,-165,-27.4)" style="stroke-width:.91287088"><path style="fill:#4285f4;stroke-width:.91287088;fill-opacity:1" id="path31" d="m 264,112 v 5 h 5 v -5 z"/></g><g id="south-top" transform="matrix(1,0,0,1.5,-165,-62)" style="stroke-width:.81649661"><path style="fill:#4285f4;stroke-width:.81649661;fill-opacity:1" id="path34" d="m 99,103 v 1 1 2 h 5 v -2 -1 -1 z" transform="translate(165,5)"/></g><g id="south-bottom" transform="translate(-165,-3)" style="fill:url(#linearGradient4315)"><path style="fill:#4285f4;fill-opacity:1" id="path37" d="m 99,114 0,3 0,1 5,0 0,-1 0,-3 -5,0 z" transform="translate(165,3)"/></g><g id="east-center" transform="matrix(0,-1,1.4,0,-62.8,334)" style="stroke-width:.84515423"><path style="fill:#4285f4;stroke-width:.84515423;fill-opacity:1" id="path40" d="m 264,112 v 5 h 5 v -5 z"/></g><g id="east-left" transform="matrix(0,-1,1.5,0,-75,334)" style="stroke-width:.81649661"><path style="fill:#4285f4;stroke-width:.81649661;fill-opacity:1" id="path43" d="m 91,65 v 5 h 1 3 v -5 h -3 z" transform="rotate(90,158.5,175.5)"/></g><g id="east-right" transform="matrix(0,-1,1,0,-15,334)"><path style="fill:#4285f4;fill-opacity:1" id="path46" d="m 102,65 0,5 3,0 1,0 0,-5 -1,0 -3,0 z" transform="matrix(0,1,-1,0,334,15)"/></g><g id="west-center" transform="matrix(0,-1,1.2,0,-38.4,347)" style="stroke-width:.91287094"><path style="fill:#4285f4;stroke-width:.91287094;fill-opacity:1" id="path49" d="m 264,112 v 5 h 5 v -5 z"/></g><g id="west-left" transform="matrix(0,-1,1,0,-17,347)" style="fill:url(#linearGradient4325)"><path style="fill:#4285f4;fill-opacity:1" id="path52" d="m 91,78 0,5 1,0 3,0 0,-5 -3,0 -1,0 z" transform="matrix(0,1,-1,0,347,17)"/></g><g id="west-right" transform="matrix(0,-1,1.5,0,-72.5,347)" style="stroke-width:.81649661"><path style="fill:#4285f4;stroke-width:.81649661;fill-opacity:1" id="path55" d="m 102,78 v 5 h 3 1 v -5 h -1 z" transform="rotate(90,166,181)"/></g><g id="vertical-centerindicator" transform="translate(1,15)"><rect style="opacity:.35;fill:#fff" id="rect58" width="42" height="1" x="11" y="32"/><rect style="fill:none" id="rect60" width="42" height="1" x="11" y="33"/><rect style="fill:none" id="rect62" width="42" height="1" x="11" y="31"/></g><g id="horizontal-centerindicator" transform="translate(-4,17)"><rect style="opacity:.35;fill:#fff" id="rect65" width="42" height="1" x="-31" y="8" transform="matrix(0,-1,1,0,0,0)"/><rect style="fill:none" id="rect67" width="42" height="1" x="-31" y="9" transform="matrix(0,-1,1,0,0,0)"/><rect style="fill:none" id="rect69" width="42" height="1" x="-31" y="7" transform="matrix(0,-1,1,0,0,0)"/></g><g id="west-minslider" transform="translate(5.0312,68.003199)" style="enable-background:new"><g id="g74" transform="translate(-405,100)"><path style="fill:#fff" id="path72" d="m 419,-89.222 -1.375,1.4062 -3.6562,-3.6562 0.0312,7.4688 -2,0 -0.0312,-7.4688 -3.625,3.6562 -1.375,-1.4062 6.0312,-6 6,6 z m -4,-8.7812 c 0,1.1046 -0.89543,2 -2,2 -1.10457,0 -2,-0.89543 -2,-2 0,-1.10457 0.89543,-2 2,-2 1.10457,0 2,0.89543 2,2 z"/></g></g><g id="north-offsetslider" transform="translate(37,108.0004)" style="enable-background:new"><g id="g79" transform="translate(-385,98.003)"><path style="fill:#fff" id="path77" d="m 387,-90.215 1.3858,1.3851 3.6348,-3.6349 -0.0211,8.4614 2,0 0.0211,-8.4614 3.6344,3.6349 1.3851,-1.3851 -6.0406,-6.0009 z"/></g></g><g id="north-maxslider" transform="translate(6.9988,89.968849)" style="enable-background:new"><g id="g84" transform="translate(-325,99.003)"><path style="fill:#fff" id="path82" d="m 330.22,-97.003 -1.4062,1.375 3.6562,3.6562 -7.4688,-0.03125 0,2 7.4688,0.0312 -3.6562,3.625 1.4062,1.375 6,-6.0312 -6,-6 z m 8.7812,4 c -1.1046,0 -2,0.89543 -2,2 0,1.10457 0.89543,2 2,2 1.10457,0 2,-0.89543 2,-2 0,-1.10457 -0.89543,-2 -2,-2 z"/></g></g><g id="east-offsetslider" transform="translate(5.0016,107.9598)" style="enable-background:new"><g id="g89" transform="translate(-305,99.003)"><path style="fill:#fff" id="path87" d="m 313.21,-97.003 -1.3851,1.3859 3.6349,3.6348 -8.4614,-0.0211 0,2 8.4614,0.0211 -3.6349,3.6344 1.3851,1.3851 6.0009,-6.0406 z"/></g></g><g id="east-minslider" transform="translate(22.0312,68.003199)" style="enable-background:new"><g id="g94" transform="translate(-405,100)"><path style="fill:#fff" id="path92" d="m 419,-89.222 -1.375,1.4062 -3.6562,-3.6562 0.0312,7.4688 -2,0 -0.0312,-7.4688 -3.625,3.6562 -1.375,-1.4062 6.0312,-6 6,6 z m -4,-8.7812 c 0,1.1046 -0.89543,2 -2,2 -1.10457,0 -2,-0.89543 -2,-2 0,-1.10457 0.89543,-2 2,-2 1.10457,0 2,0.89543 2,2 z"/></g></g><g id="west-maxslider" transform="matrix(1,0,0,-1,38.0312,83.996799)" style="enable-background:new"><g id="g99" transform="translate(-405,100)"><path style="fill:#fff" id="path97" d="m 419,-89.222 -1.375,1.4062 -3.6562,-3.6562 0.0312,7.4688 -2,0 -0.0312,-7.4688 -3.625,3.6562 -1.375,-1.4062 6.0312,-6 6,6 z m -4,-8.7812 c 0,1.1046 -0.89543,2 -2,2 -1.10457,0 -2,-0.89543 -2,-2 0,-1.10457 0.89543,-2 2,-2 1.10457,0 2,0.89543 2,2 z"/></g></g><g id="east-maxslider" transform="matrix(1,0,0,-1,55.0312,83.996799)" style="enable-background:new"><g id="g104" transform="translate(-405,100)"><path style="fill:#fff" id="path102" d="m 419,-89.222 -1.375,1.4062 -3.6562,-3.6562 0.0312,7.4688 -2,0 -0.0312,-7.4688 -3.625,3.6562 -1.375,-1.4062 6.0312,-6 6,6 z m -4,-8.7812 c 0,1.1046 -0.89543,2 -2,2 -1.10457,0 -2,-0.89543 -2,-2 0,-1.10457 0.89543,-2 2,-2 1.10457,0 2,0.89543 2,2 z"/></g></g><g id="south-maxslider" transform="translate(25.9988,89.968849)" style="enable-background:new"><g id="g109" transform="translate(-325,99.003)"><path style="fill:#fff" id="path107" d="m 330.22,-97.003 -1.4062,1.375 3.6562,3.6562 -7.4688,-0.03125 0,2 7.4688,0.0312 -3.6562,3.625 1.4062,1.375 6,-6.0312 -6,-6 z m 8.7812,4 c -1.1046,0 -2,0.89543 -2,2 0,1.10457 0.89543,2 2,2 1.10457,0 2,-0.89543 2,-2 0,-1.10457 -0.89543,-2 -2,-2 z"/></g></g><g id="north-minslider" transform="matrix(-1,0,0,1,61.0012,89.968849)" style="enable-background:new"><g id="g114" transform="translate(-325,99.003)"><path style="fill:#fff" id="path112" d="m 330.22,-97.003 -1.4062,1.375 3.6562,3.6562 -7.4688,-0.03125 0,2 7.4688,0.0312 -3.6562,3.625 1.4062,1.375 6,-6.0312 -6,-6 z m 8.7812,4 c -1.1046,0 -2,0.89543 -2,2 0,1.10457 0.89543,2 2,2 1.10457,0 2,-0.89543 2,-2 0,-1.10457 -0.89543,-2 -2,-2 z"/></g></g><g id="south-minslider" transform="matrix(-1,0,0,1,80.0012,89.968849)" style="enable-background:new"><g id="g119" transform="translate(-325,99.003)"><path style="fill:#fff" id="path117" d="m 330.22,-97.003 -1.4062,1.375 3.6562,3.6562 -7.4688,-0.03125 0,2 7.4688,0.0312 -3.6562,3.625 1.4062,1.375 6,-6.0312 -6,-6 z m 8.7812,4 c -1.1046,0 -2,0.89543 -2,2 0,1.10457 0.89543,2 2,2 1.10457,0 2,-0.89543 2,-2 0,-1.10457 -0.89543,-2 -2,-2 z"/></g></g><g id="west-offsetslider" transform="matrix(-1,0,0,1,37.2109,107.9598)" style="enable-background:new"><g id="g124" transform="translate(-305,99.003)"><path style="fill:#fff" id="path122" d="m 313.21,-97.003 -1.3851,1.3859 3.6349,3.6348 -8.4614,-0.0211 0,2 8.4614,0.0211 -3.6349,3.6344 1.3851,1.3851 6.0009,-6.0406 z"/></g></g><g id="south-offsetslider" transform="matrix(1,0,0,-1,52,123.7871)" style="enable-background:new"><g id="g129" transform="translate(-385,98.003)"><path style="fill:#fff" id="path127" d="m 387,-90.215 1.3858,1.3851 3.6348,-3.6349 -0.0211,8.4614 2,0 0.0211,-8.4614 3.6344,3.6349 1.3851,-1.3851 -6.0406,-6.0009 z"/></g></g></svg>