<svg xmlns="http://www.w3.org/2000/svg" xmlns:svg="http://www.w3.org/2000/svg" id="svg69" width="200" height="200" version="1.0"><metadata id="metadata73"/><defs id="defs3"><style id="current-color-scheme" type="text/css">.ColorScheme-ViewText{color:#31363b}.ColorScheme-ViewBackground{color:#fcfcfc}.ColorScheme-ViewFocus{color:#3daee9}</style></defs><rect style="fill:#4e9a06;stroke-width:.97329223" id="hint-tile-center" width="2" height="2" x="10" y="48" rx="0" ry="2"/><rect style="fill:#4e9a06" id="pressed-hint-top-margin" width="2" height="6" x="45" y="59"/><rect style="fill:#4e9a06" id="pressed-hint-bottom-margin" width="2" height="6" x="45" y="80"/><rect style="fill:#4e9a06" id="pressed-hint-left-margin" width="4" height="2" x="34" y="73"/><rect style="fill:#4e9a06" id="pressed-hint-right-margin" width="4" height="2" x="53" y="73"/><rect style="fill:#4e9a06" id="normal-hint-left-margin" width="4" height="2" x="37" y="115"/><rect style="fill:#4e9a06" id="normal-hint-top-margin" width="2" height="6" x="48" y="101"/><rect style="fill:#4e9a06" id="normal-hint-bottom-margin" width="2" height="6" x="49" y="124"/><rect style="fill:#4e9a06" id="normal-hint-right-margin" width="4" height="2" x="58" y="115"/><g id="separator" transform="translate(31,53)" style="opacity:0;fill:#000"><rect id="rect16" width="40" height="1" x="63" y="-49" class="ColorScheme-ViewBackground" transform="scale(1,-1)" style="color:#fcfcfc;opacity:.2;fill:#000"/><rect id="rect18" width="40" height="1" x="63" y="-49" class="ColorScheme-ViewText" transform="scale(1,-1)" style="color:#31363b;opacity:0;fill:#000"/></g><g id="g30" transform="translate(20,57)" style="fill:currentColor"><path id="normal-center" d="M 24,53 V 64 H 35 V 53 Z" class="ColorScheme-ViewBackground" style="color:#fcfcfc;opacity:.01000001"/><path id="normal-right" d="m 35,53 v 11 h 2 c 6.68e-4,-0.01835 0,-0.03439 0,-0.05288 v -10.894 c 0,-0.0185 6.68e-4,-0.03453 0,-0.05288 h -2 z" class="ColorScheme-ViewBackground" style="color:#fcfcfc;opacity:.01000001"/><path id="normal-top" d="m 24,51 v 2 h 11 v -2 c -0.0041,-6.7e-4 0.0042,0 10e-7,0 h -10.988 c -0.004,0 -0.008,-6.7e-4 -0.0119,0 z" class="ColorScheme-ViewBackground" style="color:#fcfcfc;opacity:.01000001"/><path id="normal-left" d="m 22,53 c -6.7e-4,0.01835 0,0.03439 0,0.05288 v 10.894 c 0,0.0185 -6.7e-4,0.03453 0,0.05288 h 2 v -11 h -2 z" class="ColorScheme-ViewBackground" style="color:#fcfcfc;opacity:.01000001"/><path id="normal-bottom" d="m 24,64 v 2 h 11 v -1.9997 z" class="ColorScheme-ViewBackground" style="color:#fcfcfc;opacity:.01000001"/><path id="normal-topleft" d="m 22,51 v 2 h 1.9998 v -2 c -7.46e-4,-6.7e-4 7.63e-4,0 0,0 H 22.0022 C 22.001472,51 22.0007,50.99933 22,51 Z" class="ColorScheme-ViewBackground" style="color:#fcfcfc;opacity:.01000001"/><path id="normal-topright" d="m 35,51.001 v 1.9997 h 1.9998 V 51.001 c -7.46e-4,-6.7e-4 7.63e-4,0 0,0 h -1.9976 c -7.28e-4,0 -0.0015,-6.7e-4 -0.0022,0 z" class="ColorScheme-ViewBackground" style="color:#fcfcfc;opacity:.01000001"/><path id="normal-bottomright" d="m 35,64 v 1.9997 h 1.9998 V 64 c -7.46e-4,-6.7e-4 7.63e-4,0 0,0 H 35.0022 C 35.001472,64 35.0007,63.99933 35,64 Z" class="ColorScheme-ViewBackground" style="color:#fcfcfc;opacity:.01000001"/><path id="normal-bottomleft" d="m 22,64 v 1.9997 h 1.9998 V 64 c -7.46e-4,-6.7e-4 7.63e-4,0 0,0 H 22.0022 C 22.001472,64 22.0007,63.99933 22,64 Z" class="ColorScheme-ViewBackground" style="color:#fcfcfc;opacity:.01000001"/></g><path style="color:#3daee9;opacity:.2;fill:#fff" id="pressed-center" d="M 40,67 V 78 H 51 V 67 Z" class="ColorScheme-ViewFocus"/><path style="color:#3daee9;opacity:.2;fill:#fff" id="pressed-right" d="m 51,67 v 11 h 2 c 6.68e-4,-0.0184 0,-0.0344 0,-0.0529 v -10.894 c 0,-0.0185 6.68e-4,-0.0345 0,-0.0529 h -2 z" class="ColorScheme-ViewFocus"/><path style="color:#3daee9;opacity:.2;fill:#fff;stroke-width:.99993229" id="pressed-top" d="m 40,65 v 2 h 10.998511 v -2 c -0.0041,-6.7e-4 0.0045,0 3.01e-4,0 H 40.012299 c -0.004,0 -0.008,-6.7e-4 -0.0119,0 z" class="ColorScheme-ViewFocus"/><path style="color:#3daee9;opacity:.2;fill:#fff" id="pressed-left" d="m 38,67 c -6.7e-4,0.0184 0,0.0344 0,0.0529 v 10.894 c 0,0.0185 -6.7e-4,0.0345 0,0.0529 h 2 v -11 h -2 z" class="ColorScheme-ViewFocus"/><path style="color:#3daee9;opacity:.2;fill:#fff" id="pressed-bottom" d="m 40,78 v 2 h 11 v -2 z" class="ColorScheme-ViewFocus"/><path style="color:#3daee9;opacity:.2;fill:#fff" id="pressed-topleft" d="M 40 65 C 38.892 65 38 65.892 38 67 L 40 67 L 40 65 z"/><path id="section-center" d="m 42,145 v 11 h 11 v -11 z" class="ColorScheme-ViewBackground" style="color:#fcfcfc;opacity:0"/><path id="section-right" d="m 53,145 v 11 h 2 c 6.68e-4,-0.018 0,-0.034 0,-0.053 v -10.894 c 0,-0.019 6.68e-4,-0.034 0,-0.053 z" class="ColorScheme-ViewBackground" style="color:#fcfcfc;opacity:0"/><path id="section-top" d="m 42,143 v 2 h 11 v -2 c -0.0041,-7e-4 0.0042,0 10e-7,0 h -10.988 c -0.004,0 -0.008,-7e-4 -0.0119,0 z" class="ColorScheme-ViewBackground" style="color:#fcfcfc;opacity:0"/><path id="section-left" d="m 40,145 c -6.7e-4,0.018 0,0.034 0,0.053 v 10.894 c 0,0.019 -6.7e-4,0.034 0,0.053 h 2 v -11 z" class="ColorScheme-ViewBackground" style="color:#fcfcfc;opacity:0"/><path id="section-bottom" d="m 42,156 v 2 h 11 v -1.9997 z" class="ColorScheme-ViewBackground" style="color:#fcfcfc;opacity:0"/><path id="section-topleft" d="m 40,143 v 2 h 1.9998 v -2 c -7.46e-4,-7e-4 7.63e-4,0 0,0 h -1.9976 c -7.28e-4,0 -0.0015,-7e-4 -0.0022,0 z" class="ColorScheme-ViewBackground" style="color:#fcfcfc;opacity:0"/><path id="section-topright" d="m 53,143 v 1.9997 h 1.9998 V 143 c -7.46e-4,-7e-4 7.63e-4,0 0,0 h -1.9976 c -7.28e-4,0 -0.0015,-7e-4 -0.0022,0 z" class="ColorScheme-ViewBackground" style="color:#fcfcfc;opacity:0"/><path id="section-bottomright" d="m 53,156 v 1.9997 h 1.9998 V 156 c -7.46e-4,-7e-4 7.63e-4,0 0,0 h -1.9976 c -7.28e-4,0 -0.0015,-7e-4 -0.0022,0 z" class="ColorScheme-ViewBackground" style="color:#fcfcfc;opacity:0"/><path id="section-bottomleft" d="m 40,156 v 1.9997 h 1.9998 V 156 c -7.46e-4,-7e-4 7.63e-4,0 0,0 h -1.9976 c -7.28e-4,0 -0.0015,-7e-4 -0.0022,0 z" class="ColorScheme-ViewBackground" style="color:#fcfcfc;opacity:0"/><rect style="fill:#4e9a06" id="section-hint-top-margin" width="2" height="6" x="48" y="138"/><rect style="fill:#4e9a06" id="section-hint-left-margin" width="4" height="2" x="30" y="152"/><rect style="fill:#4e9a06" id="section-hint-right-margin" width="4" height="2" x="54.965" y="152"/><rect style="fill:#4e9a06" id="section-hint-bottom-margin" width="2" height="6" x="49" y="157"/><path style="color:#3daee9;opacity:.2;fill:#fff" id="pressed-topright" d="M 51 65 L 51 67 L 53 67 C 53 65.892 52.108 65 51 65 z"/><path style="color:#3daee9;opacity:.2;fill:#fff" id="pressed-bottomleft" d="M 38 78 C 38 79.108 38.892 80 40 80 L 40 78 L 38 78 z"/><path style="color:#3daee9;opacity:.2;fill:#fff" id="pressed-bottomright" d="M 51 78 L 51 80 C 52.108 80 53 79.108 53 78 L 51 78 z"/><path style="color:#3daee9;opacity:.15;fill:#fff;stroke-width:.99999994" id="hover-center" d="M 75,67.00021 V 78.00019 H 86.000001 V 67.00021 Z" class="ColorScheme-ViewFocus"/><path style="color:#3daee9;opacity:.15;fill:#fff;stroke-width:.99999994" id="hover-right" d="m 86.000001,67.00021 v 10.99998 h 1.999997 c 6.69e-4,-0.0189 0,-0.034 0,-0.0529 v -10.894 c 0,-0.0189 6.69e-4,-0.034 0,-0.0529 h -1.999997 z" class="ColorScheme-ViewFocus"/><path style="color:#3daee9;opacity:.15;fill:#fff;stroke-width:.99993271" id="hover-top" d="m 75,65.0002 v 2.00001 H 85.998522 V 65.0002 c -0.0042,-6.8e-4 0.0045,0 2.99e-4,0 H 75.0123 c -0.0042,0 -0.0079,-6.8e-4 -0.01172,0 z" class="ColorScheme-ViewFocus"/><path style="color:#3daee9;opacity:.15;fill:#fff;stroke-width:.99999994" id="hover-left" d="m 72.999998,67.00021 c -6.69e-4,0.0189 0,0.034 0,0.0529 V 77.9471 c 0,0.0189 -6.69e-4,0.034 0,0.0529 H 75 V 67 h -2.000002 z" class="ColorScheme-ViewFocus"/><path style="color:#3daee9;opacity:.15;fill:#fff;stroke-width:.99999994" id="hover-bottom" d="M 75,78.00019 V 80.0002 H 86.000001 V 78.00019 Z" class="ColorScheme-ViewFocus"/><path style="color:#3daee9;opacity:.15;fill:#fff;stroke-width:.99999994" id="hover-topleft" d="M 75 65 C 73.892 65 73 65.892 73 67 L 75 67 L 75 65 z"/><path style="color:#3daee9;opacity:.15;fill:#fff;stroke-width:.99999994" id="hover-topright" d="M 86 65 L 86 67 L 88 67 C 88 65.892 87.108 65 86 65 z"/><path style="color:#3daee9;opacity:.15;fill:#fff;stroke-width:.99999994" id="hover-bottomleft" d="M 73 78 C 73 79.108 73.892 80 75 80 L 75 78 L 73 78 z"/><path style="color:#3daee9;opacity:.15;fill:#fff;stroke-width:.99999994" id="hover-bottomright" d="M 86 78 L 86 80 C 87.108 80 88 79.108 88 78 L 86 78 z"/></svg>