<svg xmlns="http://www.w3.org/2000/svg" xmlns:svg="http://www.w3.org/2000/svg" id="svg119" width="500" height="300" version="1.1"><metadata id="metadata125"/><g id="north-active-tab-top" transform="matrix(.8125 0 0 .83333 290.56 -685.63)"><rect id="rect2" width="6" height="32" x="-916.36" y="-51" fill="#fff" class="ColorScheme-Background" opacity=".15" transform="matrix(0,-1,-1,0,0,0)"/></g><g id="north-active-tab-topleft" transform="matrix(.41667 0 0 .41667 294.58 -306.32)"><path id="path5" fill="#fff" d="m25 910.36c-6.648 0-12 5.352-12 12h12v-10z" opacity=".15"/></g><g id="north-active-tab-topright" transform="matrix(.41667 0 0 .41667 314.25 -306.32)"><path id="path8" fill="#fff" d="m45 910.36v12h12c0-6.648-5.352-12-12-12z" opacity=".15"/></g><g id="north-active-tab-bottom" transform="matrix(.8125 0 0 .82944 290.56 -686.61)"><rect id="rect11" width="6" height="32" x="948.36" y="-51" fill="#fff" class="ColorScheme-Background" opacity=".15" transform="rotate(90)"/></g><g id="north-active-tab-bottomleft" transform="matrix(.41667 0 0 .41667 294.58 -292.65)"><path id="path14" fill="#fff" d="m13 942.36c0 6.648 5.352 12 12 12v-12h-10z" opacity=".15"/></g><g id="north-active-tab-bottomright" transform="matrix(.41667 0 0 .41667 314.25 -292.65)"><path id="path17" fill="#fff" d="m45 942.36v12c6.648 0 12-5.352 12-12h-10z" opacity=".15"/></g><g id="north-active-tab-left" transform="matrix(.83333 0 0 .625 289.17 -493.73)"><rect id="rect20" width="6" height="32" x="-19" y="916.36" fill="#fff" class="ColorScheme-Background" opacity=".15" transform="scale(-1,1)"/></g><g id="north-active-tab-right" transform="matrix(.83333 0 0 .625 290.5 -493.73)"><rect id="rect23" width="6" height="32" x="51" y="916.36" fill="#fff" class="ColorScheme-Background" opacity=".15"/></g><rect id="north-active-tab-center" width="26" height="20" x="306" y="79" fill="#fff" class="ColorScheme-Background" opacity=".15"/><rect id="hint-tile-center" width="42" height="42" x="45" y="120" fill="green" stroke-width="1.018" opacity=".875"/><rect id="north-focus-hint-right-margin" width="5" height="2" x="-338" y="-90" fill="#4e9a06" transform="scale(-1)"/><rect id="north-focus-hint-left-margin" width="5" height="2" x="-305" y="-90" fill="#4e9a06" transform="scale(-1)"/><rect id="north-focus-hint-bottom-margin" width="2" height="5" x="-320" y="-105" fill="#4e9a06" transform="scale(-1)"/><rect id="north-focus-hint-top-margin" width="2" height="5" x="-320" y="-78" fill="#4e9a06" transform="scale(-1)"/><g id="south-active-tab-top" transform="matrix(.81258 0 0 .83333 290.56 -575.63)"><rect id="rect32" width="6" height="32" x="-916.36" y="-51" fill="#fff" class="ColorScheme-Background" opacity=".15" transform="matrix(0,-1,-1,0,0,0)"/></g><g id="south-active-tab-topleft" transform="matrix(.41667 0 0 .41667 294.58 -196.32)"><path id="path35" fill="#fff" d="m25 910.36c-6.648 0-12 5.352-12 12h12v-10z" opacity=".15"/></g><g id="south-active-tab-topright" transform="matrix(.41667 0 0 .41667 314.25 -196.32)"><path id="path38" fill="#fff" d="m45 910.36v12h12c0-6.648-5.352-12-12-12z" opacity=".15"/></g><g id="south-active-tab-bottom" transform="matrix(.8125 0 0 .83333 290.56 -580.3)"><rect id="rect41" width="6" height="32" x="948.36" y="-51" fill="#fff" class="ColorScheme-Background" opacity=".15" transform="rotate(90)"/></g><g id="south-active-tab-bottomleft" transform="matrix(.41667 0 0 .41667 294.58 -182.65)"><path id="path44" fill="#fff" d="m13 942.36c0 6.648 5.352 12 12 12v-12h-10z" opacity=".15"/></g><g id="south-active-tab-bottomright" transform="matrix(.41667 0 0 .41667 314.25 -182.65)"><path id="path47" fill="#fff" d="m45 942.36v12c6.648 0 12-5.352 12-12h-10z" opacity=".15"/></g><g id="south-active-tab-left" transform="matrix(.83333 0 0 .625 289.17 -383.73)"><rect id="rect50" width="6" height="32" x="-19" y="916.36" fill="#fff" class="ColorScheme-Background" opacity=".15" transform="scale(-1,1)"/></g><g id="south-active-tab-right" transform="matrix(.83333 0 0 .625 290.5 -383.73)"><rect id="rect53" width="6" height="32" x="51" y="916.36" fill="#fff" class="ColorScheme-Background" opacity=".15"/></g><rect id="south-active-tab-center" width="26" height="20" x="306" y="189" fill="#fff" class="ColorScheme-Background" opacity=".15"/><rect id="south-focus-hint-right-margin" width="5" height="2" x="-338" y="-200" fill="#4e9a06" transform="scale(-1)"/><rect id="south-focus-hint-left-margin" width="5" height="2" x="-305" y="-200" fill="#4e9a06" transform="scale(-1)"/><rect id="south-focus-hint-bottom-margin" width="2" height="5" x="-320" y="-215" fill="#4e9a06" transform="scale(-1)"/><rect id="south-focus-hint-top-margin" width="2" height="5" x="-320" y="-188" fill="#4e9a06" transform="scale(-1)"/><g id="west-active-tab-top" transform="matrix(.8125 0 0 .83333 209.56 -627.63)"><rect id="rect61" width="6" height="32" x="-916.36" y="-51" fill="#fff" class="ColorScheme-Background" opacity=".15" transform="matrix(0,-1,-1,0,0,0)"/></g><g id="west-active-tab-topleft" transform="matrix(.41667 0 0 .41667 213.58 -248.32)"><path id="path64" fill="#fff" d="m25 910.36c-6.648 0-12 5.352-12 12h12v-10z" opacity=".15"/></g><g id="west-active-tab-topright" transform="matrix(.41667 0 0 .41667 233.25 -248.32)"><path id="path67" fill="#fff" d="m45 910.36v12h12c0-6.648-5.352-12-12-12z" opacity=".15"/></g><g id="west-active-tab-bottom" transform="matrix(.8125 0 0 .83334 209.56 -632.3)"><rect id="rect70" width="6" height="32" x="948.36" y="-51" fill="#fff" class="ColorScheme-Background" opacity=".15" transform="rotate(90)"/></g><g id="west-active-tab-bottomleft" transform="matrix(.41667 0 0 .41666 213.58 -234.64)"><path id="path73" fill="#fff" d="m13 942.36c0 6.648 5.352 12 12 12v-12h-10z" opacity=".15"/></g><g id="west-active-tab-bottomright" transform="matrix(.41667 0 0 .41667 233.25 -234.65)"><path id="path76" fill="#fff" d="m45 942.36v12c6.648 0 12-5.352 12-12h-10z" opacity=".15"/></g><g id="west-active-tab-left" transform="matrix(.83333 0 0 .625 208.17 -435.73)"><rect id="rect79" width="6" height="32" x="-19" y="916.36" fill="#fff" class="ColorScheme-Background" opacity=".15" transform="scale(-1,1)"/></g><g id="west-active-tab-right" transform="matrix(.83333 0 0 .625 209.5 -435.73)"><rect id="rect82" width="6" height="32" x="51" y="916.36" fill="#fff" class="ColorScheme-Background" opacity=".15"/></g><rect id="west-active-tab-center" width="26" height="20" x="225" y="137" fill="#fff" class="ColorScheme-Background" opacity=".15"/><rect id="west-focus-hint-right-margin" width="5" height="2" x="-257" y="-148" fill="#4e9a06" transform="scale(-1)"/><rect id="west-focus-hint-left-margin" width="5" height="2" x="-224" y="-148" fill="#4e9a06" transform="scale(-1)"/><rect id="west-focus-hint-bottom-margin" width="2" height="5" x="-239" y="-163" fill="#4e9a06" transform="scale(-1)"/><rect id="west-focus-hint-top-margin" width="2" height="5" x="-239" y="-136" fill="#4e9a06" transform="scale(-1)"/><g id="east-active-tab-top" transform="matrix(.8125 0 0 .83333 373.56 -629.63)"><rect id="rect90" width="6" height="32" x="-916.36" y="-51" fill="#fff" class="ColorScheme-Background" opacity=".15" transform="matrix(0,-1,-1,0,0,0)"/></g><g id="east-active-tab-topleft" transform="matrix(.41667 0 0 .41667 377.58 -250.32)"><path id="path93" fill="#fff" d="m25 910.36c-6.648 0-12 5.352-12 12h12v-10z" opacity=".15"/></g><g id="east-active-tab-topright" transform="matrix(.41667 0 0 .41667 397.25 -250.32)"><path id="path96" fill="#fff" d="m45 910.36v12h12c0-6.648-5.352-12-12-12z" opacity=".15"/></g><g id="east-active-tab-bottom" transform="matrix(.8125 0 0 .83334 373.56 -634.3)"><rect id="rect99" width="6" height="32" x="948.36" y="-51" fill="#fff" class="ColorScheme-Background" opacity=".15" transform="rotate(90)"/></g><g id="east-active-tab-bottomleft" transform="matrix(.41667 0 0 .41667 377.58 -236.66)"><path id="path102" fill="#fff" d="m13 942.36c0 6.648 5.352 12 12 12v-12h-10z" opacity=".15"/></g><g id="east-active-tab-bottomright" transform="matrix(.41667 0 0 .41667 397.25 -236.66)"><path id="path105" fill="#fff" d="m45 942.36v12c6.648 0 12-5.352 12-12h-10z" opacity=".15"/></g><g id="east-active-tab-left" transform="matrix(.83333 0 0 .625 372.17 -437.72)"><rect id="rect108" width="6" height="32" x="-19" y="916.36" fill="#fff" class="ColorScheme-Background" opacity=".15" transform="scale(-1,1)"/></g><g id="east-active-tab-right" transform="matrix(.83333 0 0 .625 373.5 -437.72)"><rect id="rect111" width="6" height="32" x="51" y="916.36" fill="#fff" class="ColorScheme-Background" opacity=".15"/></g><rect id="east-active-tab-center" width="26" height="20" x="389" y="135" fill="#fff" class="ColorScheme-Background" opacity=".15"/><rect id="east-focus-hint-right-margin" width="5" height="2" x="-421" y="-146" fill="#4e9a06" transform="scale(-1)"/><rect id="east-focus-hint-left-margin" width="5" height="2" x="-388" y="-146" fill="#4e9a06" transform="scale(-1)"/><rect id="east-focus-hint-bottom-margin" width="2" height="5" x="-403" y="-161" fill="#4e9a06" transform="scale(-1)"/><rect id="east-focus-hint-top-margin" width="2" height="5" x="-403" y="-134" fill="#4e9a06" transform="scale(-1)"/></svg>