<svg xmlns="http://www.w3.org/2000/svg" xmlns:svg="http://www.w3.org/2000/svg" xmlns:xlink="http://www.w3.org/1999/xlink" id="svg202" width="173" height="56" version="1.1" viewBox="0 0 173 56"><metadata id="metadata206"/><style id="current-color-scheme" type="text/css">.ColorScheme-Background{color:#eff0f1;stop-color:#eff0f1}</style><defs id="defs26"><linearGradient id="a"><stop id="stop3" offset="0" stop-opacity=".667"/><stop id="stop5" offset="1" stop-opacity="0"/></linearGradient><linearGradient id="q" x1="-912.36" x2="-906.36" y1="-35" y2="-35" gradientUnits="userSpaceOnUse" xlink:href="#a"/><linearGradient id="p" x1="15" x2="9" y1="12" y2="12" gradientUnits="userSpaceOnUse" xlink:href="#a"/><radialGradient id="e" cx="22.2" cy="913.97" r="6" gradientTransform="rotate(-90.000005,-405.39,435.58996)" gradientUnits="userSpaceOnUse" xlink:href="#a"/><linearGradient id="o" x1="19" x2="19" y1="8" y2="2" gradientTransform="translate(58)" gradientUnits="userSpaceOnUse" xlink:href="#a"/><linearGradient id="n" x1="55" x2="61" y1="12" y2="12" gradientUnits="userSpaceOnUse" xlink:href="#a"/><radialGradient id="d" cx="53.893" cy="911.76" r="6" gradientTransform="translate(59.107,-903.77)" gradientUnits="userSpaceOnUse" xlink:href="#a"/><linearGradient id="m" x1="51" x2="51" y1="8" y2="2" gradientTransform="translate(58)" gradientUnits="userSpaceOnUse" xlink:href="#a"/><linearGradient id="l" x1="952.36" x2="958.36" y1="-35" y2="-35" gradientUnits="userSpaceOnUse" xlink:href="#a"/><linearGradient id="k" x1="19" x2="19" y1="48" y2="54" gradientTransform="translate(58)" gradientUnits="userSpaceOnUse" xlink:href="#a"/><radialGradient id="c" cx="7.643" cy="950.36" r="6" gradientTransform="rotate(-179.99991,40.320895,499.17997)" gradientUnits="userSpaceOnUse" xlink:href="#a"/><linearGradient id="j" x1="15" x2="9" y1="44" y2="44" gradientUnits="userSpaceOnUse" xlink:href="#a"/><linearGradient id="i" x1="51" x2="51" y1="48" y2="54" gradientTransform="translate(58)" gradientUnits="userSpaceOnUse" xlink:href="#a"/><radialGradient id="b" cx="54.25" cy="945.11" r="6" gradientTransform="matrix(2.1666e-7,1,-0.99999,2.1665e-7,1058.1,-6.2502)" gradientUnits="userSpaceOnUse" xlink:href="#a"/><linearGradient id="h" x1="55" x2="61" y1="44" y2="44" gradientUnits="userSpaceOnUse" xlink:href="#a"/><linearGradient id="g" x1="-15" x2="-9" y1="932.36" y2="932.36" gradientUnits="userSpaceOnUse" xlink:href="#a"/><linearGradient id="f" x1="55" x2="61" y1="932.36" y2="932.36" gradientUnits="userSpaceOnUse" xlink:href="#a"/><style id="style24" type="text/css">.ColorScheme-Background{color:#eff0f1}</style><linearGradient id="linearGradient919"><stop style="stop-color:#000;stop-opacity:.66663194" id="stop913" offset="0"/><stop id="stop915" offset=".563" style="stop-color:#000;stop-opacity:.15"/><stop style="stop-color:#000;stop-opacity:0" id="stop917" offset="1"/></linearGradient><radialGradient id="radialGradient954" cx="78.509" cy="10" r="6" fx="78.509" fy="10" gradientTransform="matrix(1.1636765e-7,-2.6666664,2.6666668,1.1636731e-7,11.333332,221.35746)" gradientUnits="userSpaceOnUse" xlink:href="#linearGradient919"/><radialGradient id="radialGradient1003" cx="78.509" cy="10" r="6" fx="78.509" fy="10" gradientTransform="matrix(1.1636765e-7,-2.6666664,2.6666668,1.1636731e-7,11.333332,221.35746)" gradientUnits="userSpaceOnUse" xlink:href="#linearGradient919"/><radialGradient id="radialGradient1043" cx="78.509" cy="10" r="6" fx="78.509" fy="10" gradientTransform="matrix(1.1636765e-7,-2.6666664,2.6666668,1.1636731e-7,11.333332,221.35746)" gradientUnits="userSpaceOnUse" xlink:href="#linearGradient919"/><radialGradient id="radialGradient1083" cx="78.509" cy="10" r="6" fx="78.509" fy="10" gradientTransform="matrix(1.1636765e-7,-2.6666664,2.6666668,1.1636731e-7,11.333332,221.35746)" gradientUnits="userSpaceOnUse" xlink:href="#linearGradient919"/><linearGradient id="linearGradient4920" x1="-916.362" x2="-905.362" y1="-35" y2="-35" gradientTransform="matrix(1.5000033,0,0,1,458.1841,0)" gradientUnits="userSpaceOnUse" xlink:href="#linearGradient4270"/><linearGradient id="linearGradient4270"><stop id="stop4272" offset="0" style="stop-color:#000;stop-opacity:.66663194"/><stop id="stop4274" offset="1" style="stop-color:#000;stop-opacity:0"/></linearGradient><radialGradient id="radialGradient994" cx="77" cy="12" r="6" fx="77" fy="12" gradientTransform="matrix(-1.8522317e-5,-3.6666615,3.6666637,-1.8522329e-5,12.001518,300.33308)" gradientUnits="userSpaceOnUse" xlink:href="#linearGradient4270"/><radialGradient id="radialGradient997" cx="77" cy="12" r="6" fx="77" fy="12" gradientTransform="matrix(-1.8522317e-5,-3.6666615,3.6666637,-1.8522329e-5,12.001518,300.33308)" gradientUnits="userSpaceOnUse" xlink:href="#linearGradient4270"/><radialGradient id="radialGradient1005" cx="77" cy="12" r="6" fx="77" fy="12" gradientTransform="matrix(-1.8522317e-5,-3.6666615,3.6666637,-1.8522329e-5,12.001518,300.33308)" gradientUnits="userSpaceOnUse" xlink:href="#linearGradient4270"/><radialGradient id="radialGradient1013" cx="77" cy="12" r="6" fx="77" fy="12" gradientTransform="matrix(-1.8522317e-5,-3.6666615,3.6666637,-1.8522329e-5,12.001518,300.33308)" gradientUnits="userSpaceOnUse" xlink:href="#linearGradient4270"/><radialGradient id="radialGradient1021" cx="77" cy="12" r="6" fx="77" fy="12" gradientTransform="matrix(-1.8522317e-5,-3.6666615,3.6666637,-1.8522329e-5,12.001518,300.33308)" gradientUnits="userSpaceOnUse" xlink:href="#linearGradient4270"/><radialGradient id="radialGradient931" cx="77" cy="12" r="6" fx="77" fy="12" gradientTransform="matrix(-1.8522317e-5,-3.6666615,3.6666637,-1.8522329e-5,12.001518,300.33308)" gradientUnits="userSpaceOnUse" xlink:href="#linearGradient4270"/><linearGradient id="linearGradient943" x1="-916.362" x2="-905.362" y1="-35" y2="-35" gradientTransform="matrix(1.5000033,0,0,1,458.1841,0)" gradientUnits="userSpaceOnUse" xlink:href="#linearGradient4270"/><radialGradient id="radialGradient951" cx="77" cy="12" r="6" fx="77" fy="12" gradientTransform="matrix(-1.8522317e-5,-3.6666615,3.6666637,-1.8522329e-5,12.001518,300.33308)" gradientUnits="userSpaceOnUse" xlink:href="#linearGradient4270"/><linearGradient id="linearGradient964" x1="-916.362" x2="-905.362" y1="-35" y2="-35" gradientTransform="matrix(1.5000033,0,0,1,458.1841,0)" gradientUnits="userSpaceOnUse" xlink:href="#linearGradient4270"/><radialGradient id="radialGradient972" cx="77" cy="12" r="6" fx="77" fy="12" gradientTransform="matrix(-1.8522317e-5,-3.6666615,3.6666637,-1.8522329e-5,12.001518,300.33308)" gradientUnits="userSpaceOnUse" xlink:href="#linearGradient4270"/><linearGradient id="linearGradient984" x1="-916.362" x2="-905.362" y1="-35" y2="-35" gradientTransform="matrix(1.5000033,0,0,1,458.1841,0)" gradientUnits="userSpaceOnUse" xlink:href="#linearGradient4270"/></defs><rect id="hint-tile-center" width="5" height="5" x="0" y="0" style="fill:#f60"/><g id="shadow-bottom" transform="matrix(0.62500001,0,0,-1.3333333,44.125063,1259.8163)"><rect style="opacity:1;fill:none;fill-opacity:1;stroke:none" id="rect953" width="6" height="32" x="-916.362" y="-51" transform="matrix(0,-1,-1,0,0,0)"/><rect style="opacity:.25;fill:url(#linearGradient964);fill-opacity:1;stroke:none;stroke-width:1.22475" id="rect955" width="9" height="32" x="-907.362" y="-51" transform="matrix(0,-1,-1,0,0,0)"/><rect id="rect958" width="1" height="32" x="-911.362" y="-51" transform="matrix(0,-1,-1,0,0,0)" style="opacity:1;fill:none;fill-opacity:1;stroke:none"/><rect id="rect960" width=".75" height="32" x="-907.362" y="-51" transform="matrix(0,-1,-1,0,0,0)" style="opacity:.25;fill:#000;fill-opacity:1;stroke:none;stroke-width:.353541"/></g><g id="shadow-left" transform="matrix(0,0.62500001,1.3333333,0,-1165.8163,6.12501)"><rect style="opacity:1;fill:none;fill-opacity:1;stroke:none" id="rect974" width="6" height="32" x="-916.362" y="-51" transform="matrix(0,-1,-1,0,0,0)"/><rect style="opacity:.25;fill:url(#linearGradient984);fill-opacity:1;stroke:none;stroke-width:1.22475" id="rect976" width="9" height="32" x="-907.362" y="-51" transform="matrix(0,-1,-1,0,0,0)"/><rect id="rect978" width="1" height="32" x="-911.362" y="-51" transform="matrix(0,-1,-1,0,0,0)" style="opacity:1;fill:none;fill-opacity:1;stroke:none"/><rect id="rect980" width=".75" height="32" x="-907.362" y="-51" transform="matrix(0,-1,-1,0,0,0)" style="opacity:.25;fill:#000;fill-opacity:1;stroke:none;stroke-width:.353541"/></g><g id="shadow-right" transform="matrix(0,0.62500001,-1.3333333,0,1297.8163,6.125031)"><rect style="opacity:1;fill:none;fill-opacity:1;stroke:none" id="rect933" width="6" height="32" x="-916.362" y="-51" transform="matrix(0,-1,-1,0,0,0)"/><rect style="opacity:.25;fill:url(#linearGradient943);fill-opacity:1;stroke:none;stroke-width:1.22475" id="rect935" width="9" height="32" x="-907.362" y="-51" transform="matrix(0,-1,-1,0,0,0)"/><rect id="rect937" width="1" height="32" x="-911.362" y="-51" transform="matrix(0,-1,-1,0,0,0)" style="opacity:1;fill:none;fill-opacity:1;stroke:none"/><rect id="rect939" width=".75" height="32" x="-907.362" y="-51" transform="matrix(0,-1,-1,0,0,0)" style="opacity:.25;fill:#000;fill-opacity:1;stroke:none;stroke-width:.353541"/></g><g id="shadow-topleft" transform="translate(60.000079,-932.36216)" style="opacity:1"><path id="path4828" d="M 32,-6 V 18 H 44 V 17 C 44,10.90603 48.906024,6 55,6 h 1 V -6 Z" transform="translate(-60.000026,932.36216)" style="opacity:.25;fill:url(#radialGradient994);fill-opacity:1;fill-rule:evenodd;stroke:none;stroke-width:2px;stroke-linecap:butt;stroke-linejoin:miter;stroke-opacity:1"/><path id="path962" d="M 55,5 C 48.351988,5 43,10.35199 43,17 v 1 h 1 V 17 C 44,10.90603 48.906024,6 55,6 h 1 V 5 Z" transform="translate(-60.000026,932.36216)" style="opacity:.25;fill:#000;fill-opacity:1;fill-rule:evenodd;stroke:none;stroke-width:2px;stroke-linecap:butt;stroke-linejoin:miter;stroke-opacity:1"/></g><g id="top" transform="matrix(0.62500095,0,0,1.9999962,44.125014,-1814.7209)"><rect id="rect4152" width="6" height="32" x="-916.362" y="-51" class="ColorScheme-Background" transform="matrix(0,-1,-1,0,0,0)" style="color:#eff0f1;opacity:.25;fill:#000;fill-opacity:1;stroke:none"/><rect style="color:#eff0f1;opacity:.05;fill:#fff;fill-opacity:1;stroke:none;stroke-width:.288687" id="rect946" width=".5" height="32" x="-910.862" y="-51" class="ColorScheme-Background" transform="matrix(0,-1,-1,0,0,0)"/></g><g id="topleft" transform="translate(31.000053,-904.36218)"><path style="opacity:.25;fill:#000;fill-opacity:1;stroke:none;stroke-width:2" id="rect4159" d="M 55,6 C 48.906024,6 44,10.90603 44,17 v 1 H 56 V 6 Z" transform="translate(-31,904.36218)"/><path style="opacity:.05;fill:#fff;fill-opacity:1;stroke:none;stroke-width:2" id="path948" d="M 55,6 C 48.906024,6 44,10.90603 44,17 v 1 h 1 V 17.083984 C 45,11.497854 49.497852,7 55.083984,7 H 56 V 6 Z" transform="translate(-31,904.36218)"/></g><g id="bottom" transform="matrix(0.62500095,0,0,2.0000038,44.125014,-1858.728)"><rect style="color:#eff0f1;opacity:.25;fill:#000;fill-opacity:1;stroke:none" id="rect4148" width="6" height="32" x="948.362" y="-51" class="ColorScheme-Background" transform="rotate(90)"/><rect id="rect961" width=".5" height="32" x="953.862" y="-51" class="ColorScheme-Background" transform="rotate(90)" style="color:#eff0f1;opacity:.05;fill:#fff;fill-opacity:1;stroke:none;stroke-width:.288675"/></g><g id="left" transform="matrix(1.9999994,0,0,0.62499857,18.000056,-554.72503)"><rect style="color:#eff0f1;opacity:.25;fill:#000;fill-opacity:1;stroke:none" id="rect4144" width="6" height="32" x="-19" y="916.362" class="ColorScheme-Background" transform="scale(-1,1)"/><rect id="rect957" width=".5" height="32" x="-13.5" y="916.362" class="ColorScheme-Background" transform="scale(-1,1)" style="color:#eff0f1;opacity:.05;fill:#fff;fill-opacity:1;stroke:none;stroke-width:.288675"/></g><g id="right" transform="matrix(1.9999975,0,0,0.62499857,-25.999791,-554.72503)"><rect id="rect4140" width="6" height="32" x="51" y="916.362" class="ColorScheme-Background" style="color:#eff0f1;opacity:.25;fill:#000;fill-opacity:1;stroke:none"/><rect style="color:#eff0f1;opacity:.05;fill:#fff;fill-opacity:1;stroke:none;stroke-width:.288673" id="rect959" width=".5" height="32" x="56.5" y="916.362" class="ColorScheme-Background"/></g><rect id="center" width="20" height="20" x="56" y="18" class="ColorScheme-Background" style="color:#eff0f1;opacity:.25;fill:#000;fill-opacity:1;stroke:none;stroke-width:.625;stop-color:#eff0f1"/><rect style="fill:#f0f;fill-opacity:1;stroke:none;stroke-width:1.1547" id="hint-top-margin" width="4" height="8" x="64" y="6"/><rect id="hint-bottom-margin" width="4" height="8" x="64" y="42" style="fill:#f0f;fill-opacity:1;stroke:none;stroke-width:1.15471"/><rect id="hint-right-margin" width="4" height="8" x="26" y="-88" transform="rotate(90)" style="fill:#f0f;fill-opacity:1;stroke:none;stroke-width:1.1547"/><rect style="fill:#f0f;fill-opacity:1;stroke:none;stroke-width:1.1547" id="hint-left-margin" width="4" height="8" x="26" y="-52" transform="rotate(90)"/><g id="shadow-top" transform="matrix(0.62500001,0,0,1.3333333,44.125062,-1203.8163)" style="opacity:1"><rect style="opacity:1;fill:none;fill-opacity:1;stroke:none" id="rect4820" width="6" height="32" x="-916.362" y="-51" transform="matrix(0,-1,-1,0,0,0)"/><rect style="opacity:.25;fill:url(#linearGradient4920);fill-opacity:1;stroke:none;stroke-width:1.22475" id="rect4822" width="9" height="32" x="-907.362" y="-51" transform="matrix(0,-1,-1,0,0,0)"/><rect id="rect4824" width="1" height="32" x="-911.362" y="-51" transform="matrix(0,-1,-1,0,0,0)" style="opacity:1;fill:none;fill-opacity:1;stroke:none"/><rect id="rect986" width=".75" height="32" x="-907.362" y="-51" transform="matrix(0,-1,-1,0,0,0)" style="opacity:.25;fill:#000;fill-opacity:1;stroke:none;stroke-width:.353541"/></g><rect id="shadow-hint-top-margin" width="4" height="12" x="64" y="-6" style="fill:#f60;fill-opacity:1;stroke:none;stroke-width:1.41422"/><rect style="fill:#f60;fill-opacity:1;stroke:none;stroke-width:1.41421" id="shadow-hint-bottom-margin" width="4" height="12" x="64" y="50"/><rect style="fill:#f60;fill-opacity:1;stroke:none;stroke-width:1.41422" id="shadow-hint-right-margin" width="4" height="12" x="26" y="-100" transform="rotate(90)"/><rect id="shadow-hint-left-margin" width="4" height="12" x="26" y="-44" transform="rotate(90)" style="fill:#f60;fill-opacity:1;stroke:none;stroke-width:1.41421"/><g id="mask-top" transform="matrix(0.62500018,0,0,1.0000017,114.12504,-904.36377)"><rect style="opacity:1;fill:#000;fill-opacity:1;stroke:none;stroke-width:1.54919" id="rect4265" width="12" height="32" x="-922.362" y="-51" transform="matrix(0,-1,-1,0,0,0)"/></g><g id="mask-bottom" transform="matrix(0.62500018,0,0,1.2000051,114.12504,-1095.2395)"><rect id="rect4291" width="10" height="32" x="944.362" y="-51" transform="rotate(90)" style="opacity:1;fill:#000;fill-opacity:1;stroke:none;stroke-width:1.41421"/></g><g id="mask-left" transform="matrix(1.0909091,0,0,1,99.818234,-904.36218)"><rect id="rect4317" width="11" height="20" x="-24" y="922.362" transform="scale(-1,1)" style="opacity:1;fill:#000;fill-opacity:1;stroke:none;stroke-width:1.17261"/></g><g id="mask-right" transform="matrix(1.2000003,0,0,0.62500169,89.600038,-554.72794)"><rect style="opacity:1;fill:#000;fill-opacity:1;stroke:none;stroke-width:1.41421" id="rect4323" width="10" height="32" x="47" y="916.362"/></g><rect style="opacity:1;fill:#000;fill-opacity:1;stroke:none;stroke-width:.625001" id="mask-center" width="20" height="20" x="126" y="18"/><use id="topright" width="100%" height="100%" x="0" y="0" transform="rotate(90,66.000063,27.999991)" xlink:href="#topleft"/><use id="bottomleft" width="100%" height="100%" x="0" y="0" transform="matrix(1,0,0,-1,-1.1740562e-7,55.999942)" xlink:href="#topleft"/><use id="bottomright" width="100%" height="100%" x="0" y="0" transform="rotate(180,66.000054,27.999992)" xlink:href="#topleft"/><g id="mask-topleft" transform="matrix(1.0000023,0,0,1.0000023,101.00002,-904.36428)"><path style="opacity:1;fill:#000;fill-opacity:1;stroke:none;stroke-width:1.83333" id="path972" d="m 140,6 c -6.09399,0 -11,4.906013 -11,11 h 11 z" transform="matrix(1.0909091,0,0,1.0909091,-127.72727,903.81674)"/></g><use id="mask-topright" width="100%" height="100%" x="0" y="0" transform="matrix(-1,0,0,1,272.0001,-8.8476689e-8)" xlink:href="#mask-topleft"/><use id="mask-bottomleft" width="100%" height="100%" x="0" y="0" transform="matrix(1,0,0,-1,-1.1740562e-7,55.999942)" xlink:href="#mask-topleft"/><use id="mask-bottomright" width="100%" height="100%" x="0" y="0" transform="rotate(180,136.00006,27.999982)" xlink:href="#mask-topleft"/><rect style="color:#eff0f1;opacity:0;fill:#000;fill-opacity:1;stroke:none;stroke-width:.625;stop-color:#eff0f1" id="shadow-center" width="20" height="20" x="56" y="72" class="ColorScheme-Background"/><g id="shadow-topright" transform="matrix(-1,0,0,1,72.000021,-932.36214)"><path id="path925" d="M 32,-6 V 18 H 44 V 17 C 44,10.90603 48.906024,6 55,6 h 1 V -6 Z" transform="translate(-60.000026,932.36216)" style="opacity:.25;fill:url(#radialGradient931);fill-opacity:1;fill-rule:evenodd;stroke:none;stroke-width:2px;stroke-linecap:butt;stroke-linejoin:miter;stroke-opacity:1"/><path id="path927" d="M 55,5 C 48.351988,5 43,10.35199 43,17 v 1 h 1 V 17 C 44,10.90603 48.906024,6 55,6 h 1 V 5 Z" transform="translate(-60.000026,932.36216)" style="opacity:.25;fill:#000;fill-opacity:1;fill-rule:evenodd;stroke:none;stroke-width:2px;stroke-linecap:butt;stroke-linejoin:miter;stroke-opacity:1"/></g><g id="shadow-bottomleft" transform="matrix(1,0,0,-1,60.000079,988.3622)"><path id="path966" d="M 32,-6 V 18 H 44 V 17 C 44,10.90603 48.906024,6 55,6 h 1 V -6 Z" transform="translate(-60.000026,932.36216)" style="opacity:.25;fill:url(#radialGradient972);fill-opacity:1;fill-rule:evenodd;stroke:none;stroke-width:2px;stroke-linecap:butt;stroke-linejoin:miter;stroke-opacity:1"/><path id="path968" d="M 55,5 C 48.351988,5 43,10.35199 43,17 v 1 h 1 V 17 C 44,10.90603 48.906024,6 55,6 h 1 V 5 Z" transform="translate(-60.000026,932.36216)" style="opacity:.25;fill:#000;fill-opacity:1;fill-rule:evenodd;stroke:none;stroke-width:2px;stroke-linecap:butt;stroke-linejoin:miter;stroke-opacity:1"/></g><g id="shadow-bottomright" transform="rotate(180,36.000015,494.18109)"><path id="path945" d="M 32,-6 V 18 H 44 V 17 C 44,10.90603 48.906024,6 55,6 h 1 V -6 Z" transform="translate(-60.000026,932.36216)" style="opacity:.25;fill:url(#radialGradient951);fill-opacity:1;fill-rule:evenodd;stroke:none;stroke-width:2px;stroke-linecap:butt;stroke-linejoin:miter;stroke-opacity:1"/><path id="path947" d="M 55,5 C 48.351988,5 43,10.35199 43,17 v 1 h 1 V 17 C 44,10.90603 48.906024,6 55,6 h 1 V 5 Z" transform="translate(-60.000026,932.36216)" style="opacity:.25;fill:#000;fill-opacity:1;fill-rule:evenodd;stroke:none;stroke-width:2px;stroke-linecap:butt;stroke-linejoin:miter;stroke-opacity:1"/></g></svg>