<svg xmlns="http://www.w3.org/2000/svg" xmlns:svg="http://www.w3.org/2000/svg" xmlns:xlink="http://www.w3.org/1999/xlink" id="svg184" width="257" height="161" version="1.0"><metadata id="metadata188"/><defs id="defs3"><style id="current-color-scheme" type="text/css">.ColorScheme-Highlight{color:#3daee6}</style></defs><rect style="opacity:.875;fill:green" id="hint-tile-center" width="40" height="40" x="49.93" y="-90.32"/><path style="color:#3daee6;opacity:.7;fill:#272a2a;stroke-width:.99999994;fill-opacity:.40000001" id="selected-center" d="M 22,21 V 69 H 70 V 21 Z" class="ColorScheme-Highlight"/><g id="selected-left" transform="matrix(1,0,0,3,-169.14,-2468.58)" style="opacity:1"><path style="color:#3daee6;opacity:.95;fill:#272a2a;fill-opacity:.40000001" id="path7" d="m 186.14,829.86 v 16 h 4 v -16 z" class="ColorScheme-Highlight"/></g><g id="selected-topleft" transform="translate(-169.14001,-809.86005)" style="opacity:1"><path style="color:#3daee6;opacity:.95;fill:#272a2a;stroke-width:3;fill-opacity:.40000001" id="path10" d="M 59,21 C 52.352,21 47,26.352 47,33 H 59 Z" transform="matrix(0.33333333,0,0,0.33333333,170.47333,818.86)"/></g><g id="selected-top" transform="matrix(0.36641221,0,0,1,-47.669618,-809.86)" style="opacity:1"><path style="color:#3daee6;opacity:.95;fill:#272a2a;fill-opacity:.40000001" id="path13" d="m 190.14,825.86 v 4 h 131 v -4 z" class="ColorScheme-Highlight"/></g><g id="selected-topright" transform="matrix(1.4999981,0,0,1.4999981,-412.70938,-1222.7884)" style="opacity:1"><path style="color:#3daee6;opacity:.95;fill:#272a2a;stroke-width:.66666573;fill-opacity:.40000001" id="path16" d="m 322.47333,825.86 v 2.66666 H 325.14 c 0,-1.47733 -1.18934,-2.66666 -2.66667,-2.66666 z"/></g><g id="selected-right" transform="matrix(1,0,0,3,-250.14,-2468.58)" style="opacity:1"><path style="color:#3daee6;opacity:.95;fill:#272a2a;fill-opacity:.40000001" id="path19" d="m 325.14,829.86 v 16 h -4 v -16 z" class="ColorScheme-Highlight"/></g><path style="opacity:0;fill:#000;fill-opacity:.92814373;stroke-width:.99999964" id="normal-center" d="m 105.00003,20.999997 v 47.999988 h 48 V 20.999997 Z"/><g style="opacity:0;fill:#000;fill-opacity:.92814373" id="normal-topleft" transform="matrix(0.57142916,0,0,0.57142916,-4.651536,-454.20619)"><rect style="opacity:.52100004;fill:#000;fill-opacity:.92814373;stroke-width:3.50011683" id="rect62" width="7" height="7" x="183.14" y="822.86"/><g id="g60" style="fill:#000;fill-opacity:.92814373"><path style="opacity:.82273003;fill:#000;fill-opacity:.92814373" id="path54" d="m 186.14,829.86 h 4 v -4 h -1.4688 c -1.405,0 -2.5312,1.1159 -2.5312,2.5312 z"/><path style="opacity:.85;fill:#000;fill-opacity:.92814373" id="path56" d="m 185.14,828.39 c 0,-1.9482 1.5884,-3.5312 3.5312,-3.5312 h 1.4688 v 1 h -1.4688 c -1.405,0 -2.5312,1.1159 -2.5312,2.5312 v 1.4688 h -1 z"/><path style="fill:#000;fill-opacity:.92814373" id="path58" d="m 186.14,829.86 h 1 v -1 c 0,-1.4154 0.59498,-2 2,-2 h 1 v -1 h -1.4688 c -1.405,0 -2.5312,1.1159 -2.5312,2.5312 z"/></g></g><g style="opacity:0;fill:#000;fill-opacity:.92814373" id="normal-top" transform="matrix(0.36641296,0,0,0.57142728,35.330167,-454.20464)"><g id="g71" style="fill:#000;fill-opacity:.92814373"><path style="opacity:.82273003;fill:#000;fill-opacity:.92814373" id="path65" d="m 190.14,825.86 v 4 h 131 v -4 z"/><path style="opacity:.85;fill:#000;fill-opacity:.92814373" id="path67" d="m 190.14,824.86 v 1 h 131 v -1 z"/><path style="fill:#000;fill-opacity:.92814373" id="path69" d="m 190.14,825.86 v 1 h 131 v -1 z"/></g><rect style="opacity:.52100004;fill:#000;fill-opacity:.92814373;stroke-width:6.60807753" id="rect73" width="131" height="2" x="190.14" y="822.86"/></g><g id="selected-bottomright" transform="rotate(180,130.57001,449.93001)" style="opacity:1"><path style="color:#3daee6;opacity:.95;fill:#272a2a;stroke-width:3;fill-opacity:.40000001" id="path149" d="m 77,51 v 12 c 6.648,0 12,-5.352 12,-12 z" transform="matrix(-0.33333333,0,0,-0.33333333,215.80667,846.86)"/></g><g id="selected-bottom" transform="matrix(-0.36641221,0,0,-1,139.66964,899.86002)" style="opacity:1"><path style="color:#3daee6;opacity:.95;fill:#272a2a;fill-opacity:.40000001" id="path152" d="m 190.14,825.86 v 4 h 131 v -4 z" class="ColorScheme-Highlight"/></g><g id="selected-bottomleft" transform="rotate(180,171.07,449.93)" style="opacity:1"><path style="color:#3daee6;opacity:.95;fill:#272a2a;stroke-width:3;fill-opacity:.40000001" id="path155" d="m 47,51 c 0,6.648 5.352,12 12,12 V 51 Z" transform="matrix(-0.33333333,0,0,-0.33333333,340.80667,846.86)"/></g><use id="normal-right" width="100%" height="100%" x="0" y="0" transform="rotate(90,128.99997,45.000046)" xlink:href="#normal-top" style="opacity:0"/><use id="normal-left" width="100%" height="100%" x="0" y="0" transform="matrix(0,-1,1.0000114,0,83.999795,173.99993)" xlink:href="#normal-top" style="opacity:0"/><use id="normal-bottom" width="100%" height="100%" x="0" y="0" transform="matrix(1,0,0,-1,9.7013627e-5,89.999994)" xlink:href="#normal-top" style="opacity:0"/><use id="normal-topright" width="100%" height="100%" x="0" y="0" transform="matrix(-1,0,0,1,258.00004,-1.2372944e-5)" xlink:href="#normal-topleft" style="opacity:0"/><use id="normal-bottomleft" width="100%" height="100%" x="0" y="0" transform="matrix(1,0,0,-1,2.0013627e-5,90.000004)" xlink:href="#normal-topleft" style="opacity:0"/><use id="normal-bottomright" width="100%" height="100%" x="0" y="0" transform="rotate(-180,129.00001,45.000004)" xlink:href="#normal-topleft" style="opacity:0"/><path style="color:#3daee6;opacity:0;fill:#fff;stroke-width:.99999994;fill-opacity:.05" id="hover-center" d="m 22.000028,91.00005 v 48 h 48 v -48 z" class="ColorScheme-Highlight"/><g id="hover-left" transform="matrix(0.99999999,0,0,3,-169.13999,-2398.5798)" style="opacity:1"><path style="color:#3daee6;opacity:0;fill:#fff;fill-opacity:.05" id="path7-8" d="m 186.14,829.86 v 16 h 4 v -16 z" class="ColorScheme-Highlight"/></g><g id="hover-topleft" transform="translate(-169.14,-739.86)" style="opacity:1"><path style="color:#3daee6;opacity:0;fill:#fff;stroke-width:3;fill-opacity:.05" id="path10-91" d="M 59,21 C 52.352,21 47,26.352 47,33 H 59 Z" transform="matrix(0.33333333,0,0,0.33333333,170.47333,818.86)"/></g><g id="hover-top" transform="matrix(0.3664122,0,0,0.99999999,-47.669596,-739.85996)" style="opacity:1"><path style="color:#3daee6;opacity:0;fill:#fff;fill-opacity:.05" id="path13-26" d="m 190.14,825.86 v 4 h 131 v -4 z" class="ColorScheme-Highlight"/></g><g id="hover-topright" transform="matrix(1.4999981,0,0,1.4999981,-412.70937,-1152.7882)" style="opacity:1"><path style="color:#3daee6;opacity:0;fill:#fff;stroke-width:.66666573;fill-opacity:.05" id="path16-1" d="m 322.47333,825.86 v 2.66666 H 325.14 c 0,-1.47733 -1.18934,-2.66666 -2.66667,-2.66666 z"/></g><g id="hover-right" transform="matrix(0.99999999,0,0,3,-250.13999,-2398.5798)" style="opacity:1"><path style="color:#3daee6;opacity:0;fill:#fff;fill-opacity:.05" id="path19-7" d="m 325.14,829.86 v 16 h -4 v -16 z" class="ColorScheme-Highlight"/></g><g id="hover-bottomright" transform="rotate(180,130.57003,484.93006)" style="opacity:1"><path style="color:#3daee6;opacity:0;fill:#fff;stroke-width:3;fill-opacity:.05" id="path149-0" d="m 77,51 v 12 c 6.648,0 12,-5.352 12,-12 z" transform="matrix(-0.33333333,0,0,-0.33333333,215.80667,846.86)"/></g><g id="hover-bottom" transform="matrix(-0.3664122,0,0,-0.99999999,139.66966,969.86005)" style="opacity:1"><path style="color:#3daee6;opacity:0;fill:#fff;fill-opacity:.05" id="path152-84" d="m 190.14,825.86 v 4 h 131 v -4 z" class="ColorScheme-Highlight"/></g><g id="hover-bottomleft" transform="rotate(180,171.07001,484.93004)" style="opacity:1"><path style="color:#3daee6;opacity:0;fill:#fff;stroke-width:3;fill-opacity:.05" id="path155-7" d="m 47,51 c 0,6.648 5.352,12 12,12 V 51 Z" transform="matrix(-0.33333333,0,0,-0.33333333,340.80667,846.86)"/></g><path style="color:#3daee6;opacity:.7;fill:#272a2a;stroke-width:.99999994;fill-opacity:.40000001" id="selected+hover-center" d="m 105.00001,90.9999 v 48 h 48 v -48 z" class="ColorScheme-Highlight"/><g id="selected+hover-left" transform="matrix(0.99999999,0,0,3,-86.139998,-2398.58)" style="opacity:1"><path style="color:#3daee6;opacity:.95;fill:#272a2a;fill-opacity:.40000001" id="path7-83" d="m 186.14,829.86 v 16 h 4 v -16 z" class="ColorScheme-Highlight"/></g><g id="selected+hover-topleft" transform="translate(-86.140008,-739.86015)" style="opacity:1"><path style="color:#3daee6;opacity:.95;fill:#272a2a;stroke-width:3;fill-opacity:.40000001" id="path10-0" d="M 59,21 C 52.352,21 47,26.352 47,33 H 59 Z" transform="matrix(0.33333333,0,0,0.33333333,170.47333,818.86)"/></g><g id="selected+hover-top" transform="matrix(0.3664122,0,0,0.99999999,35.330385,-739.86011)" style="opacity:1"><path style="color:#3daee6;opacity:.95;fill:#272a2a;fill-opacity:.40000001" id="path13-9" d="m 190.14,825.86 v 4 h 131 v -4 z" class="ColorScheme-Highlight"/></g><g id="selected+hover-topright" transform="matrix(1.4999981,0,0,1.4999981,-329.70938,-1152.7884)" style="opacity:1"><path style="color:#3daee6;opacity:.95;fill:#272a2a;stroke-width:.66666573;fill-opacity:.40000001" id="path16-6" d="m 322.47333,825.86 v 2.66666 H 325.14 c 0,-1.47733 -1.18934,-2.66666 -2.66667,-2.66666 z"/></g><g id="selected+hover-right" transform="matrix(0.99999999,0,0,3,-167.14,-2398.58)" style="opacity:1"><path style="color:#3daee6;opacity:.95;fill:#272a2a;fill-opacity:.40000001" id="path19-4" d="m 325.14,829.86 v 16 h -4 v -16 z" class="ColorScheme-Highlight"/></g><g id="selected+hover-bottomright" transform="rotate(180,172.07002,484.92998)" style="opacity:1"><path style="color:#3daee6;opacity:.95;fill:#272a2a;stroke-width:3;fill-opacity:.40000001" id="path149-8" d="m 77,51 v 12 c 6.648,0 12,-5.352 12,-12 z" transform="matrix(-0.33333333,0,0,-0.33333333,215.80667,846.86)"/></g><g id="selected+hover-bottom" transform="matrix(-0.3664122,0,0,-0.99999999,222.66965,969.8599)" style="opacity:1"><path style="color:#3daee6;opacity:.95;fill:#272a2a;fill-opacity:.40000001" id="path152-7" d="m 190.14,825.86 v 4 h 131 v -4 z" class="ColorScheme-Highlight"/></g><g id="selected+hover-bottomleft" transform="rotate(180,212.57,484.92996)" style="opacity:1"><path style="color:#3daee6;opacity:.95;fill:#272a2a;stroke-width:3;fill-opacity:.40000001" id="path155-1" d="m 47,51 c 0,6.648 5.352,12 12,12 V 51 Z" transform="matrix(-0.33333333,0,0,-0.33333333,340.80667,846.86)"/></g></svg>