<svg xmlns="http://www.w3.org/2000/svg" width="70" height="64" version="1.0"><defs><style id="current-color-scheme" type="text/css">.ColorScheme-Text{color:#363636}</style></defs><g id="16-16-computer"><rect width="16" height="16" y="48" fill="none" rx="0" ry="0"/><path fill="currentColor" d="m4.5 62h7c0.277 0 0.5 0.223 0.5 0.5s-0.223 0.5-0.5 0.5h-7c-0.277 0-0.5-0.223-0.5-0.5s0.223-0.5 0.5-0.5z" class="ColorScheme-Text"/><path fill="currentColor" d="m2 50c-1.108 0-2 0.892-2 2v7c0 1.108 0.892 2 2 2h12c1.108 0 2-0.892 2-2v-7c0-1.108-0.892-2-2-2zm0 1h12c0.554 0 1 0.446 1 1v7c0 0.554-0.446 1-1 1h-12c-0.554 0-1-0.446-1-1v-7c0-0.554 0.446-1 1-1z" class="ColorScheme-Text"/></g><g id="22-22-computer" fill="currentColor" class="ColorScheme-Text"><rect width="22" height="22" x="16" y="42" opacity="0"/><path d="m20 45c-1.662 0-3 1.338-3 3v9c0 1.662 1.338 3 3 3h14c1.662 0 3-1.338 3-3v-9c0-1.662-1.338-3-3-3zm0 1h14c1.108 0 2 0.892 2 2v9c0 1.108-0.892 2-2 2h-14c-1.108 0-2-0.892-2-2v-9c0-1.108 0.892-2 2-2z"/><rect width="12" height="1" x="21" y="61" rx=".5" ry=".5"/></g><g id="computer"><rect width="32" height="32" x="38" y="32" opacity="0"/><g fill="currentColor" class="ColorScheme-Text"><path d="m53.887 33a15 15 0 0 0-14.887 15 15 15 0 0 0 15 15 15 15 0 0 0 15-15 15 15 0 0 0-15-15 15 15 0 0 0-0.11328 0zm0.11328 1a14 14 0 0 1 14 14 14 14 0 0 1-14 14 14 14 0 0 1-14-14 14 14 0 0 1 14-14z"/><path d="m47 40c-1.662 0-3 1.338-3 3v9c0 1.662 1.338 3 3 3h14c1.662 0 3-1.338 3-3v-9c0-1.662-1.338-3-3-3zm0 1h14c1.108 0 2 0.892 2 2v9c0 1.108-0.892 2-2 2h-14c-1.108 0-2-0.892-2-2v-9c0-1.108 0.892-2 2-2z"/><rect width="12" height="1" x="48" y="56" rx=".5" ry=".5"/></g></g><g id="computer-laptop" transform="translate(0,-32)"><rect width="32" height="32" x="38" y="32" opacity="0"/><g fill="currentColor" class="ColorScheme-Text"><path d="m53.887 33a15 15 0 0 0-14.887 15 15 15 0 0 0 15 15 15 15 0 0 0 15-15 15 15 0 0 0-15-15 15 15 0 0 0-0.11328 0zm0.11328 1a14 14 0 0 1 14 14 14 14 0 0 1-14 14 14 14 0 0 1-14-14 14 14 0 0 1 14-14z"/><path d="m47 40c-1.662 0-3 1.338-3 3v9c0 1.662 1.338 3 3 3h14c1.662 0 3-1.338 3-3v-9c0-1.662-1.338-3-3-3zm0 1h14c1.108 0 2 0.892 2 2v9c0 1.108-0.892 2-2 2h-14c-1.108 0-2-0.892-2-2v-9c0-1.108 0.892-2 2-2z"/><rect width="20" height="1" x="44" y="55" rx=".5" ry=".5"/></g></g><g id="22-22-computer-laptop" fill="currentColor" class="ColorScheme-Text" transform="translate(0,-32)"><rect width="22" height="22" x="16" y="42" opacity="0"/><path d="m20 45c-1.662 0-3 1.338-3 3v9c0 1.662 1.338 3 3 3h14c1.662 0 3-1.338 3-3v-9c0-1.662-1.338-3-3-3zm0 1h14c1.108 0 2 0.892 2 2v9c0 1.108-0.892 2-2 2h-14c-1.108 0-2-0.892-2-2v-9c0-1.108 0.892-2 2-2z"/><rect width="20" height="1" x="17" y="60" rx=".5" ry=".5"/></g><g id="16-16-computer-laptop"><rect width="16" height="16" y="16" fill="none" opacity="0" rx="0" ry="0"/><path fill="currentColor" d="m2 18c-1.108 0-2 0.892-2 2v7c0 1.108 0.892 2 2 2h12c1.108 0 2-0.892 2-2v-7c0-1.108-0.892-2-2-2zm0 1h12c0.554 0 1 0.446 1 1v7c0 0.554-0.446 1-1 1h-12c-0.554 0-1-0.446-1-1v-7c0-0.554 0.446-1 1-1z" class="ColorScheme-Text"/><rect width="16" height="1" y="29" fill="currentColor" class="ColorScheme-Text" rx=".5" ry=".5"/></g></svg>