<svg xmlns="http://www.w3.org/2000/svg" xmlns:svg="http://www.w3.org/2000/svg" id="svg30" width="32" height="32" version="1.1" viewBox="0 0 32 32"><metadata id="metadata32"/><defs id="defs5"><style id="current-color-scheme" type="text/css">.ColorScheme-Text{color:#363636}</style></defs><g id="device-notifier" fill="currentColor" class="ColorScheme-Text" transform="translate(-321,-529.36)"><path id="path7" d="m 329.69247,534.91128 c -1.49013,0 -2.33999,1.29492 -2.68974,2.80609 l -3.46197,14.95457 c -7.6e-4,0.004 -9e-4,0.007 -0.002,0.011 h 0.002 c -0.074,0.30025 -0.12433,0.61037 -0.12433,0.93536 0,2.07276 1.59951,3.74145 3.58632,3.74145 h 19.72477 c 1.98682,0 3.58632,-1.66869 3.58632,-3.74145 0,-0.32499 -0.0503,-0.63511 -0.12433,-0.93536 h 0.0193 l -3.48124,-14.9658 c -0.35133,-1.51071 -1.19962,-2.80609 -2.68974,-2.80609 z m 6.27606,1.87073 h 0.89658 l 1.79316,2.80608 h -1.79316 v 5.61218 h 3.58632 v -2.80609 h -0.89657 v -2.80609 h 2.68973 v 2.80609 h -0.89658 v 3.74145 h -4.4829 v 1.95107 a 1.3448705,1.4030437 0 0 1 0.89658,1.3227 1.3448705,1.4030437 0 0 1 -1.34487,1.40304 1.3448705,1.4030437 0 0 1 -1.34487,-1.40304 1.3448705,1.4030437 0 0 1 0.89658,-1.32083 v -1.95294 h -4.48291 v -3.8218 a 1.3448705,1.4030437 0 0 1 -0.89657,-1.32269 1.3448705,1.4030437 0 0 1 1.34487,-1.40305 1.3448705,1.4030437 0 0 1 1.34487,1.40305 1.3448705,1.4030437 0 0 1 -0.89658,1.32082 v 2.88831 h 3.58632 v -5.61218 h -1.79316 z m -8.9658,14.9658 h 19.72476 c 0.99341,0 1.79316,0.83433 1.79316,1.87072 0,1.03639 -0.79974,1.87073 -1.79316,1.87073 h -19.72476 c -0.99342,0 -1.79317,-0.83434 -1.79317,-1.87073 0,-1.03639 0.79974,-1.87072 1.79317,-1.87072 z" style="stroke-width:.915766"/><rect id="rect9" width="32" height="32" x="321" y="529.36" fill-opacity="0"/><circle id="circle11" cx="346" cy="553.36" r="1"/></g><g id="16-16-device-notifier" fill="currentColor" class="ColorScheme-Text" transform="matrix(0.82716393,0,0,0.89461289,-252.67963,-471.91981)"><rect id="rect14" width="16" height="16" x="393.5" y="537.36" opacity="0" ry="0"/><g id="g22" transform="translate(-19.5)"><path id="path16" d="m 97,8 c -0.55399,0 -1,0.44601 -1,1 v 3 c -1.108,0 -2,0.89201 -2,2 v 4 c 0,3.324 2.676,6 6,6 3.324,0 6,-2.676 6,-6 v -4 c 0,-1.108 -0.89201,-2 -2,-2 V 9 c 0,-0.55399 -0.44601,-1 -1,-1 z m 1,1 c 0.55399,0 1,0.44601 1,1 v 1 c 0,0.55399 -0.44601,1 -1,1 -0.55399,0 -1,-0.44601 -1,-1 v -1 c 0,-0.55399 0.44601,-1 1,-1 z m 4,0 c 0.55399,0 1,0.44601 1,1 v 1 c 0,0.55399 -0.44601,1 -1,1 -0.55399,0 -1,-0.44601 -1,-1 v -1 c 0,-0.55399 0.44601,-1 1,-1 z m -6,4 h 8 c 0.55399,0 1,0.44601 1,1 v 4 a 5,5 0 0 1 -5,5 5,5 0 0 1 -5,-5 v -4 c 0,-0.55399 0.44601,-1 1,-1 z" transform="translate(321,529.36)"/><circle id="circle18" cx="421" cy="549.36" r="2" opacity=".25"/><circle id="circle20" cx="421" cy="549.36" r="1"/></g></g><g id="22-22-device-notifier" fill="currentColor" class="ColorScheme-Text" transform="translate(-321,-529.36)"><rect id="rect25" width="22" height="22" x="365" y="534.36" opacity="0"/><path id="path27" d="m 372.82624,538.51834 c -0.41622,0 -0.75129,0.36077 -0.75129,0.80889 v 3.23559 h -0.75129 c -0.83241,0 -1.50256,0.72154 -1.50256,1.61779 v 2.4267 c 0,3.57394 2.69088,6.47117 6.01028,6.47117 3.31941,0 6.01029,-2.89723 6.01029,-6.47117 v -2.4267 c 0,-0.89625 -0.67015,-1.61779 -1.50257,-1.61779 h -0.75128 v -3.23559 c 0,-0.44812 -0.33507,-0.80889 -0.75129,-0.80889 z m 1.50257,1.6178 c 0.41621,0 0.75128,0.36076 0.75128,0.80888 v 0.80891 c 0,0.44812 -0.33507,0.80889 -0.75128,0.80889 -0.41621,0 -0.75127,-0.36077 -0.75127,-0.80889 v -0.80891 c 0,-0.44812 0.33506,-0.80888 0.75127,-0.80888 z m 3.00514,0 c 0.41622,0 0.75128,0.36076 0.75128,0.80888 v 0.80891 c 0,0.44812 -0.33506,0.80889 -0.75128,0.80889 -0.41621,0 -0.75128,-0.36077 -0.75128,-0.80889 v -0.80891 c 0,-0.44812 0.33507,-0.80888 0.75128,-0.80888 z m -6.01029,4.04447 h 9.01544 v 2.4267 c 0,2.68877 -2.01045,4.85337 -4.50772,4.85337 -2.49727,0 -4.50772,-2.1646 -4.50772,-4.85337 z" style="stroke-width:.77956"/></g></svg>