<svg xmlns="http://www.w3.org/2000/svg" xmlns:svg="http://www.w3.org/2000/svg" id="svg36" width="22" height="22" version="1.1" viewBox="0 0 22 22"><metadata id="metadata40"/><defs id="defs3"><style id="current-color-scheme" type="text/css">.ColorScheme-Text{color:#31363b}</style></defs><g id="go-home" transform="translate(-326,-534.36)"><rect id="rect5" width="22" height="22" x="326" y="534.36" fill="none"/><path id="path7" fill="currentColor" d="m337 537.36-8 8 0.70703 0.70703 0.29297-0.29297v7.5859h14v-7.5859l0.29297 0.29297 0.70703-0.70703-3-3v-3h-3zm0 1.4141 6 6v7.5859h-4v-5h-4v5h-4v-7.5859z" class="ColorScheme-Text"/></g><g id="go-down" transform="translate(-326,-534.36)"><rect id="rect10" width="22" height="22" x="414" y="534.36" fill="none"/><g id="g14" transform="translate(414,-496)"><path id="path12" fill="currentColor" d="m3.707 7-0.70703 0.70703 8 8 8-8-0.70703-0.70703-7.293 7.293-7.293-7.293z" class="ColorScheme-Text" transform="translate(-5e-7,1030.4)"/></g></g><g id="go-next" transform="translate(-326,-534.36)"><rect id="rect17" width="22" height="22" x="370" y="534.36" fill="none"/><g id="g21" transform="translate(370,-496)"><path id="path19" fill="currentColor" d="m7.707 3-0.70703 0.70703 7.293 7.293-7.293 7.293 0.70703 0.70703 8-8-8-8z" class="ColorScheme-Text" transform="translate(-5e-7,1030.4)"/></g></g><g id="go-previous" transform="translate(-326,-534.36)"><rect id="rect24" width="22" height="22" x="348" y="534.36" fill="none"/><g id="g28" transform="translate(348,-496)"><path id="path26" fill="currentColor" d="m14.293 3-8 8 8 8 0.70703-0.70703-7.293-7.293 7.293-7.293-0.70703-0.70703z" class="ColorScheme-Text" transform="translate(-5e-7,1030.4)"/></g></g><g id="go-up" transform="translate(-326,-534.36)"><rect id="rect31" width="22" height="22" x="392" y="534.36" fill="none"/><path id="path33" fill="currentColor" fill-rule="evenodd" d="m403 543.36-5 4h10z" class="ColorScheme-Text"/></g></svg>