<svg xmlns="http://www.w3.org/2000/svg" xmlns:svg="http://www.w3.org/2000/svg" id="svg3869" width="32" height="32" version="1.1" viewBox="0 0 32 32"><defs id="defs3871"><style id="current-color-scheme" type="text/css"/></defs><metadata id="metadata3874"/><g id="layer1" transform="translate(-321,-529.36218)"><g id="kdeconnect"><path id="rect832" d="M 10,3 C 8.8919918,3 8,3.8919918 8,5 v 19 1 2 c 0,1.108008 0.8919918,2 2,2 h 12 c 1.108008,0 2,-0.891992 2,-2 V 25 24 5 C 24,3.8919918 23.108008,3 22,3 Z m 0,1.2 h 12 c 0.554008,0 0.8,0.2459918 0.8,0.8 V 24 H 9.2 V 5 C 9.2,4.4459918 9.4459918,4.2 10,4.2 Z M 13,5 v 1 h 6 V 5 Z M 9.2,25.2 H 22.8 V 27 c 0,0.554008 -0.245992,0.8 -0.8,0.8 H 10 C 9.4459918,27.8 9.2276658,27.553317 9.2,27 Z M 14,26 v 1 h 4 v -1 z" transform="translate(321,529.36218)" style="fill:#363636;fill-opacity:1;stroke-width:.970142"/><rect id="rect850" width="32" height="32" x="321" y="529.362" style="fill:#0f0;fill-opacity:0"/></g><g id="22-22-kdeconnect"><path id="rect865" d="M 7,2 C 5.8919918,2 5,2.8919918 5,4 v 11 1 2 c 0,1.108008 0.8919918,2 2,2 h 8 c 1.108008,0 2,-0.891992 2,-2 V 16 15 4 C 17,2.8919918 16.108008,2 15,2 Z m 0,1.2 h 8 c 0.554008,0 0.8,0.2459918 0.8,0.8 V 15 H 6.2 V 4 C 6.2,3.4459918 6.4459918,3.2 7,3.2 Z M 8,4 v 1 h 6 V 4 Z M 6.2,16.2 h 9.6 V 18 c 0,0.554008 -0.245992,0.8 -0.8,0.8 H 7 C 6.4459918,18.8 6.2,18.554008 6.2,18 Z M 9,17 v 1 h 4 v -1 z" transform="translate(299,534.36218)" style="fill:#363636;fill-opacity:1;stroke-width:.92582"/><rect id="rect877" width="22" height="22" x="299" y="534.362" style="fill:green;fill-opacity:0"/></g><g id="16-16-kdeconnect"><path id="rect891" d="M 4,1 C 3.4459918,1 3,1.4459918 3,2 v 12 c 0,0.554008 0.4459918,1 1,1 h 8 c 0.554008,0 1,-0.445992 1,-1 V 2 C 13,1.4459918 12.554008,1 12,1 Z m 0.2,1.2 h 7.6 V 12 H 4.2 Z M 6,3 v 1 h 4 V 3 Z m 1,10.000017 h 2 v 1 H 7 Z" transform="translate(283,537.36218)" style="fill:#363636;fill-opacity:1;stroke-width:.953463"/><rect id="rect906" width="16" height="16" x="283" y="537.362" style="fill:#ff0;fill-opacity:0"/></g></g></svg>