<svg xmlns="http://www.w3.org/2000/svg" xmlns:svg="http://www.w3.org/2000/svg" id="svg3869" width="22" height="22" version="1.1" viewBox="0 0 22 22"><defs id="defs3871"><style id="current-color-scheme" type="text/css"/></defs><metadata id="metadata3874"/><g id="layer1" transform="translate(-326,-534.3622)"><g id="konversation" transform="translate(326,534.3622)" style="clip-rule:evenodd;fill-rule:evenodd;stroke-linejoin:round;stroke-miterlimit:1.41420996"><path style="fill:#363636;stroke-width:.920834;fill-opacity:1" id="path2" d="M 7.3215799,4.8343917 C 6.0560177,4.8343917 4.62,6.0952722 4.62,7.4456062 v 6.7355948 c 0,1.340501 1.3187161,2.610184 2.397799,2.610184 h 1.2007746 l -4.397e-4,3.161888 1.5031965,4.11e-4 v -0.0023 l 3.5898636,-3.160032 h 6.069344 c 1.319964,0 2.501,-1.374425 2.501,-2.709902 V 7.4455539 c 0,-1.4729852 -1.300794,-2.6111622 -2.501,-2.6111622 z m 0,1.2540597 H 19.380538 c 0.495335,0 1.101,0.8354435 1.101,1.3570503 v 6.6240003 c 0,0.521607 -0.605665,1.468346 -1.101,1.468346 H 12.63639 l -3.2178313,3.079222 1.29e-5,-3.079222 H 7.3215799 c -0.4953335,0 -1.3012858,-0.83504 -1.3012858,-1.356647 V 7.4456062 c 0,-0.5216068 0.8059523,-1.3571548 1.3012858,-1.3571548 z"/><rect style="fill:#fff;fill-opacity:0;stroke-width:.90256649" id="rect822" width="22" height="22" x="0" y="0"/><rect id="rect856" width="9.332" height="1.539" x="8.663" y="11.734" style="opacity:1;fill:#15ff49;fill-opacity:1;stroke:none"/><rect id="rect856-3" width="9.332" height="1.539" x="8.636" y="8.426" style="clip-rule:evenodd;opacity:1;fill:#15ff49;fill-opacity:1;fill-rule:evenodd;stroke:none;stroke-linejoin:round;stroke-miterlimit:1.41421"/></g></g></svg>