<svg xmlns="http://www.w3.org/2000/svg" xmlns:svg="http://www.w3.org/2000/svg" id="svg4153" width="22" height="22" version="1.1" viewBox="0 0 22 22"><metadata id="metadata4159"/><defs id="defs4157"><style id="current-color-scheme" type="text/css">.ColorScheme-Text{color:#31363b}.ColorScheme-Background{color:#eff0f1}</style></defs><g id="kpackagekit-important"><g id="g4216"><path style="fill:currentColor;fill-rule:evenodd;stroke:none;stroke-width:1px;stroke-linecap:butt;stroke-linejoin:miter;stroke-opacity:1" id="path4198" d="m 51,7 -3,3 0,9 5.099609,0 L 57,19 l 5.099609,0 0,-9 -3,-3 L 57,7 53.099609,7 Z m 0.3,1 3.7,0 3.7,0 2,2 -11.4,0 z m 1.7,3 4,0 0,5 -1,-1 -1,1 -1,-1 -1,1 z" class="ColorScheme-Text"/><path style="fill:#fdbc4b;fill-opacity:1;fill-rule:evenodd;stroke:none;stroke-width:1px;stroke-linecap:butt;stroke-linejoin:miter;stroke-opacity:1" id="path4202" d="m 60,3 3,5 -6,0 z"/></g><rect id="rect4206" width="22" height="22" x="44" y="0" style="opacity:1;fill:none;fill-opacity:.59905659;stroke:none"/></g><g id="kpackagekit-security"><g id="g4225"><path id="path4185" d="m 29,7 -3,3 0,9 5.099609,0 L 35,19 l 5.099609,0 0,-9 -3,-3 L 35,7 31.099609,7 Z m 0.3,1 3.7,0 3.7,0 2,2 -11.4,0 z m 1.7,3 4,0 0,5 -1,-1 -1,1 -1,-1 -1,1 z" class="ColorScheme-Text" style="fill:currentColor;fill-rule:evenodd;stroke:none;stroke-width:1px;stroke-linecap:butt;stroke-linejoin:miter;stroke-opacity:1"/><path style="fill:#fdbc4b;fill-opacity:1;fill-rule:evenodd;stroke:none;stroke-width:1px;stroke-linecap:butt;stroke-linejoin:miter;stroke-opacity:1" id="path4191" d="m 38,3 c 0,1 -2,1 -2,1 l 0,3 c 0,1 1,1 2,2 1,-1 2,-1 2,-2 l 0,-3 c 0,0 -2,0 -2,-1 z"/></g><rect style="opacity:1;fill:none;fill-opacity:.59905659;stroke:none" id="rect4208" width="22" height="22" x="22" y="0"/></g><g id="kpackagekit-updates"><g id="g4220"><path style="fill:currentColor;fill-rule:evenodd;stroke:none;stroke-width:1px;stroke-linecap:butt;stroke-linejoin:miter;stroke-opacity:1" id="path4149" d="M 7,7 4,10 4,19 9.0996094,19 13,19 l 5.099609,0 0,-9 -3,-3 L 13,7 9.0996094,7 Z m 0.3,1 3.7,0 3.7,0 2,2 -11.4,0 z m 1.7,3 4,0 0,5 -1,-1 -1,1 -1,-1 -1,1 z" class="ColorScheme-Text"/><path style="opacity:1;fill:#2ecc71;fill-opacity:1;stroke:none" id="path4180" d="M 16,3 A 3,3 0 0 0 13,6 3,3 0 0 0 16,9 3,3 0 0 0 19,6 3,3 0 0 0 16,3 Z"/><path style="opacity:1;fill:currentColor;fill-opacity:1;stroke:none" id="path4167" d="m 16,4 2,2 -1,0 0,2 -2,0 0,-2 -1,0 1,-1 1,-1 z" class="ColorScheme-Background"/></g><rect style="opacity:1;fill:none;fill-opacity:.59905659;stroke:none" id="rect4212" width="22" height="22" x="0" y="0"/></g><g id="kpackagekit-inactive"><path style="fill:currentColor;fill-rule:evenodd;stroke:none;stroke-width:1px;stroke-linecap:butt;stroke-linejoin:miter;stroke-opacity:1" id="path4204" d="m -15,7 -3,3 0,9 5.099609,0 L -9,19 l 5.099609,0 0,-9 -3,-3 L -9,7 -12.900391,7 Z m 0.3,1 3.7,0 3.7,0 2,2 -11.4,0 z m 1.7,3 4,0 0,5 -1,-1 -1,1 -1,-1 -1,1 z" class="ColorScheme-Text"/><rect id="rect4214" width="22" height="22" x="-22" y="0" style="opacity:1;fill:none;fill-opacity:.59905659;stroke:none"/></g></svg>