<svg xmlns="http://www.w3.org/2000/svg" xmlns:svg="http://www.w3.org/2000/svg" xmlns:xlink="http://www.w3.org/1999/xlink" id="svg3294" width="24" height="24" version="1.0"><defs id="defs8"><linearGradient id="linearGradient4087"><stop id="stop4089" offset="0" style="stop-color:#e9dbd2;stop-opacity:1"/><stop id="stop4091" offset="1" style="stop-color:#e9dbd2;stop-opacity:0"/></linearGradient><linearGradient id="linearGradient4445"><stop style="stop-color:#000;stop-opacity:0" id="stop4447" offset="0"/><stop id="stop4453" offset=".5" style="stop-color:#000;stop-opacity:0"/><stop style="stop-color:#000;stop-opacity:.27450982" id="stop4449" offset="1"/></linearGradient><linearGradient id="linearGradient4364"><stop id="stop4366" offset="0" style="stop-color:#fff;stop-opacity:1"/><stop style="stop-color:#fff;stop-opacity:.78431374" id="stop4368" offset=".475"/><stop id="stop4370" offset=".849" style="stop-color:#fff;stop-opacity:.39215687"/><stop id="stop4372" offset="1" style="stop-color:#fff;stop-opacity:1"/></linearGradient><linearGradient id="linearGradient3141"><stop id="stop3143" offset="0" style="stop-color:#fff;stop-opacity:1"/><stop style="stop-color:#fff;stop-opacity:.78431374" id="stop3145" offset=".475"/><stop id="stop3147" offset=".849" style="stop-color:#fff;stop-opacity:.39215687"/><stop id="stop3149" offset="1" style="stop-color:#fff;stop-opacity:1"/></linearGradient><linearGradient id="linearGradient3140"><stop style="stop-color:#fff;stop-opacity:1" id="stop3142" offset="0"/><stop style="stop-color:#fff;stop-opacity:0" id="stop3144" offset="1"/></linearGradient><linearGradient id="linearGradient2949" x1="14.01" x2="14.01" y1="6" y2="10" gradientUnits="userSpaceOnUse" xlink:href="#linearGradient3140"/><linearGradient id="linearGradient3156"><stop style="stop-color:#fff;stop-opacity:1" id="stop3158" offset="0"/><stop style="stop-color:#fff;stop-opacity:0" id="stop3160" offset="1"/></linearGradient><radialGradient id="radialGradient3982" cx="11.55" cy="13.652" r="8.722" fx="11.55" fy="13.652" gradientTransform="matrix(0.70833333,0,0,0.73186232,56,0.38340295)" gradientUnits="userSpaceOnUse" xlink:href="#linearGradient4445"/></defs><metadata id="metadata15"/><g id="video-display-brightness"><rect style="opacity:.01000001;fill:#000;fill-opacity:.00392157;stroke:none" id="rect2991" width="24" height="24" x="0" y="0"/><path style="opacity:0;fill:#000;fill-opacity:0" id="path4-9" d="m 12,5 -1,3 h 2 z M 6.3438,7.3438 7.75,10.1562 9.1562,8.75 Z m 11.312,0 -2.812,1.4062 1.406,1.4062 z M 11.9996,9 c -2.2091,0 -4,1.7909 -4,4 0,2.2091 1.7909,4 4,4 2.2091,0 4,-1.7909 4,-4 0,-2.2091 -1.791,-4 -4,-4 z m 0,1.5 c 1.3807,0 2.5,1.1193 2.5,2.5 0,1.3807 -1.1193,2.5 -2.5,2.5 -1.3807,0 -2.5,-1.1193 -2.5,-2.5 0,-1.3807 1.1193,-2.5 2.5,-2.5 z m -5,1.5 -3,1 3,1 z m 10,0 v 2 l 3,-1 z M 7.7494,15.844 6.3432,18.656 9.1556,17.25 Z m 8.5,0 -1.4062,1.4062 2.8125,1.4062 -1.406,-2.812 z m -5.25,2.156 1,3 1,-3 z"/><path style="fill:#363636;fill-opacity:1" id="path4" d="m 12,4 -1,3 h 2 z M 6.3438,6.3438 7.75,9.1562 9.1562,7.75 Z m 11.312,0 -2.812,1.4062 1.406,1.4062 z M 11.9996,8 c -2.2091,0 -4,1.7909 -4,4 0,2.2091 1.7909,4 4,4 2.2091,0 4,-1.7909 4,-4 0,-2.2091 -1.791,-4 -4,-4 z m 0,1.5 c 1.3807,0 2.5,1.1193 2.5,2.5 0,1.3807 -1.1193,2.5 -2.5,2.5 -1.3807,0 -2.5,-1.1193 -2.5,-2.5 0,-1.3807 1.1193,-2.5 2.5,-2.5 z m -5,1.5 -3,1 3,1 z m 10,0 v 2 l 3,-1 z M 7.7494,14.844 6.3432,17.656 9.1556,16.25 Z m 8.5,0 -1.4062,1.4062 2.8125,1.4062 -1.406,-2.812 z m -5.25,2.156 1,3 1,-3 z"/></g></svg>