<svg xmlns="http://www.w3.org/2000/svg" xmlns:svg="http://www.w3.org/2000/svg" id="svg35" width="24" height="16" version="1.1" viewBox="0 0 24 16"><metadata id="metadata39"/><defs id="defs3"><style id="current-color-scheme" type="text/css">.ColorScheme-Text{color:#31363b}.ColorScheme-NegativeText{color:#da4453}</style></defs><g id="edit-delete" transform="matrix(.72727 0 0 .72727 -237.09 -388.63)"><rect id="rect5" width="22" height="22" x="326" y="534.36" fill="none"/><circle id="circle7" cx="277.56" cy="-509.56" r="0"/><path id="path9" fill="currentColor" d="m337 535.74a9.625 9.625 0 0 0-9.625 9.625 9.625 9.625 0 0 0 9.625 9.625 9.625 9.625 0 0 0 9.625-9.625 9.625 9.625 0 0 0-9.625-9.625zm-3.9619 4.8125 3.9619 3.9619 3.9619-3.9619 0.85065 0.85064-3.9619 3.9619 3.9619 3.9619-0.85065 0.85064-3.9619-3.9619-3.9619 3.9619-0.85063-0.85064 3.9618-3.9619-3.9618-3.9619 0.85063-0.85064z" class="ColorScheme-NegativeText" style="fill:#363636;fill-opacity:1"/><path id="path11" fill="#fff" fill-opacity=".712" d="m5.1191 4.5-0.61914 0.61914 2.8809 2.8809-2.8809 2.8809 0.61914 0.61914 2.8809-2.8809 2.8809 2.8809 0.61914-0.61914-2.8809-2.8809 2.8809-2.8809-0.61914-0.61914-2.8809 2.8809-2.8809-2.8809z" transform="matrix(1.375 0 0 1.375 326 534.36)"/></g><g id="window-pin" transform="translate(62,-36)"><rect id="rect14" width="8" height="8" x="-46" y="44" fill="none"/><path style="color:#363636;fill:currentColor;fill-opacity:1;stroke:none;stroke-width:.412533" id="path4" d="m -42.027512,45.179085 c -1.223368,0 -2.215106,0.859936 -2.215106,1.920716 0,1.060782 2.215106,4.225577 2.215106,4.225577 0,0 2.215106,-3.164795 2.215106,-4.225577 0,-1.06078 -0.991739,-1.920716 -2.215106,-1.920716 m 0,0.384143 a 1.772085,1.5365734 0 0 1 1.772085,1.536573 1.772085,1.5365734 0 0 1 -1.772085,1.536574 1.772085,1.5365734 0 0 1 -1.772085,-1.536574 1.772085,1.5365734 0 0 1 1.772085,-1.536573" class="ColorScheme-Text"/></g><g id="window-unpin" transform="translate(82,-44)"><rect id="rect21" width="8" height="8" x="-66" y="44" fill="none"/><path style="color:#363636;fill:#696969;fill-opacity:1;stroke:none;stroke-width:.412533" id="path4-6" d="m -62.019196,45.065022 c -1.223368,0 -2.215106,0.859936 -2.215106,1.920716 0,1.060782 2.215106,4.225577 2.215106,4.225577 0,0 2.215106,-3.164795 2.215106,-4.225577 0,-1.06078 -0.991739,-1.920716 -2.215106,-1.920716 m 0,0.384143 a 1.772085,1.5365734 0 0 1 1.772085,1.536573 1.772085,1.5365734 0 0 1 -1.772085,1.536574 1.772085,1.5365734 0 0 1 -1.772085,-1.536574 1.772085,1.5365734 0 0 1 1.772085,-1.536573" class="ColorScheme-Text"/></g><g id="window-list" transform="translate(-292 -542.36)"><rect id="rect24" width="32" height="32" x="286" y="561.36" opacity="0" ry="0"/><path id="path26" fill="currentColor" d="m-36 31v10h10v-10h-10zm1 1h8v8h-8v-8z" class="ColorScheme-Text" transform="translate(326 534.36)"/><path id="path28" fill="currentColor" d="m-22 31v10h10v-10h-10zm1 1h8v8h-8v-8z" class="ColorScheme-Text" transform="translate(326 534.36)"/><path id="path30" fill="currentColor" d="m-36 45v10h10v-10h-10zm1 1h8v8h-8v-8z" class="ColorScheme-Text" transform="translate(326 534.36)"/><path id="path32" fill="currentColor" d="m-22 45v10h10v-10h-10zm1 1h8v8h-8v-8z" class="ColorScheme-Text" transform="translate(326 534.36)"/></g></svg>