<svg xmlns="http://www.w3.org/2000/svg" xmlns:svg="http://www.w3.org/2000/svg" xmlns:xlink="http://www.w3.org/1999/xlink" id="svg99" width="128" height="128" version="1"><metadata id="metadata103"/><defs id="defs17"><linearGradient id="linearGradient4209"><stop style="stop-color:#000" id="stop2" offset="0"/><stop style="stop-color:#000;stop-opacity:0" id="stop4" offset="1"/></linearGradient><radialGradient id="radialGradient4201" cx="63.894" cy="61.058" r="9" fx="63.894" fy="61.058" gradientTransform="matrix(-6.1375001e-7,1.2222228,-1.2222222,-6.2559558e-7,142.62634,-21.09247)" gradientUnits="userSpaceOnUse" xlink:href="#linearGradient4209"/><radialGradient id="radialGradient4203" cx="-31.636" cy="8.519" r="8.182" fx="-31.636" fy="8.519" gradientTransform="matrix(0,1.44437,-0.99999988,0,-23.570787,54.693527)" gradientUnits="userSpaceOnUse" xlink:href="#linearGradient4209"/><radialGradient id="radialGradient4205" cx="27" cy="43.961" r="13" fx="27" fy="43.961" gradientTransform="matrix(6.1944048e-8,1.3846155,-1.1538462,5.1620032e-8,77.724382,12.61538)" gradientUnits="userSpaceOnUse" xlink:href="#linearGradient4209"/><radialGradient id="radialGradient4207" cx="-32.298" cy="8.715" r="8.125" fx="-32.298" fy="8.715" gradientTransform="matrix(0,1.3845518,-1,0,-23.375148,53.43377)" gradientUnits="userSpaceOnUse" xlink:href="#linearGradient4209"/><radialGradient id="radialGradient4231" cx="25.188" cy="82.744" r="13" fx="25.188" fy="82.744" gradientTransform="matrix(-9.7841381e-8,1.3846154,-1.2307694,-8.6970111e-8,127.83926,52.125005)" gradientUnits="userSpaceOnUse" xlink:href="#linearGradient4209"/><radialGradient id="radialGradient4233" cx="68" cy="90.554" r="9" fx="68" fy="90.554" gradientTransform="matrix(-1.0677655e-6,1.2222223,-1.2222218,-1.067765e-6,178.67723,10.888977)" gradientUnits="userSpaceOnUse" xlink:href="#linearGradient4209"/><radialGradient id="radialGradient4189" cx="25.188" cy="82.744" r="13" fx="25.188" fy="82.744" gradientTransform="matrix(-9.7841381e-8,1.3846154,-1.2307694,-8.6970111e-8,127.83926,51.125005)" gradientUnits="userSpaceOnUse" xlink:href="#linearGradient4209"/><radialGradient id="radialGradient4193" cx="27" cy="43.961" r="13" fx="27" fy="43.961" gradientTransform="matrix(6.1944048e-8,1.3846155,-1.1538462,5.1620032e-8,77.724382,11.61538)" gradientUnits="userSpaceOnUse" xlink:href="#linearGradient4209"/><radialGradient id="radialGradient4197" cx="63.894" cy="61.058" r="9" fx="63.894" fy="61.058" gradientTransform="matrix(-6.1375001e-7,1.2222228,-1.2222222,-6.2559558e-7,142.62634,-21.59247)" gradientUnits="userSpaceOnUse" xlink:href="#linearGradient4209"/><radialGradient id="radialGradient4202" cx="68" cy="90.554" r="9" fx="68" fy="90.554" gradientTransform="matrix(-1.0677655e-6,1.2222223,-1.2222218,-1.067765e-6,178.67723,10.388977)" gradientUnits="userSpaceOnUse" xlink:href="#linearGradient4209"/></defs><g id="normal" transform="matrix(1.6,0,0,1.6,78.344238,3.0559999)"><rect style="opacity:.001" id="rect19" width="20" height="20" x="-42.09" y="-1.91"/><circle style="fill:#000;fill-opacity:1;opacity:.5" id="circle23" cx="-32" cy="8" r="8" transform="matrix(1.015625,0,0,1.015625,0.4098513,-0.0349999)"/></g><g id="22-22-normal" transform="matrix(1.1,0,0,1.1,103.29917,13.101)"><rect style="opacity:.001" id="rect28" width="20" height="20" x="-42.09" y="-1.91"/><path style="fill:#000;fill-opacity:1;opacity:.5" id="path32" d="m -24,8 a 8,8 0 0 1 -8,8 8,8 0 0 1 -8,-8 8,8 0 0 1 8,-8 8,8 0 0 1 8,8 z" transform="matrix(1.0227273,0,0,1.0227273,0.63711821,-0.0918182)"/></g><g id="pressed" transform="matrix(1.6,0,0,1.6,156.344,16.056)"><rect style="opacity:.001" id="rect37" width="20" height="20" x="-42.09" y="-1.91"/><circle style="fill:#4285f4" id="circle39" cx="-32" cy="8" r="8" transform="matrix(1.015625,0,0,1.015625,0.4098513,-0.0349999)"/></g><g id="22-22-pressed" transform="matrix(1.1,0,0,1.1,141.299,56.101)"><rect style="opacity:.001" id="rect42" width="20" height="20" x="-42.09" y="-1.91"/><path style="fill:#4285f4" id="path44" d="m -24,8 a 8,8 0 0 1 -8,8 8,8 0 0 1 -8,-8 8,8 0 0 1 8,-8 8,8 0 0 1 8,8 z" transform="matrix(1.0227273,0,0,1.0227273,0.63711821,-0.0918182)"/></g><g id="hover"><rect style="opacity:.001" id="rect47" width="32" height="32" x="11" y="34"/><path style="opacity:.001;fill:#fff" id="path51" d="M 27,37 A 13,13 0 0 0 14,50 13,13 0 0 0 14.021484,50.580078 13,13 0 0 1 27,38 13,13 0 0 1 39.978516,50.419922 13,13 0 0 0 40,50 13,13 0 0 0 27,37 Z"/><circle style="fill:#000;fill-opacity:1;opacity:.5" id="circle55" cx="27" cy="50" r="13"/></g><g id="focus"><rect style="opacity:.001" id="rect62" width="32" height="32" x="11" y="71"/><path style="opacity:.001;fill:#fff" id="path64" d="M 27,74 A 13,13 0 0 0 14,87 13,13 0 0 0 14.021484,87.580078 13,13 0 0 1 27,75 13,13 0 0 1 39.978516,87.419922 13,13 0 0 0 40,87 13,13 0 0 0 27,74 Z"/><circle style="fill:#000;fill-opacity:1;opacity:.35" id="circle68" cx="27" cy="87" r="13"/></g><g id="22-22-hover"><rect style="opacity:.001" id="rect73" width="22" height="22" x="57" y="45"/><path style="opacity:.001;fill:#fff" id="path77" d="m 68,47 a 9.0000002,9.0000002 0 0 0 -9,9 9.0000002,9.0000002 0 0 0 0.0098,0.287109 A 9.0000002,9.0000002 0 0 1 68,47.5 9.0000002,9.0000002 0 0 1 76.990234,56.212891 9.0000002,9.0000002 0 0 0 77,56 9.0000002,9.0000002 0 0 0 68,47 Z"/><circle style="fill:#000;fill-opacity:1;opacity:.5" id="circle81" cx="68" cy="56" r="9"/></g><g id="22-22-focus"><rect style="opacity:.001" id="rect86" width="22" height="22" x="57" y="82"/><path style="opacity:.001;fill:#fff" id="path90" d="m 68,84 a 9.0000002,9.0000002 0 0 0 -9,9 9.0000002,9.0000002 0 0 0 0.0098,0.287109 A 9.0000002,9.0000002 0 0 1 68,84.5 9.0000002,9.0000002 0 0 1 76.990234,93.212891 9.0000002,9.0000002 0 0 0 77,93 9.0000002,9.0000002 0 0 0 68,84 Z"/><circle style="fill:#000;fill-opacity:1;opacity:.35" id="circle94" cx="68" cy="93" r="9"/></g></svg>