<svg xmlns="http://www.w3.org/2000/svg" xmlns:svg="http://www.w3.org/2000/svg" id="svg25" width="44" height="44" version="1.1" viewBox="0 0 12 12"><metadata id="metadata29"/><defs id="defs3"><style id="current-color-scheme" type="text/css">.ColorScheme-Text{color:#363636}</style></defs><g id="up-arrow" fill="currentColor" class="ColorScheme-Text" transform="translate(-11.642 -254.94)"><rect id="rect5" width="3.704" height="3.704" x="254.93" y="15.61" fill="none" transform="matrix(0,1,1,0,0,0)"/><path id="path7" d="m17.462 256.25-1.0583 1.0583h2.1167l-1.0583-1.0583z"/></g><g id="down-arrow" fill="currentColor" class="ColorScheme-Text" transform="matrix(1 0 0 -1 -11.642 266.57)"><rect id="rect10" width="3.704" height="3.704" x="254.93" y="15.61" fill="none" transform="matrix(0,1,1,0,0,0)"/><path id="path12" d="m17.462 256.25-1.0583 1.0583h2.1167l-1.0583-1.0583z"/></g><g id="right-arrow" fill="currentColor" class="ColorScheme-Text" transform="rotate(90 139.11 127.46)"><rect id="rect15" width="3.704" height="3.704" x="254.93" y="15.61" fill="none" transform="matrix(0,1,1,0,0,0)"/><path id="path17" d="m17.462 256.25-1.0583 1.0583h2.1167l-1.0583-1.0583z"/></g><g id="left-arrow" fill="currentColor" class="ColorScheme-Text" transform="matrix(0 1 1 0 -254.93 -11.65)"><rect id="rect20" width="3.704" height="3.704" x="254.93" y="15.61" fill="none" transform="matrix(0,1,1,0,0,0)"/><path id="path22" d="m17.462 256.25-1.0583 1.0583h2.1167l-1.0583-1.0583z"/></g></svg>