<svg xmlns="http://www.w3.org/2000/svg" xmlns:svg="http://www.w3.org/2000/svg" id="svg31" width="30" height="30" version="1.1" viewBox="0 0 30 30"><metadata id="metadata35"/><defs id="defs3"><style id="current-color-scheme" type="text/css">.ColorScheme-Highlight{color:#3daee9;stop-color:#3daee9}</style></defs><rect style="fill:#ff2a2a" id="hint-tile-center" width="4" height="4" x="0" y="0"/><rect style="fill:#ff2a2a" id="hint-bar-size" width="6" height="6" x="6" y="0"/><path style="fill:#363636;opacity:.3;fill-opacity:.30000001" id="bar-inactive-bottomright" d="m 17,15 v 3 c 1.662,0 3,-1.338 3,-3 z"/><path style="fill:#363636;opacity:.3;fill-opacity:.30000001" id="bar-inactive-right" d="m 17,12 v 2 h 3 v -2 z"/><path style="fill:#363636;opacity:.3;fill-opacity:.30000001" id="bar-inactive-topright" d="m 17,8 v 3 h 3 C 20,9.338 18.662,8 17,8 Z"/><path style="fill:#363636;opacity:.3;fill-opacity:.30000001" id="bar-inactive-bottomleft" d="m 10,15 c 0,1.662 1.338,3 3,3 v -3 z"/><path style="fill:#363636;opacity:.3;fill-opacity:.30000001" id="bar-inactive-left" d="m 10,12 v 2 h 3 v -2 z"/><path style="fill:#363636;opacity:.3;fill-opacity:.30000001" id="bar-inactive-topleft" d="m 13,8 c -1.662,0 -3,1.338 -3,3 h 3 z"/><path style="fill:#363636;opacity:.3;fill-opacity:.30000001" id="bar-inactive-bottom" d="m 14,15 v 3 h 2 v -3 z"/><path style="fill:#363636;opacity:.3;fill-opacity:.30000001" id="bar-inactive-center" d="m 16,12 h -2 v 2 h 2 z"/><path style="fill:#363636;opacity:.3;fill-opacity:.30000001" id="bar-inactive-top" d="m 14,8 v 3 h 2 V 8 Z"/><path id="bar-active-bottomright" d="m 17,27 v 3 c 1.662,0 3,-1.338 3,-3 z" class="ColorScheme-Highlight" style="color:#3daee9;fill:#363636;fill-opacity:1"/><path id="bar-active-right" d="m 17,24 v 2 h 3 v -2 z" class="ColorScheme-Highlight" style="color:#3daee9;fill:#363636;fill-opacity:1"/><path id="bar-active-topright" d="m 17,20 v 3 h 3 c 0,-1.662 -1.338,-3 -3,-3 z" class="ColorScheme-Highlight" style="color:#3daee9;fill:#363636;fill-opacity:1"/><path id="bar-active-bottomleft" d="m 10,27 c 0,1.662 1.338,3 3,3 v -3 z" class="ColorScheme-Highlight" style="color:#3daee9;fill:#363636;fill-opacity:1"/><path id="bar-active-left" d="m 10,24 v 2 h 3 v -2 z" class="ColorScheme-Highlight" style="color:#3daee9;fill:#363636;fill-opacity:1"/><path id="bar-active-topleft" d="m 13,20 c -1.662,0 -3,1.338 -3,3 h 3 z" class="ColorScheme-Highlight" style="color:#3daee9;fill:#363636;fill-opacity:1"/><path id="bar-active-bottom" d="m 14,27 v 3 h 2 v -3 z" class="ColorScheme-Highlight" style="color:#3daee9;fill:#363636;fill-opacity:1"/><path id="bar-active-center" d="m 16,24 h -2 v 2 h 2 z" class="ColorScheme-Highlight" style="color:#3daee9;fill:#363636;fill-opacity:1"/><path id="bar-active-top" d="m 14,20 v 3 h 2 v -3 z" class="ColorScheme-Highlight" style="color:#3daee9;fill:#363636;fill-opacity:1"/></svg>