<svg xmlns="http://www.w3.org/2000/svg" xmlns:osb="http://www.openswatchbook.org/uri/2009/osb" xmlns:svg="http://www.w3.org/2000/svg" id="svg2" width="34" height="16" version="1.1" viewBox="0 0 34 16"><defs id="defs4"><style id="current-color-scheme" type="text/css"/><linearGradient id="selected_bg_color" osb:paint="solid"><stop id="stop24" offset="0" stop-color="#5683fa"/></linearGradient><linearGradient id="selected_fg_color" osb:paint="solid"><stop id="stop21" offset="0" stop-color="#ffffffgit"/></linearGradient><filter id="br" style="color-interpolation-filters:sRGB"><feFlood id="feFlood106" flood-color="#000" flood-opacity=".498" result="flood"/><feComposite id="feComposite108" in="flood" in2="SourceGraphic" operator="in" result="composite1"/><feGaussianBlur id="feGaussianBlur110" in="composite1" result="blur"/><feOffset id="feOffset112" dx="0" dy=".5" result="offset"/><feComposite id="feComposite114" in="SourceGraphic" in2="offset" result="composite2"/></filter><filter id="bm" style="color-interpolation-filters:sRGB"><feFlood id="feFlood93" flood-color="#000" flood-opacity=".353" result="flood"/><feComposite id="feComposite95" in="flood" in2="SourceGraphic" operator="in" result="composite1"/><feGaussianBlur id="feGaussianBlur97" in="composite1" result="blur"/><feOffset id="feOffset99" dx="0" dy=".5" result="offset"/><feComposite id="feComposite101" in="SourceGraphic" in2="offset" result="composite2"/></filter></defs><metadata id="metadata7"/><g id="layer1" transform="translate(0,-904.36218)"><g id="checkbox" transform="translate(-20.000002,904.00018)"><g id="g660" transform="translate(19)"><g id="g658" transform="translate(0,-30)"><rect id="rect654" width="16" height="16" x="17" y="30.362" style="color:#000;fill:none"/><rect id="rect656" width="14" height="14" x="18" y="31.362" rx="2" ry="2" style="color:#000;fill:#5683fa;stroke-width:0;fill-opacity:1"/></g></g><g id="g672" transform="translate(36,-1036)"><g id="g670" transform="rotate(45,7.5,1026.4)"><g id="g668" transform="translate(12.374,11.531)"><g id="g664" transform="translate(-3,-5)" style="fill:#3b3c3e"><path id="path662" d="m 33.277,15.869 c -0.24853,0 -0.49706,0.09472 -0.6875,0.28516 l -3.5547,3.5547 -1.4316,-1.4297 c -0.38234,-0.38234 -1.0048,-0.37611 -1.3965,0.01563 -0.39173,0.39173 -0.39992,1.0161 -0.01758,1.3984 l 2.1191,2.1172 0.03911,0.03911 c 0.38088,0.38088 0.99412,0.38088 1.375,0 l 0.01953,-0.01953 4.2637,-4.2617 c 0.38088,-0.38088 0.38088,-0.99412 0,-1.375 l -0.04102,-0.03906 c -0.19044,-0.19044 -0.43897,-0.28516 -0.6875,-0.28516 z" transform="rotate(-45,1243.6,548.31)" style="fill:#fff;filter:url(#br)"/></g><rect id="rect666" width="3" height="1" x="5" y="-8" transform="translate(0,1036.4)" style="fill-opacity:0"/></g></g></g></g><g id="radiobutton" transform="translate(-115.99892,903.99797)"><g id="g714" transform="translate(19.004,-4.6993e-6)"><g id="g712" transform="matrix(0.93617,0,0,0.93566,-96.783,-244.76)"><rect id="rect706" width="17.091" height="17.1" x="206.99" y="261.98" style="color:#000;fill:none"/><g id="g710" transform="matrix(0.50892,0,0,0.5174,181.79,197.56)"><rect id="rect708" width="29.385" height="28.919" x="51.611" y="126.56" rx="14.692" ry="14.46" style="color:#000;fill:#5683fa;stroke-width:0;fill-opacity:1"/></g></g></g><rect id="rect716" width="4" height="4" x="122" y="6.362" rx="1.999" ry="2" style="color:#000;fill:#fff;filter:url(#bm)"/></g></g></svg>