<svg xmlns="http://www.w3.org/2000/svg" xmlns:svg="http://www.w3.org/2000/svg" xmlns:xlink="http://www.w3.org/1999/xlink" id="svg2" width="17" height="57" version="1.0"><metadata id="metadata7"/><defs id="defs5"><linearGradient id="linearGradient4119"><stop id="stop4121" offset="0" style="stop-color:#3daee9;stop-opacity:.40000001"/><stop id="stop4123" offset="1" style="stop-color:#3daee9;stop-opacity:0"/></linearGradient><linearGradient id="linearGradient4079"><stop style="stop-color:#3daee9;stop-opacity:.80000001" id="stop4081" offset="0"/><stop style="stop-color:#3daee9;stop-opacity:0" id="stop4083" offset="1"/></linearGradient><linearGradient id="linearGradient3990"><stop id="stop3992" offset="0" style="stop-color:#232629;stop-opacity:.2"/><stop id="stop3994" offset="1" style="stop-color:#232629;stop-opacity:0"/></linearGradient><linearGradient id="linearGradient6038"><stop id="stop6040" offset="0" style="stop-color:#0626a8;stop-opacity:.79607844"/><stop id="stop6042" offset="1" style="stop-color:#0626a8;stop-opacity:0"/></linearGradient><linearGradient id="linearGradient5085"><stop style="stop-color:#71dbff;stop-opacity:.58823532" id="stop5087" offset="0"/><stop style="stop-color:#71dbff;stop-opacity:0" id="stop5089" offset="1"/></linearGradient><linearGradient id="linearGradient4932"><stop id="stop4934" offset="0" style="stop-color:#000;stop-opacity:.00392157"/><stop id="stop4936" offset="1" style="stop-color:#000;stop-opacity:0"/></linearGradient><linearGradient id="linearGradient8746"><stop style="stop-color:#fff;stop-opacity:.83464569" id="stop8748" offset="0"/><stop style="stop-color:#fff;stop-opacity:.43307087" id="stop8750" offset="1"/></linearGradient><linearGradient id="linearGradient8734"><stop style="stop-color:#fff;stop-opacity:1" id="stop8736" offset="0"/><stop style="stop-color:#fff;stop-opacity:0" id="stop8738" offset="1"/></linearGradient><radialGradient id="radialGradient4717" cx="354.308" cy="132.718" r="70" fx="356.927" fy="134.421" gradientTransform="matrix(0.9448618,0,0,0.2065601,-7.370926,65.82164)" gradientUnits="userSpaceOnUse" xlink:href="#linearGradient8734"/><radialGradient id="radialGradient4729" cx="354.308" cy="132.718" r="70" fx="356.927" fy="134.421" gradientTransform="matrix(3.6063428e-2,0,0,0.2065601,253.64233,65.82164)" gradientUnits="userSpaceOnUse" xlink:href="#linearGradient8734"/><mask id="mask3902" maskUnits="userSpaceOnUse"><rect style="fill:#fff;fill-opacity:1;fill-rule:nonzero;stroke:none" id="rect3904" width="32" height="17" x="-55" y="10" rx="2.077" ry="2.077"/></mask><linearGradient id="linearGradient5007" x1="333.514" x2="333.514" y1="149.986" y2="210.103" gradientTransform="translate(-285,-161)" gradientUnits="userSpaceOnUse" xlink:href="#linearGradient8746"/><radialGradient id="radialGradient5009" cx="355.5" cy="231.102" r="70" fx="355.5" fy="231.102" gradientTransform="matrix(1.7796094,-1.5772391e-7,2.5458663e-8,0.2845765,-562.13461,-41.27396)" gradientUnits="userSpaceOnUse" xlink:href="#linearGradient8734"/><radialGradient id="radialGradient5011" cx="354.308" cy="132.718" r="70" fx="356.927" fy="134.421" gradientTransform="matrix(0.9448618,0,0,0.2065601,-266.37093,-33.17836)" gradientUnits="userSpaceOnUse" xlink:href="#linearGradient8734"/><linearGradient id="linearGradient5614" x1="34" x2="34" y1="27" y2="36" gradientUnits="userSpaceOnUse" xlink:href="#linearGradient5085"/><linearGradient id="linearGradient5616" x1="34" x2="34" y1="27" y2="36" gradientUnits="userSpaceOnUse" xlink:href="#linearGradient5085"/><linearGradient id="linearGradient4117" x1="186" x2="186" y1="-35" y2="-33" gradientUnits="userSpaceOnUse" xlink:href="#linearGradient4119"/><style id="current-color-scheme" type="text/css"/><linearGradient id="linearGradient4932-7"><stop id="stop4934-5" offset="0" style="stop-color:#000;stop-opacity:.25098041"/><stop id="stop4936-1" offset="1" style="stop-color:#000;stop-opacity:0"/></linearGradient><linearGradient id="linearGradient4932-6"><stop id="stop4934-1" offset="0" style="stop-color:#000;stop-opacity:.25098041"/><stop id="stop4936-2" offset="1" style="stop-color:#000;stop-opacity:0"/></linearGradient></defs><rect style="opacity:1;fill:#4e9a06;fill-opacity:1;fill-rule:nonzero;stroke:none;stroke-width:6;stroke-linecap:round;stroke-linejoin:round;stroke-miterlimit:4;stroke-dasharray:none;stroke-dashoffset:0;stroke-opacity:1" id="hint-tile-center" width="2.033" height="2.077" x="1.967" y="5" rx="0" ry="2.077"/><rect style="opacity:.98999999;fill:#4e9a06;fill-opacity:1;fill-rule:nonzero;stroke:none" id="hint-focus-over-base" width="2.033" height="2.077" x="1.967" y="11" rx="0" ry="2.077"/><path id="hover-center" d="m 51.000032,64.100072 v 35.999918 h 48 V 64.100072 Z" class="ColorScheme-Highlight" style="color:#3daee6;opacity:.06;fill:#000;stroke-width:.86602437"/><g style="opacity:1" id="hover-topleft" transform="translate(-140.14,-766.86)"><path id="path5201" d="m 190.14,824.86 c -2.77,0 -5,2.23 -5,5 h 5 z" style="color:#3daee6;opacity:.06;fill:#000;stroke-width:1.25000024"/><path id="path2151" d="m 109,65 c -3.324,0 -6,2.676 -6,6 h 2 c 0,-2.216 1.784,-4 4,-4 z" transform="translate(81.139996,758.86)" style="color:#3daee6;opacity:1;fill:none;stroke-width:1.5"/><path id="path10-91" d="m 109,66 c -2.77,0 -5,2.23 -5,5 h 2 c 0,-1.662 1.338,-3 3,-3 z" transform="translate(81.139996,758.86)" style="color:#3daee6;opacity:1;fill:#8ab4f8;fill-opacity:1;stroke-width:1.25"/></g><g style="opacity:1" id="hover-top" transform="matrix(0.3664122,0,0,0.99999999,-18.669587,-766.85996)"><path id="path13-26" d="m 190.14,825.86 v 4 h 131 v -4 z" class="ColorScheme-Highlight" style="color:#3daee6;opacity:.06;fill:#000"/><path style="color:#3daee6;opacity:1;fill:none;stroke-width:.70711237" id="path2149" d="M 190.14,823.85997 V 825.86 h 131 v -2.00003 z" class="ColorScheme-Highlight"/><path id="path4403" d="m 190.14,824.85994 v 2.00003 h 131 v -2.00003 z" class="ColorScheme-Highlight" style="color:#3daee6;opacity:1;fill:#8ab4f8;fill-opacity:1;stroke-width:.70711237"/></g><use id="hover-topright" width="100%" height="100%" x="0" y="0" transform="matrix(-1,0,0,1,150,-2.385998e-7)" xlink:href="#hover-topleft"/><use id="hover-left" width="100%" height="100%" x="0" y="0" transform="matrix(0,-0.74999998,1,0,-13.000019,138.35001)" xlink:href="#hover-top"/><use id="hover-right" width="100%" height="100%" x="0" y="0" transform="matrix(0,0.74999992,-1,0,163.00002,25.849979)" xlink:href="#hover-top"/><use id="hover-bottom" width="100%" height="100%" x="0" y="0" transform="matrix(1,0,0,-1,-2.4e-5,164.10002)" xlink:href="#hover-top"/><use id="hover-bottomleft" width="100%" height="100%" x="0" y="0" transform="matrix(1,0,0,-1,-4e-6,164.09999)" xlink:href="#hover-topleft"/><use id="hover-bottomright" width="100%" height="100%" x="0" y="0" transform="rotate(-180,75.000002,82.049992)" xlink:href="#hover-topleft"/><path id="focus-center" d="m 127.00004,64.00007 v 35.999922 h 48 V 64.00007 Z" class="ColorScheme-Highlight" style="color:#3daee6;opacity:.06;fill:#000;stroke-width:.8660242"/><g style="opacity:1" id="focus-topleft" transform="translate(-64.139996,-766.86)"><path id="path5201-5" d="m 190.14,824.86 c -2.77,0 -5,2.23 -5,5 h 5 z" style="color:#3daee6;opacity:.06;fill:#000;stroke-width:1.25000024"/><path id="path2151-9" d="m 109,65 c -3.324,0 -6,2.676 -6,6 h 2 c 0,-2.216 1.784,-4 4,-4 z" transform="translate(81.139996,758.86)" style="color:#3daee6;opacity:1;fill:none;stroke-width:1.5"/><path id="path10-91-4" d="m 109,66 c -2.77,0 -5,2.23 -5,5 h 2 c 0,-1.662 1.338,-3 3,-3 z" transform="translate(81.139996,758.86)" style="color:#3daee6;opacity:1;fill:#1a73e8;fill-opacity:1;stroke-width:1.25"/></g><g style="opacity:1" id="focus-top" transform="matrix(0.3664122,0,0,0.99999999,57.330404,-766.85996)"><path id="path13-26-7" d="m 190.14,825.86 v 4 h 131 v -4 z" class="ColorScheme-Highlight" style="color:#3daee6;opacity:.06;fill:#000"/><path style="color:#3daee6;opacity:1;fill:none;stroke-width:.70711237" id="path2149-6" d="M 190.14,823.85997 V 825.86 h 131 v -2.00003 z" class="ColorScheme-Highlight"/><path id="path4403-5" d="m 190.14,824.85994 v 2.00003 h 131 v -2.00003 z" class="ColorScheme-Highlight" style="color:#3daee6;opacity:1;fill:#1a73e8;fill-opacity:1;stroke-width:.70711237"/></g><g id="focus-topright" transform="matrix(-0.99999999,0,0,0.99999999,366.14,-766.86001)" style="opacity:1"><path style="color:#3daee6;opacity:.06;fill:#000;stroke-width:1.25000024" id="path1691" d="m 190.14,824.86 c -2.77,0 -5,2.23 -5,5 h 5 z"/><path style="color:#3daee6;opacity:1;fill:none;stroke-width:1.5" id="path1693" d="m 109,65 c -3.324,0 -6,2.676 -6,6 h 2 c 0,-2.216 1.784,-4 4,-4 z" transform="translate(81.139996,758.86)"/><path style="color:#3daee6;opacity:1;fill:#1a73e8;fill-opacity:1;stroke-width:1.25" id="path1695" d="m 109,66 c -2.77,0 -5,2.23 -5,5 h 2 c 0,-1.662 1.338,-3 3,-3 z" transform="translate(81.139996,758.86)"/></g><g id="focus-left" transform="matrix(0,-0.27480905,0.99999999,0,-703.85997,152.25217)" style="opacity:1"><path style="color:#3daee6;opacity:.06;fill:#000" id="path1675" d="m 190.14,825.86 v 4 h 131 v -4 z" class="ColorScheme-Highlight"/><path id="path1677" d="M 190.14,823.85997 V 825.86 h 131 v -2.00003 z" class="ColorScheme-Highlight" style="color:#3daee6;opacity:1;fill:none;stroke-width:.70711237"/><path style="color:#3daee6;opacity:1;fill:#1a73e8;fill-opacity:1;stroke-width:.70711237" id="path1679" d="m 190.14,824.85994 v 2.00003 h 131 v -2.00003 z" class="ColorScheme-Highlight"/></g><g id="focus-right" transform="matrix(0,0.27480899,-0.99999999,0,1005.8599,11.747822)" style="opacity:1"><path style="color:#3daee6;opacity:.06;fill:#000" id="path1683" d="m 190.14,825.86 v 4 h 131 v -4 z" class="ColorScheme-Highlight"/><path id="path1685" d="M 190.14,823.85997 V 825.86 h 131 v -2.00003 z" class="ColorScheme-Highlight" style="color:#3daee6;opacity:1;fill:none;stroke-width:.70711237"/><path style="color:#3daee6;opacity:1;fill:#1a73e8;fill-opacity:1;stroke-width:.70711237" id="path1687" d="m 190.14,824.85994 v 2.00003 h 131 v -2.00003 z" class="ColorScheme-Highlight"/></g><g id="focus-bottom" transform="matrix(0.3664122,0,0,-0.99999999,57.330384,930.85995)" style="opacity:1"><path style="color:#3daee6;opacity:.06;fill:#000" id="path1657" d="m 190.14,825.86 v 4 h 131 v -4 z" class="ColorScheme-Highlight"/><path id="path1659" d="M 190.14,823.85997 V 825.86 h 131 v -2.00003 z" class="ColorScheme-Highlight" style="color:#3daee6;opacity:1;fill:none;stroke-width:.70711237"/><path style="color:#3daee6;opacity:1;fill:#1a73e8;fill-opacity:1;stroke-width:.70711237" id="path1661" d="m 190.14,824.85994 v 2.00003 h 131 v -2.00003 z" class="ColorScheme-Highlight"/></g><g id="focus-bottomleft" transform="matrix(0.99999999,0,0,-0.99999999,-64.139996,930.85995)" style="opacity:1"><path style="color:#3daee6;opacity:.06;fill:#000;stroke-width:1.25000024" id="path1665" d="m 190.14,824.86 c -2.77,0 -5,2.23 -5,5 h 5 z"/><path style="color:#3daee6;opacity:1;fill:none;stroke-width:1.5" id="path1667" d="m 109,65 c -3.324,0 -6,2.676 -6,6 h 2 c 0,-2.216 1.784,-4 4,-4 z" transform="translate(81.139996,758.86)"/><path style="color:#3daee6;opacity:1;fill:#1a73e8;fill-opacity:1;stroke-width:1.25" id="path1669" d="m 109,66 c -2.77,0 -5,2.23 -5,5 h 2 c 0,-1.662 1.338,-3 3,-3 z" transform="translate(81.139996,758.86)"/></g><g id="focus-bottomright" transform="rotate(180,183.07001,465.42998)" style="opacity:1"><path style="color:#3daee6;opacity:.06;fill:#000;stroke-width:1.25000024" id="path1647" d="m 190.14,824.86 c -2.77,0 -5,2.23 -5,5 h 5 z"/><path style="color:#3daee6;opacity:1;fill:none;stroke-width:1.5" id="path1649" d="m 109,65 c -3.324,0 -6,2.676 -6,6 h 2 c 0,-2.216 1.784,-4 4,-4 z" transform="translate(81.139996,758.86)"/><path style="color:#3daee6;opacity:1;fill:#1a73e8;fill-opacity:1;stroke-width:1.25" id="path1651" d="m 109,66 c -2.77,0 -5,2.23 -5,5 h 2 c 0,-1.662 1.338,-3 3,-3 z" transform="translate(81.139996,758.86)"/></g><path id="base-center" d="M 51.00003,-5.999886 V 30.000036 H 99.00005 V -5.999886 Z" class="ColorScheme-Highlight" style="color:#3daee6;opacity:.06;fill:#000;stroke-width:.8660242"/><g style="opacity:1" id="base-topleft" transform="translate(-140.13999,-836.85996)"><path id="path5201-0" d="m 190.14,824.85996 c -2.77002,0 -5.00004,2.23002 -5.00004,5.00004 H 190.14 Z" style="color:#3daee6;opacity:.06;fill:#000;stroke-width:1.25001156"/><path id="path2151-5" d="m 109,65 c -3.324,0 -6,2.676 -6,6 h 2 c 0,-2.216 1.784,-4 4,-4 z" transform="translate(81.139996,758.86)" style="color:#3daee6;opacity:1;fill:none;stroke-width:1.5"/><path id="path10-91-2" d="m 109,66 c -2.77,0 -5,2.23 -5,5 h 2 c 0,-1.662 1.338,-3 3,-3 z" transform="translate(81.139996,758.86)" style="color:#3daee6;opacity:1;fill:none;fill-opacity:1;stroke-width:1.25"/></g><g style="opacity:1" id="base-top" transform="matrix(0.3664122,0,0,0.99999999,-18.669598,-836.85992)"><path id="path13-26-0" d="M 190.14,824.85993 V 829.86 h 131 v -5.00007 z" class="ColorScheme-Highlight" style="color:#3daee6;opacity:.06;fill:#000;stroke-width:1.11804199"/><path style="color:#3daee6;opacity:1;fill:none;stroke-width:.70711237" id="path2149-4" d="M 190.14,823.85997 V 825.86 h 131 v -2.00003 z" class="ColorScheme-Highlight"/><path id="path4403-9" d="m 190.14,824.85994 v 2.00003 h 131 v -2.00003 z" class="ColorScheme-Highlight" style="color:#3daee6;opacity:1;fill:none;fill-opacity:1;stroke-width:.70711237"/></g><g id="base-topright" transform="matrix(-0.99999999,0,0,0.99999999,290.14001,-836.85997)" style="opacity:1"><path style="color:#3daee6;opacity:.06;fill:#000;stroke-width:1.25000465" id="path1691-2" d="m 190.14,824.85998 c -2.77001,0 -5.00002,2.23001 -5.00002,5.00002 H 190.14 Z"/><path style="color:#3daee6;opacity:1;fill:none;stroke-width:1.5" id="path1693-3" d="m 109,65 c -3.324,0 -6,2.676 -6,6 h 2 c 0,-2.216 1.784,-4 4,-4 z" transform="translate(81.139996,758.86)"/><path style="color:#3daee6;opacity:1;fill:none;fill-opacity:1;stroke-width:1.25" id="path1695-4" d="m 109,66 c -2.77,0 -5,2.23 -5,5 h 2 c 0,-1.662 1.338,-3 3,-3 z" transform="translate(81.139996,758.86)"/></g><g id="base-left" transform="matrix(0,-0.27480905,0.99999999,0,-779.85996,82.252215)" style="opacity:1"><path style="color:#3daee6;opacity:.06;fill:#000;stroke-width:1.11804068" id="path1675-1" d="M 190.14,824.85994 V 829.86 h 131 v -5.00006 z" class="ColorScheme-Highlight"/><path id="path1677-9" d="M 190.14,823.85997 V 825.86 h 131 v -2.00003 z" class="ColorScheme-Highlight" style="color:#3daee6;opacity:1;fill:none;stroke-width:.70711237"/><path style="color:#3daee6;opacity:1;fill:none;fill-opacity:1;stroke-width:.70711237" id="path1679-4" d="m 190.14,824.85994 v 2.00003 h 131 v -2.00003 z" class="ColorScheme-Highlight"/></g><g id="base-right" transform="matrix(0,0.27480899,-0.99999999,0,929.86,-58.25213)" style="opacity:1"><path style="color:#3daee6;opacity:.06;fill:#000;stroke-width:1.11804068" id="path1683-9" d="M 190.14,824.85994 V 829.86 h 131 v -5.00006 z" class="ColorScheme-Highlight"/><path id="path1685-8" d="M 190.14,823.85997 V 825.86 h 131 v -2.00003 z" class="ColorScheme-Highlight" style="color:#3daee6;opacity:1;fill:none;stroke-width:.70711237"/><path style="color:#3daee6;opacity:1;fill:none;fill-opacity:1;stroke-width:.70711237" id="path1687-6" d="m 190.14,824.85994 v 2.00003 h 131 v -2.00003 z" class="ColorScheme-Highlight"/></g><g id="base-bottom" transform="matrix(0.3664122,0,0,-0.99999999,-18.669618,860.85999)" style="opacity:1"><path style="color:#3daee6;opacity:.06;fill:#000;stroke-width:1.11803436" id="path1657-3" d="m 190.14,824.86 v 5 h 131 v -5 z" class="ColorScheme-Highlight"/><path id="path1659-2" d="M 190.14,823.85997 V 825.86 h 131 v -2.00003 z" class="ColorScheme-Highlight" style="color:#3daee6;opacity:1;fill:none;stroke-width:.70711237"/><path style="color:#3daee6;opacity:1;fill:none;fill-opacity:1;stroke-width:.70711237" id="path1661-1" d="m 190.14,824.85994 v 2.00003 h 131 v -2.00003 z" class="ColorScheme-Highlight"/></g><g id="base-bottomleft" transform="matrix(0.99999999,0,0,-0.99999999,-140.13999,860.85999)" style="opacity:1"><path style="color:#3daee6;opacity:.06;fill:#000;stroke-width:1.25000155" id="path1665-1" d="m 190.14,824.86 c -2.77,0 -5,2.23 -5,5 h 5 z"/><path style="color:#3daee6;opacity:1;fill:none;stroke-width:1.5" id="path1667-5" d="m 109,65 c -3.324,0 -6,2.676 -6,6 h 2 c 0,-2.216 1.784,-4 4,-4 z" transform="translate(81.139996,758.86)"/><path style="color:#3daee6;opacity:1;fill:none;fill-opacity:1;stroke-width:1.25" id="path1669-4" d="m 109,66 c -2.77,0 -5,2.23 -5,5 h 2 c 0,-1.662 1.338,-3 3,-3 z" transform="translate(81.139996,758.86)"/></g><g id="base-bottomright" transform="rotate(180,145.07001,430.43)" style="opacity:1"><path style="color:#3daee6;opacity:.06;fill:#000;stroke-width:1.25000143" id="path1647-0" d="m 190.14,824.86 c -2.77,0 -5,2.23 -5,5 h 5 z"/><path style="color:#3daee6;opacity:1;fill:none;stroke-width:1.5" id="path1649-6" d="m 109,65 c -3.324,0 -6,2.676 -6,6 h 2 c 0,-2.216 1.784,-4 4,-4 z" transform="translate(81.139996,758.86)"/><path style="color:#3daee6;opacity:1;fill:none;fill-opacity:1;stroke-width:1.25" id="path1651-0" d="m 109,66 c -2.77,0 -5,2.23 -5,5 h 2 c 0,-1.662 1.338,-3 3,-3 z" transform="translate(81.139996,758.86)"/></g><rect id="hover-hint-top-margin" width="2" height=".1" x="150" y="56.9" style="fill:#9a06ff;stroke-width:.31622776"/><rect id="hover-hint-right-margin" width="2" height=".1" x="-83" y="183" transform="rotate(-90)" style="fill:#9a06ff;stroke-width:.2236068"/><rect id="hover-hint-left-margin" width="2" height=".1" x="-84" y="120" transform="rotate(-90)" style="fill:#9a06ff;stroke-width:.2236068"/><rect id="hover-hint-bottom-margin" width="2" height=".1" x="150" y="106.9" style="fill:#9a06ff;stroke-width:.1825742"/><rect id="focus-hint-top-margin" width="2" height=".1" x="74" y="56.9" style="fill:#9a06ff;stroke-width:.31622773"/><rect id="focus-hint-right-margin" width="2" height=".1" x="-84.1" y="106" transform="rotate(-90)" style="fill:#9a06ff;stroke-width:.22360681"/><rect id="focus-hint-left-margin" width="2" height=".1" x="-84.1" y="44" transform="rotate(-90)" style="fill:#9a06ff;stroke-width:.2236068"/><rect id="focus-hint-bottom-margin" width="2" height=".1" x="74" y="107" style="fill:#9a06ff;stroke-width:.18257421"/><rect id="base-hint-top-margin" width="2" height="6" x="75" y="-13" style="fill:#4e9a06;fill-opacity:1;fill-rule:nonzero;stroke:none"/><rect style="fill:#4e9a06;fill-opacity:1;fill-rule:nonzero;stroke:none" id="base-hint-left-margin" width="6" height="2" x="44" y="11"/><rect id="base-hint-right-margin" width="6" height="2" x="100" y="11" style="fill:#4e9a06;fill-opacity:1;fill-rule:nonzero;stroke:none"/><rect style="fill:#4e9a06;fill-opacity:1;fill-rule:nonzero;stroke:none" id="base-hint-bottom-margin" width="2" height="6" x="75" y="31"/></svg>