<svg xmlns="http://www.w3.org/2000/svg" xmlns:svg="http://www.w3.org/2000/svg" xmlns:xlink="http://www.w3.org/1999/xlink" id="svg200" width="173" height="56" version="1.1" viewBox="0 0 173 56"><metadata id="metadata204"/><defs id="defs24"><style id="current-color-scheme" type="text/css">.ColorScheme-Background{color:#eff0f1;stop-color:#eff0f1}</style><linearGradient id="linearGradient4270"><stop style="stop-color:#000;stop-opacity:.66663194" id="stop4272" offset="0"/><stop style="stop-color:#000;stop-opacity:0" id="stop4274" offset="1"/></linearGradient><radialGradient id="radialGradient994" cx="77" cy="12" r="6" fx="77" fy="12" gradientTransform="matrix(1.6289431e-5,-4.6666397,4.6666504,1.6289464e-5,3.9989368,381.3309)" gradientUnits="userSpaceOnUse" xlink:href="#linearGradient4270"/><linearGradient id="linearGradient4920" x1="-920.695" x2="-904.362" y1="-35" y2="-35" gradientTransform="matrix(1.1020538,0,0,1,98.293668,0)" gradientUnits="userSpaceOnUse" xlink:href="#linearGradient4270"/></defs><use id="bottom" width="100%" height="100%" x="0" y="0" transform="matrix(1,0,0,-1,-2.3793946e-7,55.999963)" xlink:href="#top"/><use id="left" width="100%" height="100%" x="0" y="0" transform="matrix(0,1,1,0,38.000037,-37.99997)" xlink:href="#top"/><use id="shadow-right" width="100%" height="100%" x="0" y="0" transform="rotate(90,65.99996,28.000016)" xlink:href="#shadow-top"/><use id="right" width="100%" height="100%" x="0" y="0" transform="rotate(90,65.999966,27.999997)" xlink:href="#top"/><use id="shadow-left" width="100%" height="100%" x="0" y="0" transform="rotate(-90,66.000007,27.999995)" xlink:href="#shadow-top"/><use id="shadow-bottom" width="100%" height="100%" x="0" y="0" transform="matrix(1,0,0,-1,5.6942917e-7,56.000033)" xlink:href="#shadow-top"/><g style="opacity:.2" id="shadow-topleft" transform="matrix(1.1666637,0,0,1.1666637,64.666611,-1086.7531)"><path id="path4828" d="M 32 -6 L 32 22 L 44 22 C 44 13.13604 51.136035 6 60 6 L 60 -6 L 32 -6 z" transform="matrix(0.85714504,0,0,0.85714504,-55.428665,931.50503)" style="opacity:.9;fill:url(#radialGradient994);fill-opacity:1;fill-rule:evenodd;stroke:none;stroke-width:2.33332px;stroke-linecap:butt;stroke-linejoin:miter;stroke-opacity:1"/></g><rect id="hint-tile-center" width="5" height="5" x="0" y="0" style="fill:#f60"/><g id="top" transform="matrix(0.37500096,0,0,1.9999988,52.874957,-1814.7233)"><rect style="color:#eff0f1;opacity:.9;fill:#fff;fill-opacity:.89999998;stroke:none;stroke-width:1.1547" id="rect4152" width="8" height="32" x="-918.362" y="-51" class="ColorScheme-Background" transform="matrix(0,-1,-1,0,0,0)"/><rect id="rect76" width=".5" height="32" x="-910.862" y="-51" class="ColorScheme-Background" transform="matrix(0,-1,-1,0,0,0)" style="color:#eff0f1;opacity:.1;fill:#f5f5f5;fill-opacity:1;stroke:none;stroke-width:.288684"/></g><g id="topleft" transform="translate(31,-904.36218)"><path id="rect4159" d="m 29,910.36218 c -8.863965,0 -16,7.13604 -16,16 h 16 z" style="opacity:.9;fill:#fff;fill-opacity:.89999998;stroke:none;stroke-width:2.66667"/><path id="path71" d="M 60 6 C 51.136035 6 44 13.13604 44 22 L 45 22 C 45 13.69004 51.690033 7 60 7 L 60 6 z" transform="translate(-31,904.36218)" style="opacity:.1;fill:#fff;fill-opacity:1;stroke:none;stroke-width:2.66667"/></g><rect style="color:#eff0f1;opacity:.9;fill:#fff;fill-opacity:.89999998;stroke:none;stroke-width:.375003" id="center" width="12" height="12" x="60" y="22" class="ColorScheme-Background"/><rect id="hint-top-margin" width="4" height="3" x="64" y="6" style="fill:#f0f;fill-opacity:1;stroke:none;stroke-width:.7070992"/><rect style="fill:#f0f;fill-opacity:1;stroke:none;stroke-width:.70711386" id="hint-bottom-margin" width="4" height="3" x="64" y="47"/><rect style="fill:#f0f;fill-opacity:1;stroke:none;stroke-width:.70710778" id="hint-right-margin" width="4" height="3" x="26" y="-88" transform="rotate(90)"/><rect id="hint-left-margin" width="4" height="3" x="26" y="-47" transform="rotate(90)" style="fill:#f0f;fill-opacity:1;stroke:none;stroke-width:.70710653"/><g style="opacity:.2" id="shadow-top" transform="matrix(0.37500332,0,0,1.5555643,52.874889,-1403.4603)"><rect id="rect4820" width="6" height="32" x="-916.362" y="-51" transform="matrix(0,-1,-1,0,0,0)" style="opacity:1;fill:none;fill-opacity:1;stroke:none"/><rect id="rect4822" width="7.714" height="32" x="-906.077" y="-51" transform="matrix(0,-1,-1,0,0,0)" style="opacity:.9;fill:url(#linearGradient4920);fill-opacity:1;stroke:none;stroke-width:1.04979"/><rect style="opacity:1;fill:none;fill-opacity:1;stroke:none" id="rect4824" width="1" height="32" x="-911.362" y="-51" transform="matrix(0,-1,-1,0,0,0)"/></g><rect style="fill:#f60;fill-opacity:1;stroke:none;stroke-width:1.41421628" id="shadow-hint-top-margin" width="4" height="12" x="64" y="-6"/><rect id="shadow-hint-bottom-margin" width="4" height="12" x="64" y="50" style="fill:#f60;fill-opacity:1;stroke:none;stroke-width:1.41420949"/><rect id="shadow-hint-right-margin" width="4" height="12" x="26" y="-100" transform="rotate(90)" style="fill:#f60;fill-opacity:1;stroke:none;stroke-width:1.41421628"/><rect style="fill:#f60;fill-opacity:1;stroke:none;stroke-width:1.41421354" id="shadow-hint-left-margin" width="4" height="12" x="26" y="-44" transform="rotate(90)"/><g id="mask-top" transform="matrix(0.37500035,0,0,1.3333275,128.87498,-1207.8108)"><rect id="rect4265" width="12" height="32" x="-922.362" y="-51" transform="matrix(0,-1,-1,0,0,0)" style="opacity:.97;fill:#000;fill-opacity:1;stroke:none;stroke-width:1.54919"/></g><g id="mask-topleft" transform="matrix(1.5999977,0,0,1.5999942,99.200029,-1450.5741)"><path id="path4277" d="m 23,910.36218 c -5.539984,0 -10,4.46002 -10,10 h 10 z" style="opacity:.97;fill:#000;fill-opacity:1;stroke-width:2"/></g><g id="mask-topright" transform="matrix(2.0000036,0,0,2.0000159,49.999796,-1814.7389)"><path id="path4287" d="m 49.000013,910.36218 v 7.99999 H 57 c 0,-4.43198 -3.568007,-7.99999 -7.999987,-7.99999 z" style="opacity:.97;fill:#000;fill-opacity:1;stroke-width:1.6"/></g><g id="mask-bottom" transform="matrix(0.37500035,0,0,1.600003,128.87498,-1476.9825)"><rect style="opacity:.97;fill:#000;fill-opacity:1;stroke:none;stroke-width:1.41421" id="rect4291" width="10" height="32" x="944.362" y="-51" transform="rotate(90)"/></g><g id="mask-bottomleft" transform="matrix(1.3333288,0,0,1.3333268,102.66673,-1222.4767)"><path id="path4303" d="m 13,942.36218 c 0,6.64797 5.35202,12 12,12 v -12 z" style="opacity:.97;fill:#000;fill-opacity:1;stroke-width:2.40001"/></g><g id="mask-bottomright" transform="matrix(1.3333336,0,0,1.3333316,87.999988,-1222.4813)"><path id="path4313" d="m 45,942.36218 v 12 c 6.64798,0 12,-5.35203 12,-12 z" style="opacity:.97;fill:#000;fill-opacity:1;stroke-width:2.40001"/></g><g id="mask-left" transform="matrix(1.3333341,0,0,0.60000604,102.66665,-531.42288)"><rect style="opacity:.97;fill:#000;fill-opacity:1;stroke:none;stroke-width:1.22475" id="rect4317" width="12" height="20" x="-25" y="922.362" transform="scale(-1,1)"/></g><g id="mask-right" transform="matrix(1.6000014,0,0,0.37500479,72.799936,-321.64022)"><rect id="rect4323" width="10" height="32" x="47" y="916.362" style="opacity:.97;fill:#000;fill-opacity:1;stroke:none;stroke-width:1.41421"/></g><rect id="mask-center" width="12" height="12" x="136" y="22" style="opacity:.97;fill:#000;fill-opacity:1;stroke:none;stroke-width:.375001"/><rect id="shadow-center" width="12" height="12" x="60" y="80" class="ColorScheme-Background" style="color:#eff0f1;opacity:0;fill:#fff;fill-opacity:1;stroke:none;stroke-width:.375003"/><use id="topright" width="100%" height="100%" x="0" y="0" transform="matrix(-1,0,0,1,132,0)" xlink:href="#topleft"/><use id="bottomleft" width="100%" height="100%" x="0" y="0" transform="matrix(1,0,0,-1,0,56)" xlink:href="#topleft"/><use id="bottomright" width="100%" height="100%" x="0" y="0" transform="rotate(180,66,28)" xlink:href="#topleft"/><use id="shadow-topright" width="100%" height="100%" x="0" y="0" transform="matrix(-1,0,0,1,132,0)" xlink:href="#shadow-topleft"/><use id="shadow-bottomleft" width="100%" height="100%" x="0" y="0" transform="matrix(1,0,0,-1,-9.5996635e-7,55.999998)" xlink:href="#shadow-topleft"/><use id="shadow-bottomright" width="100%" height="100%" x="0" y="0" transform="rotate(180,65.999999,27.999999)" xlink:href="#shadow-topleft"/></svg>