<svg xmlns="http://www.w3.org/2000/svg" xmlns:svg="http://www.w3.org/2000/svg" id="svg254" width="48" height="98" version="1.0"><metadata id="metadata258"/><defs id="defs3"><style id="current-color-scheme" type="text/css">.ColorScheme-Text{color:#31363b;stop-color:#31363b}.ColorScheme-ButtonHover{color:#93cee9;stop-color:#93cee9}</style></defs><rect id="slider-center" width="1" height="10" x="24" y="20" class="ColorScheme-Text" style="color:#31363b;opacity:.45;fill:#fff;fill-rule:evenodd"/><g id="slider-right" transform="matrix(0.75,0,0,1,19.25,13)"><path id="path6" d="m 9,7 v 10 h 4 V 7 Z" class="ColorScheme-Text" style="color:#31363b;opacity:.45;fill:#fff;fill-rule:evenodd"/><rect id="rect8" width="1" height="10" x="29" y="20" transform="matrix(1.3333,0,0,1,-25.667,-13)" style="opacity:.01000001;fill:#e4e6e8"/></g><g id="slider-topright" transform="matrix(0.75,0,0,0.75,19.25,13.75)"><rect id="rect11" width="4" height="4" x="26" y="15" transform="matrix(1.3333,0,0,1.3333,-25.667,-18.333)" style="opacity:.01000001;fill:#e4e6e8"/><path id="path13" d="m 9,3 v 4 h 4 C 13,4.784 11.216,3 9,3 Z" class="ColorScheme-Text" style="color:#31363b;opacity:.45;fill:#fff;fill-rule:evenodd"/></g><g id="slider-bottomright" transform="matrix(0.75,0,0,0.75,19.25,18.25)"><rect id="rect16" width="4" height="4" x="26" y="31" transform="matrix(1.3333,0,0,1.3333,-25.667,-24.333)" style="opacity:.01000001;fill:#e4e6e8"/><path id="path18" d="m 9,21 v -4 h 4 c 0,2.216 -1.784,4 -4,4 z" class="ColorScheme-Text" style="color:#31363b;opacity:.45;fill:#fff;fill-rule:evenodd"/></g><g id="slider-left" transform="matrix(-0.75,0,0,1,29.75,13)"><path id="path21" d="m 9,7 v 10 h 4 V 7 Z" class="ColorScheme-Text" style="color:#31363b;opacity:.45;fill:#fff;fill-rule:evenodd"/><rect id="rect23" width="1" height="10" x="19" y="20" transform="matrix(-1.3333,0,0,1,39.667,-13)" style="opacity:.01000001;fill:#e4e6e8"/></g><g id="slider-topleft" transform="matrix(-0.75,0,0,0.75,29.75,13.75)"><rect id="rect26" width="4" height="4" x="19" y="15" transform="matrix(-1.3333,0,0,1.3333,39.667,-18.333)" style="opacity:.01000001;fill:#e4e6e8"/><path id="path28" d="m 9,3 v 4 h 4 C 13,4.784 11.216,3 9,3 Z" class="ColorScheme-Text" style="color:#31363b;opacity:.45;fill:#fff;fill-rule:evenodd"/></g><g id="slider-bottomleft" transform="matrix(-0.75,0,0,0.75,29.75,18.25)"><rect id="rect31" width="4" height="4" x="19" y="31" transform="matrix(-1.3333,0,0,1.3333,39.667,-24.333)" style="opacity:.01000001;fill:#e4e6e8"/><path id="path33" d="m 9,21 v -4 h 4 c 0,2.216 -1.784,4 -4,4 z" class="ColorScheme-Text" style="color:#31363b;opacity:.45;fill:#fff;fill-rule:evenodd"/></g><g id="slider-top" transform="matrix(0,-0.75,-0.1,0,25.7,25.75)"><rect id="rect36" width="1" height="4" x="24" y="15" transform="matrix(0,-10,-1.3333,0,34.333,257)" style="opacity:.01000001;fill:#e4e6e8"/><path id="path38" d="m 9,7 v 10 h 4 V 7 Z" class="ColorScheme-Text" style="color:#31363b;opacity:.45;fill:#fff;fill-rule:evenodd"/></g><g id="slider-bottom" transform="matrix(0,0.75,-0.1,0,25.7,24.25)"><rect id="rect41" width="1" height="4" x="24" y="31" transform="matrix(0,-10,1.3333,0,-32.333,257)" style="opacity:.01000001;fill:#e4e6e8"/><path id="path43" d="m 9,7 v 10 h 4 V 7 Z" class="ColorScheme-Text" style="color:#31363b;opacity:.45;fill:#fff;fill-rule:evenodd"/></g><rect id="hint-scrollbar-size" width="8" height="8" x="4" y="25" rx="0" ry="8" style="fill:#4e9a06"/><rect id="hint-tile-center" width="8" height="8" x="4.198" y="12.744" rx="0" ry="8" style="fill:#4e9a06;stroke-width:3.89316869"/><g id="background-vertical-right" transform="matrix(0.75,0,0,1,33.25,13)"><path id="path48" d="m 9,7 v 10 h 4 V 7 Z" class="ColorScheme-Text" style="color:#31363b;opacity:.15;fill:#000;fill-rule:evenodd"/><rect id="rect50" width="1" height="10" x="43" y="20" transform="matrix(1.3333,0,0,1,-44.333,-13)" style="opacity:.01000001;fill:#e4e6e8"/></g><g id="background-vertical-topright" transform="matrix(0.75,0,0,0.75,33.25,13.75)"><rect id="rect55" width="4" height="4" x="40" y="15" transform="matrix(1.3333,0,0,1.3333,-44.333,-18.333)" style="opacity:.01000001;fill:#e4e6e8"/><path id="path57" d="m 9,3 v 4 h 4 C 13,4.784 11.216,3 9,3 Z" class="ColorScheme-Text" style="color:#31363b;opacity:.15;fill:#000;fill-rule:evenodd"/></g><g id="background-vertical-bottomright" transform="matrix(0.75,0,0,0.75,33.25,18.25)"><rect id="rect62" width="4" height="4" x="40" y="31" transform="matrix(1.3333,0,0,1.3333,-44.333,-24.333)" style="opacity:.01000001;fill:#e4e6e8"/><path id="path64" d="m 9,21 v -4 h 4 c 0,2.216 -1.784,4 -4,4 z" class="ColorScheme-Text" style="color:#31363b;opacity:.15;fill:#000;fill-rule:evenodd"/></g><g id="background-vertical-left" transform="matrix(-0.75,0,0,1,43.75,13)"><path id="path69" d="m 9,7 v 10 h 4 V 7 Z" class="ColorScheme-Text" style="color:#31363b;opacity:.15;fill:#000;fill-rule:evenodd"/><rect id="rect71" width="1" height="10" x="33" y="20" transform="matrix(-1.3333,0,0,1,58.333,-13)" style="opacity:.01000001;fill:#e4e6e8"/></g><g id="background-vertical-topleft" transform="matrix(-0.75,0,0,0.75,43.75,13.75)"><rect id="rect76" width="4" height="4" x="33" y="15" transform="matrix(-1.3333,0,0,1.3333,58.333,-18.333)" style="opacity:.01000001;fill:#e4e6e8"/><path id="path78" d="m 9,3 v 4 h 4 C 13,4.784 11.216,3 9,3 Z" class="ColorScheme-Text" style="color:#31363b;opacity:.15;fill:#000;fill-rule:evenodd"/></g><g id="background-vertical-bottomleft" transform="matrix(-0.75,0,0,0.75,43.75,18.25)"><rect id="rect83" width="4" height="4" x="33" y="31" transform="matrix(-1.3333,0,0,1.3333,58.333,-24.333)" style="opacity:.01000001;fill:#e4e6e8"/><path id="path85" d="m 9,21 v -4 h 4 c 0,2.216 -1.784,4 -4,4 z" class="ColorScheme-Text" style="color:#31363b;opacity:.15;fill:#000;fill-rule:evenodd"/></g><g id="background-vertical-top" transform="matrix(0,-0.75,-0.1,0,39.7,25.75)"><rect id="rect90" width="1" height="4" x="38" y="15" transform="matrix(0,-10,-1.3333,0,34.333,397)" style="opacity:.01000001;fill:#e4e6e8"/><path id="path92" d="m 9,7 v 10 h 4 V 7 Z" class="ColorScheme-Text" style="color:#31363b;opacity:.15;fill:#000;fill-rule:evenodd"/></g><g id="background-vertical-bottom" transform="matrix(0,0.75,-0.1,0,39.7,24.25)"><rect id="rect97" width="1" height="4" x="38" y="31" transform="matrix(0,-10,1.3333,0,-32.333,397)" style="opacity:.01000001;fill:#e4e6e8"/><path id="path99" d="m 9,7 v 10 h 4 V 7 Z" class="ColorScheme-Text" style="color:#31363b;opacity:.15;fill:#000;fill-rule:evenodd"/></g><rect id="sunken-slider-center" width="1" height="10" x="24" y="64" class="ColorScheme-ButtonHover" style="color:#93cee9;fill:#fff;fill-rule:evenodd;opacity:.75"/><g id="sunken-slider-right" transform="matrix(0.75,0,0,1,19.25,57)"><path id="path105" d="m 9,7 v 10 h 4 V 7 Z" class="ColorScheme-ButtonHover" style="color:#93cee9;fill:#fff;fill-rule:evenodd;opacity:.75"/><rect id="rect107" width="1" height="10" x="29" y="64" transform="matrix(1.3333,0,0,1,-25.667,-57)" style="opacity:.01000001;fill:#e4e6e8"/></g><g id="sunken-slider-topright" transform="matrix(0.75,0,0,0.75,19.25,57.75)"><rect id="rect110" width="4" height="4" x="26" y="59" transform="matrix(1.3333,0,0,1.3333,-25.667,-77)" style="opacity:.01000001;fill:#e4e6e8"/><path id="path112" d="m 9,3 v 4 h 4 C 13,4.784 11.216,3 9,3 Z" class="ColorScheme-ButtonHover" style="color:#93cee9;fill:#fff;fill-rule:evenodd;opacity:.75"/></g><g id="sunken-slider-bottomright" transform="matrix(0.75,0,0,0.75,19.25,62.25)"><rect id="rect115" width="4" height="4" x="26" y="75" transform="matrix(1.3333,0,0,1.3333,-25.667,-83)" style="opacity:.01000001;fill:#e4e6e8"/><path id="path117" d="m 9,21 v -4 h 4 c 0,2.216 -1.784,4 -4,4 z" class="ColorScheme-ButtonHover" style="color:#93cee9;fill:#fff;fill-rule:evenodd;opacity:.75"/></g><g id="sunken-slider-left" transform="matrix(-0.75,0,0,1,29.75,57)"><path id="path120" d="m 9,7 v 10 h 4 V 7 Z" class="ColorScheme-ButtonHover" style="color:#93cee9;fill:#fff;fill-rule:evenodd;opacity:.75"/><rect id="rect122" width="1" height="10" x="19" y="64" transform="matrix(-1.3333,0,0,1,39.667,-57)" style="opacity:.01000001;fill:#e4e6e8"/></g><g id="sunken-slider-topleft" transform="matrix(-0.75,0,0,0.75,29.75,57.75)"><rect id="rect125" width="4" height="4" x="19" y="59" transform="matrix(-1.3333,0,0,1.3333,39.667,-77)" style="opacity:.01000001;fill:#e4e6e8"/><path id="path127" d="m 9,3 v 4 h 4 C 13,4.784 11.216,3 9,3 Z" class="ColorScheme-ButtonHover" style="color:#93cee9;fill:#fff;fill-rule:evenodd;opacity:.75"/></g><g id="sunken-slider-bottomleft" transform="matrix(-0.75,0,0,0.75,29.75,62.25)"><rect id="rect130" width="4" height="4" x="19" y="75" transform="matrix(-1.3333,0,0,1.3333,39.667,-83)" style="opacity:.01000001;fill:#e4e6e8"/><path id="path132" d="m 9,21 v -4 h 4 c 0,2.216 -1.784,4 -4,4 z" class="ColorScheme-ButtonHover" style="color:#93cee9;fill:#fff;fill-rule:evenodd;opacity:.75"/></g><g id="sunken-slider-top" transform="matrix(0,-0.75,-0.1,0,25.7,69.75)"><rect id="rect135" width="1" height="4" x="24" y="59" transform="matrix(0,-10,-1.3333,0,93,257)" style="opacity:.01000001;fill:#e4e6e8"/><path id="path137" d="m 9,7 v 10 h 4 V 7 Z" class="ColorScheme-ButtonHover" style="color:#93cee9;fill:#fff;fill-rule:evenodd;opacity:.75"/></g><g id="sunken-slider-bottom" transform="matrix(0,0.75,-0.1,0,25.7,68.25)"><rect id="rect140" width="1" height="4" x="24" y="75" transform="matrix(0,-10,1.3333,0,-91,257)" style="opacity:.01000001;fill:#e4e6e8"/><path id="path142" d="m 9,7 v 10 h 4 V 7 Z" class="ColorScheme-ButtonHover" style="color:#93cee9;fill:#fff;fill-rule:evenodd;opacity:.75"/></g><rect id="mouseover-slider-center" width="1" height="10" x="24" y="42" class="ColorScheme-ButtonHover" style="color:#93cee9;opacity:.6;fill:#fff;fill-rule:evenodd"/><g id="mouseover-slider-right" transform="matrix(0.75,0,0,1,19.25,35)"><path id="path146" d="m 9,7 v 10 h 4 V 7 Z" class="ColorScheme-ButtonHover" style="color:#93cee9;opacity:.6;fill:#fff;fill-rule:evenodd"/><rect id="rect148" width="1" height="10" x="29" y="64" transform="matrix(1.3333,0,0,1,-25.667,-57)" style="opacity:.01000001;fill:#e4e6e8"/></g><g id="mouseover-slider-topright" transform="matrix(0.75,0,0,0.75,19.25,35.75)"><rect id="rect151" width="4" height="4" x="26" y="59" transform="matrix(1.3333,0,0,1.3333,-25.667,-77)" style="opacity:.01000001;fill:#e4e6e8"/><path id="path153" d="m 9,3 v 4 h 4 C 13,4.784 11.216,3 9,3 Z" class="ColorScheme-ButtonHover" style="color:#93cee9;opacity:.6;fill:#fff;fill-rule:evenodd"/></g><g id="mouseover-slider-bottomright" transform="matrix(0.75,0,0,0.75,19.25,40.25)"><rect id="rect156" width="4" height="4" x="26" y="75" transform="matrix(1.3333,0,0,1.3333,-25.667,-83)" style="opacity:.01000001;fill:#e4e6e8"/><path id="path158" d="m 9,21 v -4 h 4 c 0,2.216 -1.784,4 -4,4 z" class="ColorScheme-ButtonHover" style="color:#93cee9;opacity:.6;fill:#fff;fill-rule:evenodd"/></g><g id="mouseover-slider-left" transform="matrix(-0.75,0,0,1,29.75,35)"><path id="path161" d="m 9,7 v 10 h 4 V 7 Z" class="ColorScheme-ButtonHover" style="color:#93cee9;opacity:.6;fill:#fff;fill-rule:evenodd"/><rect id="rect163" width="1" height="10" x="19" y="64" transform="matrix(-1.3333,0,0,1,39.667,-57)" style="opacity:.01000001;fill:#e4e6e8"/></g><g id="mouseover-slider-topleft" transform="matrix(-0.75,0,0,0.75,29.75,35.75)"><rect id="rect166" width="4" height="4" x="19" y="59" transform="matrix(-1.3333,0,0,1.3333,39.667,-77)" style="opacity:.01000001;fill:#e4e6e8"/><path id="path168" d="m 9,3 v 4 h 4 C 13,4.784 11.216,3 9,3 Z" class="ColorScheme-ButtonHover" style="color:#93cee9;opacity:.6;fill:#fff;fill-rule:evenodd"/></g><g id="mouseover-slider-bottomleft" transform="matrix(-0.75,0,0,0.75,29.75,40.25)"><rect id="rect171" width="4" height="4" x="19" y="75" transform="matrix(-1.3333,0,0,1.3333,39.667,-83)" style="opacity:.01000001;fill:#e4e6e8"/><path id="path173" d="m 9,21 v -4 h 4 c 0,2.216 -1.784,4 -4,4 z" class="ColorScheme-ButtonHover" style="color:#93cee9;opacity:.6;fill:#fff;fill-rule:evenodd"/></g><g id="mouseover-slider-top" transform="matrix(0,-0.75,-0.1,0,25.7,47.75)"><rect id="rect176" width="1" height="4" x="24" y="59" transform="matrix(0,-10,-1.3333,0,93,257)" style="opacity:.01000001;fill:#e4e6e8"/><path id="path178" d="m 9,7 v 10 h 4 V 7 Z" class="ColorScheme-ButtonHover" style="color:#93cee9;opacity:.6;fill:#fff;fill-rule:evenodd"/></g><g id="mouseover-slider-bottom" transform="matrix(0,0.75,-0.1,0,25.7,46.25)"><rect id="rect181" width="1" height="4" x="24" y="75" transform="matrix(0,-10,1.3333,0,-91,257)" style="opacity:.01000001;fill:#e4e6e8"/><path id="path183" d="m 9,7 v 10 h 4 V 7 Z" class="ColorScheme-ButtonHover" style="color:#93cee9;opacity:.6;fill:#fff;fill-rule:evenodd"/></g><g id="background-vertical-center" style="fill-rule:evenodd"><rect id="rect186" width="1" height="10" x="38" y="20" class="ColorScheme-Text" style="color:#31363b;opacity:.15;fill:#000"/></g><g id="background-horizontal-right" transform="matrix(0.75,0,0,1,33.25,35)"><path id="path191" d="m 9,7 v 10 h 4 V 7 Z" class="ColorScheme-Text" style="color:#31363b;opacity:.15;fill:#000;fill-rule:evenodd"/><rect id="rect193" width="1" height="10" x="43" y="20" transform="matrix(1.3333,0,0,1,-44.333,-13)" style="opacity:.01000001;fill:#e4e6e8"/></g><g id="background-horizontal-topright" transform="matrix(0.75,0,0,0.75,33.25,35.75)"><rect id="rect198" width="4" height="4" x="40" y="15" transform="matrix(1.3333,0,0,1.3333,-44.333,-18.333)" style="opacity:.01000001;fill:#e4e6e8"/><path id="path200" d="m 9,3 v 4 h 4 C 13,4.784 11.216,3 9,3 Z" class="ColorScheme-Text" style="color:#31363b;opacity:.15;fill:#000;fill-rule:evenodd"/></g><g id="background-horizontal-bottomright" transform="matrix(0.75,0,0,0.75,33.25,40.25)"><rect id="rect205" width="4" height="4" x="40" y="31" transform="matrix(1.3333,0,0,1.3333,-44.333,-24.333)" style="opacity:.01000001;fill:#e4e6e8"/><path id="path207" d="m 9,21 v -4 h 4 c 0,2.216 -1.784,4 -4,4 z" class="ColorScheme-Text" style="color:#31363b;opacity:.15;fill:#000;fill-rule:evenodd"/></g><g id="background-horizontal-left" transform="matrix(-0.75,0,0,1,43.75,35)"><path id="path212" d="m 9,7 v 10 h 4 V 7 Z" class="ColorScheme-Text" style="color:#31363b;opacity:.15;fill:#000;fill-rule:evenodd"/><rect id="rect214" width="1" height="10" x="33" y="20" transform="matrix(-1.3333,0,0,1,58.333,-13)" style="opacity:.01000001;fill:#e4e6e8"/></g><g id="background-horizontal-topleft" transform="matrix(-0.75,0,0,0.75,43.75,35.75)"><rect id="rect219" width="4" height="4" x="33" y="15" transform="matrix(-1.3333,0,0,1.3333,58.333,-18.333)" style="opacity:.01000001;fill:#e4e6e8"/><path id="path221" d="m 9,3 v 4 h 4 C 13,4.784 11.216,3 9,3 Z" class="ColorScheme-Text" style="color:#31363b;opacity:.15;fill:#000;fill-rule:evenodd"/></g><g id="background-horizontal-bottomleft" transform="matrix(-0.75,0,0,0.75,43.75,40.25)"><rect id="rect226" width="4" height="4" x="33" y="31" transform="matrix(-1.3333,0,0,1.3333,58.333,-24.333)" style="opacity:.01000001;fill:#e4e6e8"/><path id="path228" d="m 9,21 v -4 h 4 c 0,2.216 -1.784,4 -4,4 z" class="ColorScheme-Text" style="color:#31363b;opacity:.15;fill:#000;fill-rule:evenodd"/></g><g id="background-horizontal-top" transform="matrix(0,-0.75,-0.1,0,39.7,47.75)"><rect id="rect233" width="1" height="4" x="38" y="15" transform="matrix(0,-10,-1.3333,0,34.333,397)" style="opacity:.01000001;fill:#e4e6e8"/><path id="path235" d="m 9,7 v 10 h 4 V 7 Z" class="ColorScheme-Text" style="color:#31363b;opacity:.15;fill:#000;fill-rule:evenodd"/></g><g id="background-horizontal-bottom" transform="matrix(0,0.75,-0.1,0,39.7,46.25)"><rect id="rect240" width="1" height="4" x="38" y="31" transform="matrix(0,-10,1.3333,0,-32.333,397)" style="opacity:.01000001;fill:#e4e6e8"/><path id="path242" d="m 9,7 v 10 h 4 V 7 Z" class="ColorScheme-Text" style="color:#31363b;opacity:.15;fill:#000;fill-rule:evenodd"/></g><g id="background-horizontal-center" transform="translate(9.35e-7,22)" style="fill-rule:evenodd"><rect id="rect247" width="1" height="10" x="38" y="20" class="ColorScheme-Text" style="color:#31363b;opacity:.15;fill:#000"/></g></svg>