<svg xmlns="http://www.w3.org/2000/svg" xmlns:xlink="http://www.w3.org/1999/xlink" width="76" height="66" version="1.1"><metadata/><defs><radialGradient id="radialGradient915" cx="41" cy="20" r="16" gradientUnits="userSpaceOnUse"><stop offset="0"/><stop offset="1" stop-opacity="0"/></radialGradient></defs><g id="vertical-slider-handle" stroke-width=".917" transform="matrix(.75 0 0 .75 -18.75 -3)"><rect width="32" height="32" x="25" y="4" opacity="0"/><circle cx="41" cy="20" r="16" fill="url(#radialGradient915)" stroke-width="1.833" opacity=".05"/><circle cx="41" cy="20" r="9.333" stroke-width="1.069" opacity=".1"/><circle cx="41" cy="20" r="8" fill="#fff"/></g><g id="vertical-slider-hover" stroke-width=".917" transform="matrix(.75 0 0 .75 6.25 -3)"><circle cx="41" cy="20" r="16" fill="url(#radialGradient915)" stroke-width=".917" opacity=".15"/><rect width="32" height="32" x="25" y="4" opacity="0"/><circle cx="41" cy="20" r="9.333" stroke-width=".535" opacity=".15"/><circle cx="41" cy="20" r="8" fill="#fff"/></g><g id="vertical-slider-focus" stroke-width=".917" transform="matrix(.75 0 0 .75 31.25 -3)"><circle cx="41" cy="20" r="16" fill="url(#radialGradient915)" stroke-width=".917" opacity=".2"/><rect width="32" height="32" x="25" y="4" opacity="0"/><circle cx="41" cy="20" r="9.333" stroke-width=".535" opacity=".15"/><circle cx="41" cy="20" r="8" fill="#fff"/></g><g id="groove-topleft"><path stroke-width="5.942" d="m7-24c-3.3644 0-6 2.6356-6 6h6z" opacity=".13"/><path d="m7-24c-3.3644 0-6 2.6356-6 6h1c0-2.8037 2.1963-5 5-5v-1z" opacity=".06"/></g><rect id="hint-tile-center" width="12" height="12" x="-14" y="-24" fill="#4e9a06" stroke-width="6" rx="0" ry="12"/><path id="groove-center" stroke-width="1.732" d="m7-18v1h3v-1z" opacity=".13"/><circle id="hint-handle-size" cx="51" cy="-15" r="12" fill="#ff2a2a"/><g id="groove-highlight-top"><path stroke-width="4.243" d="m23-24v6h3v-6z" opacity="0"/><path fill="#fff" stroke-width="3.873" d="m23-23v5h3v-5z"/></g><g id="groove-highlight-topleft"><path stroke-width="5.942" d="m23-24c-3.3644 0-6 2.6356-6 6h6z" opacity="0"/><path fill="#fff" stroke-width="4.951" d="m23-23c-2.8037 0-5 2.1963-5 5h5z"/></g><path id="groove-highlight-center" fill="#fff" stroke-width="1.732" d="m23-18v1h3v-1z"/><g id="groove-highlight-left"><path stroke-width="2.449" d="m17-18v1h6v-1z" opacity="0"/><path fill="#fff" stroke-width="2.236" d="m18-18v1h5v-1z"/></g><g id="groove-top"><path stroke-width="4.243" d="m7-24v6h3v-6z" opacity=".13"/><path stroke-width="1.732" d="m7-24v1h3v-1z" opacity=".06"/></g><use id="groove-topright" width="100%" height="100%" transform="matrix(-1,0,0,1,17,0)" xlink:href="#groove-topleft"/><g id="groove-left"><path stroke-width="2.449" d="m1-18v1h6v-1z" opacity=".13"/><path stroke-width="1" d="m1-18v1h1v-1z" opacity=".06"/></g><use id="groove-right" width="100%" height="100%" transform="matrix(-1,0,0,1,17,0)" xlink:href="#groove-left"/><use id="groove-bottomleft" width="100%" height="100%" transform="matrix(1,0,0,-1,0,-35)" xlink:href="#groove-topleft"/><use id="groove-bottomright" width="100%" height="100%" transform="rotate(180,8.5,-17.5)" xlink:href="#groove-topleft"/><use id="groove-bottom" width="100%" height="100%" transform="matrix(1,0,0,-1,0,-35)" xlink:href="#groove-top"/><use id="groove-highlight-topright" width="100%" height="100%" transform="matrix(-1,0,0,1,49,0)" xlink:href="#groove-highlight-topleft"/><use id="groove-highlight-bottomleft" width="100%" height="100%" transform="matrix(1,0,0,-1,0,-35)" xlink:href="#groove-highlight-topleft"/><use id="groove-highlight-bottomright" width="100%" height="100%" transform="matrix(0,-1,-1,0,8,6)" xlink:href="#groove-highlight-topleft"/><use id="groove-highlight-bottom" width="100%" height="100%" transform="matrix(1,0,0,-1,0,-35)" xlink:href="#groove-highlight-top"/><use id="groove-highlight-right" width="100%" height="100%" transform="matrix(-1,0,0,1,49,0)" xlink:href="#groove-highlight-left"/><use id="horizontal-slider-handle" width="100%" height="100%" transform="translate(0,30)" xlink:href="#vertical-slider-handle"/><use id="horizontal-slider-hover" width="100%" height="100%" transform="translate(0,30)" xlink:href="#vertical-slider-hover"/><use id="horizontal-slider-focus" width="100%" height="100%" transform="translate(0,30)" xlink:href="#vertical-slider-focus"/></svg>