<svg xmlns="http://www.w3.org/2000/svg" xmlns:svg="http://www.w3.org/2000/svg" id="svg127" width="500" height="300" version="1.1"><metadata id="metadata133"/><g id="north-active-tab-top" transform="matrix(0.8125,0,0,0.83332808,290.56,-685.62854)"><rect id="rect2" width="6" height="32" x="-916.36" y="-51" fill="#fff" class="ColorScheme-Background" color="#eff0f1" opacity=".3" transform="matrix(0,-1,-1,0,0,0)"/></g><g id="north-active-tab-topleft" transform="matrix(0.41666667,0,0,0.41666667,294.58333,-306.31667)"><path id="path5" fill="#fff" d="m 25,910.36 c -6.648,0 -12,5.352 -12,12 h 12 v -10 z" opacity=".3"/></g><g id="north-active-tab-topright" transform="matrix(0.41666667,0,0,0.41666667,314.25,-306.31667)"><path id="path8" fill="#fff" d="m 45,910.36 v 12 h 12 c 0,-6.648 -5.352,-12 -12,-12 z" opacity=".3"/></g><g id="north-active-tab-bottom" transform="matrix(0.8125,0,0,0.82943854,290.5625,-686.60635)"><rect id="rect11" width="6" height="32" x="948.36" y="-51" fill="#fff" class="ColorScheme-Background" color="#eff0f1" opacity=".3" transform="rotate(90)"/></g><g id="north-active-tab-bottomleft" transform="matrix(0.41666667,0,0,0.41666667,294.58333,-292.65)"><path id="path14" fill="#fff" d="m 13,942.36 c 0,6.648 5.352,12 12,12 v -12 H 15 Z" opacity=".3"/></g><g id="north-active-tab-bottomright" transform="matrix(0.41666667,0,0,0.41666667,314.25,-292.65)"><path id="path17" fill="#fff" d="m 45,942.36 v 12 c 6.648,0 12,-5.352 12,-12 H 47 Z" opacity=".3"/></g><g id="north-active-tab-left" transform="matrix(0.83333333,0,0,0.625,289.16667,-493.73)"><rect id="rect20" width="6" height="32" x="-19" y="916.36" fill="#fff" class="ColorScheme-Background" color="#eff0f1" opacity=".3" transform="scale(-1,1)"/></g><g id="north-active-tab-right" transform="matrix(0.83333391,0,0,0.625,290.49997,-493.73)"><rect id="rect23" width="6" height="32" x="51" y="916.36" fill="#fff" class="ColorScheme-Background" color="#eff0f1" opacity=".3"/></g><rect id="north-active-tab-center" width="26" height="20" x="306" y="79" fill="#fff" class="ColorScheme-Background" color="#eff0f1" opacity=".3"/><rect id="hint-tile-center" width="42" height="42" x="45" y="120" fill="green" opacity=".875" style="stroke-width:1.01838"/><rect style="fill:#4e9a06" id="north-focus-hint-right-margin" width="5" height="2" x="-338" y="-90" stroke-width=".577" transform="scale(-1)"/><rect style="fill:#4e9a06" id="north-focus-hint-left-margin" width="5" height="2" x="-305" y="-90" stroke-width=".577" transform="scale(-1)"/><rect style="fill:#4e9a06" id="north-focus-hint-bottom-margin" width="2" height="5" x="-320" y="-105" stroke-width=".5" transform="scale(-1)"/><rect style="fill:#4e9a06" id="north-focus-hint-top-margin" width="2" height="5" x="-320" y="-78" stroke-width=".707" transform="scale(-1)"/><g id="south-active-tab-top" transform="matrix(0.81257816,0,0,0.83333333,290.55851,-575.63332)"><rect id="rect34" width="6" height="32" x="-916.36" y="-51" fill="#fff" class="ColorScheme-Background" color="#eff0f1" opacity=".3" transform="matrix(0,-1,-1,0,0,0)"/></g><g id="south-active-tab-topleft" transform="matrix(0.41666667,0,0,0.41666667,294.58333,-196.31667)"><path id="path37" fill="#fff" d="m 25,910.36 c -6.648,0 -12,5.352 -12,12 h 12 v -10 z" opacity=".3"/></g><g id="south-active-tab-topright" transform="matrix(0.41666667,0,0,0.41666667,314.25,-196.31667)"><path id="path40" fill="#fff" d="m 45,910.36 v 12 h 12 c 0,-6.648 -5.352,-12 -12,-12 z" opacity=".3"/></g><g id="south-active-tab-bottom" transform="matrix(0.8125,0,0,0.83333333,290.56,-580.30002)"><rect id="rect43" width="6" height="32" x="948.36" y="-51" fill="#fff" class="ColorScheme-Background" color="#eff0f1" opacity=".3" transform="rotate(90)"/></g><g id="south-active-tab-bottomleft" transform="matrix(0.41666667,0,0,0.41666667,294.58333,-182.65)"><path id="path46" fill="#fff" d="m 13,942.36 c 0,6.648 5.352,12 12,12 v -12 H 15 Z" opacity=".3"/></g><g id="south-active-tab-bottomright" transform="matrix(0.41666667,0,0,0.41666667,314.25,-182.65)"><path id="path49" fill="#fff" d="m 45,942.36 v 12 c 6.648,0 12,-5.352 12,-12 H 47 Z" opacity=".3"/></g><g id="south-active-tab-left" transform="matrix(0.83333333,0,0,0.625,289.16667,-383.73)"><rect id="rect52" width="6" height="32" x="-19" y="916.36" fill="#fff" class="ColorScheme-Background" color="#eff0f1" opacity=".3" transform="scale(-1,1)"/></g><g id="south-active-tab-right" transform="matrix(0.83333333,0,0,0.625,290.5,-383.73)"><rect id="rect55" width="6" height="32" x="51" y="916.36" fill="#fff" class="ColorScheme-Background" color="#eff0f1" opacity=".3"/></g><rect id="south-active-tab-center" width="26" height="20" x="306" y="189" fill="#fff" class="ColorScheme-Background" color="#eff0f1" opacity=".3"/><rect style="fill:#4e9a06" id="south-focus-hint-right-margin" width="5" height="2" x="-338" y="-200" stroke-width=".577" transform="scale(-1)"/><rect style="fill:#4e9a06" id="south-focus-hint-left-margin" width="5" height="2" x="-305" y="-200" stroke-width=".577" transform="scale(-1)"/><rect style="fill:#4e9a06" id="south-focus-hint-bottom-margin" width="2" height="5" x="-320" y="-215" stroke-width=".5" transform="scale(-1)"/><rect style="fill:#4e9a06" id="south-focus-hint-top-margin" width="2" height="5" x="-320" y="-188" stroke-width=".707" transform="scale(-1)"/><g id="west-active-tab-top" transform="matrix(0.8125,0,0,0.83332808,209.56,-627.62854)"><rect id="rect65" width="6" height="32" x="-916.36" y="-51" fill="#fff" class="ColorScheme-Background" color="#eff0f1" opacity=".3" transform="matrix(0,-1,-1,0,0,0)"/></g><g id="west-active-tab-topleft" transform="matrix(0.41666667,0,0,0.41666667,213.58333,-248.31667)"><path id="path68" fill="#fff" d="m 25,910.36 c -6.648,0 -12,5.352 -12,12 h 12 v -10 z" opacity=".3"/></g><g id="west-active-tab-topright" transform="matrix(0.41666667,0,0,0.41666667,233.25,-248.31667)"><path id="path71" fill="#fff" d="m 45,910.36 v 12 h 12 c 0,-6.648 -5.352,-12 -12,-12 z" opacity=".3"/></g><g id="west-active-tab-bottom" transform="matrix(0.8125,0,0,0.83333859,209.56,-632.305)"><rect id="rect74" width="6" height="32" x="948.36" y="-51" fill="#fff" class="ColorScheme-Background" color="#eff0f1" opacity=".3" transform="rotate(90)"/></g><g id="west-active-tab-bottomleft" transform="matrix(0.41666667,0,0,0.41666042,213.58333,-234.64411)"><path id="path77" fill="#fff" d="m 13,942.36 c 0,6.648 5.352,12 12,12 v -12 H 15 Z" opacity=".3"/></g><g id="west-active-tab-bottomright" transform="matrix(0.41666667,0,0,0.41666667,233.25,-234.65)"><path id="path80" fill="#fff" d="m 45,942.36 v 12 c 6.648,0 12,-5.352 12,-12 H 47 Z" opacity=".3"/></g><g id="west-active-tab-left" transform="matrix(0.83333333,0,0,0.625,208.16667,-435.73)"><rect id="rect83" width="6" height="32" x="-19" y="916.36" fill="#fff" class="ColorScheme-Background" color="#eff0f1" opacity=".3" transform="scale(-1,1)"/></g><g id="west-active-tab-right" transform="matrix(0.83333333,0,0,0.625,209.5,-435.73)"><rect id="rect86" width="6" height="32" x="51" y="916.36" fill="#fff" class="ColorScheme-Background" color="#eff0f1" opacity=".3"/></g><rect id="west-active-tab-center" width="26" height="20" x="225" y="137" fill="#fff" class="ColorScheme-Background" color="#eff0f1" opacity=".3"/><rect style="fill:#4e9a06" id="west-focus-hint-right-margin" width="5" height="2" x="-257" y="-148" stroke-width=".577" transform="scale(-1)"/><rect style="fill:#4e9a06" id="west-focus-hint-left-margin" width="5" height="2" x="-224" y="-148" stroke-width=".577" transform="scale(-1)"/><rect style="fill:#4e9a06" id="west-focus-hint-bottom-margin" width="2" height="5" x="-239" y="-163" stroke-width=".5" transform="scale(-1)"/><rect style="fill:#4e9a06" id="west-focus-hint-top-margin" width="2" height="5" x="-239" y="-136" stroke-width=".707" transform="scale(-1)"/><g id="east-active-tab-top" transform="matrix(0.8125,0,0,0.83332808,373.5625,-629.62854)"><rect id="rect96" width="6" height="32" x="-916.36" y="-51" fill="#fff" class="ColorScheme-Background" color="#eff0f1" opacity=".3" transform="matrix(0,-1,-1,0,0,0)"/></g><g id="east-active-tab-topleft" transform="matrix(0.41666667,0,0,0.41666667,377.58333,-250.31667)"><path id="path99" fill="#fff" d="m 25,910.36 c -6.648,0 -12,5.352 -12,12 h 12 v -10 z" opacity=".3"/></g><g id="east-active-tab-topright" transform="matrix(0.41666667,0,0,0.41666667,397.25,-250.31667)"><path id="path102" fill="#fff" d="m 45,910.36 v 12 h 12 c 0,-6.648 -5.352,-12 -12,-12 z" opacity=".3"/></g><g id="east-active-tab-bottom" transform="matrix(0.8125,0,0,0.83333859,373.5625,-634.305)"><rect id="rect105" width="6" height="32" x="948.36" y="-51" fill="#fff" class="ColorScheme-Background" color="#eff0f1" opacity=".3" transform="rotate(90)"/></g><g id="east-active-tab-bottomleft" transform="matrix(0.41666667,0,0,0.41667292,377.58333,-236.65589)"><path id="path108" fill="#fff" d="m 13,942.36 c 0,6.648 5.352,12 12,12 v -12 H 15 Z" opacity=".3"/></g><g id="east-active-tab-bottomright" transform="matrix(0.41666667,0,0,0.41667292,397.25,-236.65589)"><path id="path111" fill="#fff" d="m 45,942.36 v 12 c 6.648,0 12,-5.352 12,-12 H 47 Z" opacity=".3"/></g><g id="east-active-tab-left" transform="matrix(0.83333333,0,0,0.625,372.16667,-437.72499)"><rect id="rect114" width="6" height="32" x="-19" y="916.36" fill="#fff" class="ColorScheme-Background" color="#eff0f1" opacity=".3" transform="scale(-1,1)"/></g><g id="east-active-tab-right" transform="matrix(0.83333333,0,0,0.625,373.5,-437.72499)"><rect id="rect117" width="6" height="32" x="51" y="916.36" fill="#fff" class="ColorScheme-Background" color="#eff0f1" opacity=".3"/></g><rect id="east-active-tab-center" width="26" height="20" x="389" y="135" fill="#fff" class="ColorScheme-Background" color="#eff0f1" opacity=".3"/><rect style="fill:#4e9a06" id="east-focus-hint-right-margin" width="5" height="2" x="-421" y="-146" stroke-width=".577" transform="scale(-1)"/><rect style="fill:#4e9a06" id="east-focus-hint-left-margin" width="5" height="2" x="-388" y="-146" stroke-width=".577" transform="scale(-1)"/><rect style="fill:#4e9a06" id="east-focus-hint-bottom-margin" width="2" height="5" x="-403" y="-161" stroke-width=".5" transform="scale(-1)"/><rect style="fill:#4e9a06" id="east-focus-hint-top-margin" width="2" height="5" x="-403" y="-134" stroke-width=".707" transform="scale(-1)"/></svg>