<svg xmlns="http://www.w3.org/2000/svg" xmlns:svg="http://www.w3.org/2000/svg" xmlns:xlink="http://www.w3.org/1999/xlink" id="svg202" width="173" height="56" version="1.1" viewBox="0 0 173 56"><metadata id="metadata206"/><style id="current-color-scheme" type="text/css">.ColorScheme-Background{color:#eff0f1;stop-color:#eff0f1}</style><defs id="defs26"><linearGradient id="a"><stop id="stop3" offset="0" stop-opacity=".667"/><stop id="stop5" offset="1" stop-opacity="0"/></linearGradient><linearGradient id="q" x1="-912.36" x2="-906.36" y1="-35" y2="-35" gradientUnits="userSpaceOnUse" xlink:href="#a"/><linearGradient id="p" x1="15" x2="9" y1="12" y2="12" gradientUnits="userSpaceOnUse" xlink:href="#a"/><radialGradient id="e" cx="22.2" cy="913.97" r="6" gradientTransform="rotate(-90.000005,-405.39,435.58996)" gradientUnits="userSpaceOnUse" xlink:href="#a"/><linearGradient id="o" x1="19" x2="19" y1="8" y2="2" gradientTransform="translate(58)" gradientUnits="userSpaceOnUse" xlink:href="#a"/><linearGradient id="n" x1="55" x2="61" y1="12" y2="12" gradientUnits="userSpaceOnUse" xlink:href="#a"/><radialGradient id="d" cx="53.893" cy="911.76" r="6" gradientTransform="translate(59.107,-903.77)" gradientUnits="userSpaceOnUse" xlink:href="#a"/><linearGradient id="m" x1="51" x2="51" y1="8" y2="2" gradientTransform="translate(58)" gradientUnits="userSpaceOnUse" xlink:href="#a"/><linearGradient id="l" x1="952.36" x2="958.36" y1="-35" y2="-35" gradientUnits="userSpaceOnUse" xlink:href="#a"/><linearGradient id="k" x1="19" x2="19" y1="48" y2="54" gradientTransform="translate(58)" gradientUnits="userSpaceOnUse" xlink:href="#a"/><radialGradient id="c" cx="7.643" cy="950.36" r="6" gradientTransform="rotate(-179.99991,40.320895,499.17997)" gradientUnits="userSpaceOnUse" xlink:href="#a"/><linearGradient id="j" x1="15" x2="9" y1="44" y2="44" gradientUnits="userSpaceOnUse" xlink:href="#a"/><linearGradient id="i" x1="51" x2="51" y1="48" y2="54" gradientTransform="translate(58)" gradientUnits="userSpaceOnUse" xlink:href="#a"/><radialGradient id="b" cx="54.25" cy="945.11" r="6" gradientTransform="matrix(2.1666e-7,1,-0.99999,2.1665e-7,1058.1,-6.2502)" gradientUnits="userSpaceOnUse" xlink:href="#a"/><linearGradient id="h" x1="55" x2="61" y1="44" y2="44" gradientUnits="userSpaceOnUse" xlink:href="#a"/><linearGradient id="g" x1="-15" x2="-9" y1="932.36" y2="932.36" gradientUnits="userSpaceOnUse" xlink:href="#a"/><linearGradient id="f" x1="55" x2="61" y1="932.36" y2="932.36" gradientUnits="userSpaceOnUse" xlink:href="#a"/><style id="style24" type="text/css">.ColorScheme-Background{color:#eff0f1}</style><radialGradient id="radialGradient994" cx="78.509" cy="10" r="6" fx="78.509" fy="10" gradientTransform="matrix(1.1636765e-7,-2.6666664,2.6666668,1.1636731e-7,11.333332,221.35746)" gradientUnits="userSpaceOnUse" xlink:href="#linearGradient919"/><linearGradient id="linearGradient919"><stop id="stop913" offset="0" style="stop-color:#000;stop-opacity:.66663194"/><stop style="stop-color:#000;stop-opacity:.15" id="stop915" offset=".563"/><stop id="stop917" offset="1" style="stop-color:#000;stop-opacity:0"/></linearGradient><linearGradient id="linearGradient927" x1="-10" x2="-26" y1="946.862" y2="946.862" gradientTransform="matrix(1,0,0,0.85714286,0,135.76602)" gradientUnits="userSpaceOnUse" xlink:href="#linearGradient919"/><linearGradient id="linearGradient942" x1="-10" x2="-26" y1="946.862" y2="946.862" gradientTransform="matrix(0,1,-0.85714286,0,804.59613,954.36218)" gradientUnits="userSpaceOnUse" xlink:href="#linearGradient919"/><radialGradient id="radialGradient954" cx="78.509" cy="10" r="6" fx="78.509" fy="10" gradientTransform="matrix(1.1636765e-7,-2.6666664,2.6666668,1.1636731e-7,11.333332,221.35746)" gradientUnits="userSpaceOnUse" xlink:href="#linearGradient919"/><linearGradient id="linearGradient4948" x1="-16" x2="-8" y1="932.362" y2="932.362" gradientUnits="userSpaceOnUse" xlink:href="#linearGradient919"/><radialGradient id="radialGradient1003" cx="78.509" cy="10" r="6" fx="78.509" fy="10" gradientTransform="matrix(1.1636765e-7,-2.6666664,2.6666668,1.1636731e-7,11.333332,221.35746)" gradientUnits="userSpaceOnUse" xlink:href="#linearGradient919"/><radialGradient id="radialGradient1043" cx="78.509" cy="10" r="6" fx="78.509" fy="10" gradientTransform="matrix(1.1636765e-7,-2.6666664,2.6666668,1.1636731e-7,11.333332,221.35746)" gradientUnits="userSpaceOnUse" xlink:href="#linearGradient919"/><radialGradient id="radialGradient1083" cx="78.509" cy="10" r="6" fx="78.509" fy="10" gradientTransform="matrix(1.1636765e-7,-2.6666664,2.6666668,1.1636731e-7,11.333332,221.35746)" gradientUnits="userSpaceOnUse" xlink:href="#linearGradient919"/><radialGradient id="radialGradient923" cx="78.509" cy="10" r="6" fx="78.509" fy="10" gradientTransform="matrix(1.1636765e-7,-2.6666664,2.6666668,1.1636731e-7,11.333332,221.35746)" gradientUnits="userSpaceOnUse" xlink:href="#linearGradient919"/><linearGradient id="linearGradient925" x1="-10" x2="-26" y1="946.862" y2="946.862" gradientTransform="matrix(1,0,0,0.85714286,0,135.76602)" gradientUnits="userSpaceOnUse" xlink:href="#linearGradient919"/><linearGradient id="linearGradient928" x1="-10" x2="-26" y1="946.862" y2="946.862" gradientTransform="matrix(0,1,-0.85714286,0,804.59613,954.36218)" gradientUnits="userSpaceOnUse" xlink:href="#linearGradient919"/><linearGradient id="linearGradient938" x1="-16" x2="-8" y1="932.362" y2="932.362" gradientUnits="userSpaceOnUse" xlink:href="#linearGradient919"/><radialGradient id="radialGradient949" cx="78.509" cy="10" r="6" fx="78.509" fy="10" gradientTransform="matrix(1.1636765e-7,-2.6666664,2.6666668,1.1636731e-7,11.333332,221.35746)" gradientUnits="userSpaceOnUse" xlink:href="#linearGradient919"/><linearGradient id="linearGradient951" x1="-10" x2="-26" y1="946.862" y2="946.862" gradientTransform="matrix(1,0,0,0.85714286,0,135.76602)" gradientUnits="userSpaceOnUse" xlink:href="#linearGradient919"/><linearGradient id="linearGradient953" x1="-10" x2="-26" y1="946.862" y2="946.862" gradientTransform="matrix(0,1,-0.85714286,0,804.59613,954.36218)" gradientUnits="userSpaceOnUse" xlink:href="#linearGradient919"/><linearGradient id="linearGradient963" x1="-16" x2="-8" y1="932.362" y2="932.362" gradientUnits="userSpaceOnUse" xlink:href="#linearGradient919"/><radialGradient id="radialGradient973" cx="78.509" cy="10" r="6" fx="78.509" fy="10" gradientTransform="matrix(1.1636765e-7,-2.6666664,2.6666668,1.1636731e-7,11.333332,221.35746)" gradientUnits="userSpaceOnUse" xlink:href="#linearGradient919"/><linearGradient id="linearGradient975" x1="-10" x2="-26" y1="946.862" y2="946.862" gradientTransform="matrix(1,0,0,0.85714286,0,135.76602)" gradientUnits="userSpaceOnUse" xlink:href="#linearGradient919"/><linearGradient id="linearGradient977" x1="-10" x2="-26" y1="946.862" y2="946.862" gradientTransform="matrix(0,1,-0.85714286,0,804.59613,954.36218)" gradientUnits="userSpaceOnUse" xlink:href="#linearGradient919"/></defs><g style="opacity:.35" id="shadow-topleft" transform="translate(48.000026,-932.36217)"><path id="path4828" d="M 20,-6 V 12 H 32 C 32,8.676 34.676,6 38,6 V -6 Z" transform="translate(-48.000026,932.36217)" style="opacity:.9;fill:url(#radialGradient994);fill-opacity:1;fill-rule:evenodd;stroke:none;stroke-width:2px;stroke-linecap:butt;stroke-linejoin:miter;stroke-opacity:1"/><path style="opacity:.9;fill:url(#linearGradient927);fill-opacity:1;fill-rule:evenodd;stroke:none;stroke-width:.707106px;stroke-linecap:butt;stroke-linejoin:miter;stroke-opacity:1" id="path923" d="m -28.000009,944.36217 v 5.99999 l 11.999992,10e-6 -9e-6,-6 z"/><path id="path940" d="m -4.000026,926.36217 h -5.99999 l -10e-6,12 6,-10e-6 z" style="opacity:.9;fill:url(#linearGradient942);fill-opacity:1;fill-rule:evenodd;stroke:none;stroke-width:.707106px;stroke-linecap:butt;stroke-linejoin:miter;stroke-opacity:1"/></g><g style="opacity:.35" id="shadow-left" transform="matrix(1.9999998,0,0,0.62500133,5.999997,-554.72761)"><rect style="opacity:1;fill:none;fill-opacity:1;stroke:none" id="rect4892" width="6" height="32" x="-19" y="916.362" transform="scale(-1,1)"/><rect style="opacity:.9;fill:url(#linearGradient4948);fill-opacity:1;stroke:none" id="rect4894" width="6" height="32" x="-13" y="916.362" transform="scale(-1,1)"/><rect id="rect4896" width="1" height="32" x="-14" y="916.362" transform="scale(-1,1)" style="opacity:1;fill:none;fill-opacity:1;stroke:none"/></g><g style="opacity:.35" id="shadow-topright" transform="rotate(90,496.18107,518.1811)"><path id="path915" d="M 20,-6 V 12 H 32 C 32,8.676 34.676,6 38,6 V -6 Z" transform="translate(-48.000026,932.36217)" style="opacity:.9;fill:url(#radialGradient923);fill-opacity:1;fill-rule:evenodd;stroke:none;stroke-width:2px;stroke-linecap:butt;stroke-linejoin:miter;stroke-opacity:1"/><path style="opacity:.9;fill:url(#linearGradient925);fill-opacity:1;fill-rule:evenodd;stroke:none;stroke-width:.707106px;stroke-linecap:butt;stroke-linejoin:miter;stroke-opacity:1" id="path917" d="m -28.000009,944.36217 v 5.99999 l 11.999992,10e-6 -9e-6,-6 z"/><path id="path919" d="m -4.000026,926.36217 h -5.99999 l -10e-6,12 6,-10e-6 z" style="opacity:.9;fill:url(#linearGradient928);fill-opacity:1;fill-rule:evenodd;stroke:none;stroke-width:.707106px;stroke-linecap:butt;stroke-linejoin:miter;stroke-opacity:1"/></g><use id="shadow-top" width="100%" height="100%" x="0" y="0" transform="rotate(90,54.000005,28.00001)" xlink:href="#shadow-left"/><g style="opacity:.35" id="shadow-right" transform="matrix(-1.9999998,0,0,0.62500133,102,-554.72758)"><rect style="opacity:1;fill:none;fill-opacity:1;stroke:none" id="rect930" width="6" height="32" x="-19" y="916.362" transform="scale(-1,1)"/><rect style="opacity:.9;fill:url(#linearGradient938);fill-opacity:1;stroke:none" id="rect932" width="6" height="32" x="-13" y="916.362" transform="scale(-1,1)"/><rect id="rect934" width="1" height="32" x="-14" y="916.362" transform="scale(-1,1)" style="opacity:1;fill:none;fill-opacity:1;stroke:none"/></g><g style="opacity:.35" id="shadow-bottomleft" transform="rotate(-90,-436.1811,470.18107)"><path id="path965" d="M 20,-6 V 12 H 32 C 32,8.676 34.676,6 38,6 V -6 Z" transform="translate(-48.000026,932.36217)" style="opacity:.9;fill:url(#radialGradient973);fill-opacity:1;fill-rule:evenodd;stroke:none;stroke-width:2px;stroke-linecap:butt;stroke-linejoin:miter;stroke-opacity:1"/><path style="opacity:.9;fill:url(#linearGradient975);fill-opacity:1;fill-rule:evenodd;stroke:none;stroke-width:.707106px;stroke-linecap:butt;stroke-linejoin:miter;stroke-opacity:1" id="path967" d="m -28.000009,944.36217 v 5.99999 l 11.999992,10e-6 -9e-6,-6 z"/><path id="path969" d="m -4.000026,926.36217 h -5.99999 l -10e-6,12 6,-10e-6 z" style="opacity:.9;fill:url(#linearGradient977);fill-opacity:1;fill-rule:evenodd;stroke:none;stroke-width:.707106px;stroke-linecap:butt;stroke-linejoin:miter;stroke-opacity:1"/></g><g style="opacity:.35" id="shadow-bottomright" transform="rotate(180,29.999991,494.18108)"><path id="path941" d="M 20,-6 V 12 H 32 C 32,8.676 34.676,6 38,6 V -6 Z" transform="translate(-48.000026,932.36217)" style="opacity:.9;fill:url(#radialGradient949);fill-opacity:1;fill-rule:evenodd;stroke:none;stroke-width:2px;stroke-linecap:butt;stroke-linejoin:miter;stroke-opacity:1"/><path style="opacity:.9;fill:url(#linearGradient951);fill-opacity:1;fill-rule:evenodd;stroke:none;stroke-width:.707106px;stroke-linecap:butt;stroke-linejoin:miter;stroke-opacity:1" id="path943" d="m -28.000009,944.36217 v 5.99999 l 11.999992,10e-6 -9e-6,-6 z"/><path id="path945" d="m -4.000026,926.36217 h -5.99999 l -10e-6,12 6,-10e-6 z" style="opacity:.9;fill:url(#linearGradient953);fill-opacity:1;fill-rule:evenodd;stroke:none;stroke-width:.707106px;stroke-linecap:butt;stroke-linejoin:miter;stroke-opacity:1"/></g><g style="opacity:.35" id="shadow-bottom" transform="matrix(0,-1.9999998,0.62500133,0,-528.72758,75.999998)"><rect style="opacity:1;fill:none;fill-opacity:1;stroke:none" id="rect955" width="6" height="32" x="-19" y="916.362" transform="scale(-1,1)"/><rect style="opacity:.9;fill:url(#linearGradient963);fill-opacity:1;stroke:none" id="rect957" width="6" height="32" x="-13" y="916.362" transform="scale(-1,1)"/><rect id="rect959" width="1" height="32" x="-14" y="916.362" transform="scale(-1,1)" style="opacity:1;fill:none;fill-opacity:1;stroke:none"/></g><rect style="fill:#f60" id="hint-tile-center" width="5" height="5" x="0" y="0"/><g id="top" transform="matrix(0.62500095,0,0,1.9999962,32.124961,-1814.7209)"><rect id="rect4152" width="6" height="32" x="-916.362" y="-51" class="ColorScheme-Background" transform="matrix(0,-1,-1,0,0,0)" style="color:#eff0f1;opacity:.15;fill:#f5f5f5;fill-opacity:1;stroke:none"/></g><g id="topleft" transform="translate(19,-904.36219)"><path style="opacity:.15;fill:#f5f5f5;fill-opacity:1;stroke:none;stroke-width:2" id="rect4159" d="M 38 6 C 34.676 6 32 8.676 32 12 L 32 18 L 44 18 L 44 6 L 38 6 z" transform="translate(-19,904.36219)"/></g><g id="bottom" transform="matrix(0.62500095,0,0,2.0000038,32.124961,-1858.728)"><rect style="color:#eff0f1;opacity:.15;fill:#f5f5f5;fill-opacity:1;stroke:none" id="rect4148" width="6" height="32" x="948.362" y="-51" class="ColorScheme-Background" transform="rotate(90)"/></g><g id="left" transform="matrix(1.9999994,0,0,0.62499857,6.0000031,-554.72504)"><rect style="color:#eff0f1;opacity:.15;fill:#f5f5f5;fill-opacity:1;stroke:none" id="rect4144" width="6" height="32" x="-19" y="916.362" class="ColorScheme-Background" transform="scale(-1,1)"/></g><g id="right" transform="matrix(1.9999975,0,0,0.62499857,-37.999844,-554.72504)"><rect id="rect4140" width="6" height="32" x="51" y="916.362" class="ColorScheme-Background" style="color:#eff0f1;opacity:.15;fill:#f5f5f5;fill-opacity:1;stroke:none"/></g><rect id="center" width="20" height="20" x="44" y="18" class="ColorScheme-Background" style="color:#eff0f1;opacity:.15;fill:#f5f5f5;fill-opacity:1;stroke:none;stroke-width:.62499976"/><rect style="fill:#f0f;fill-opacity:1;stroke:none;stroke-width:.99999601" id="hint-top-margin" width="4" height="6" x="52" y="6"/><rect id="hint-bottom-margin" width="4" height="6" x="52" y="44" style="fill:#f0f;fill-opacity:1;stroke:none;stroke-width:1.00000381"/><rect id="hint-right-margin" width="4" height="6" x="26" y="-76" transform="rotate(90)" style="fill:#f0f;fill-opacity:1;stroke:none;stroke-width:1"/><rect style="fill:#f0f;fill-opacity:1;stroke:none;stroke-width:.99999964" id="hint-left-margin" width="4" height="6" x="26" y="-38" transform="rotate(90)"/><rect id="shadow-hint-top-margin" width="4" height="12" x="52" y="-6" style="fill:#f60;fill-opacity:1;stroke:none;stroke-width:1.41421628"/><rect style="fill:#f60;fill-opacity:1;stroke:none;stroke-width:1.41420949" id="shadow-hint-bottom-margin" width="4" height="12" x="52" y="50"/><rect style="fill:#f60;fill-opacity:1;stroke:none;stroke-width:1.41421628" id="shadow-hint-right-margin" width="4" height="12" x="26" y="-88" transform="rotate(90)"/><rect id="shadow-hint-left-margin" width="4" height="12" x="26" y="-32" transform="rotate(90)" style="fill:#f60;fill-opacity:1;stroke:none;stroke-width:1.41421354"/><g id="mask-top" transform="matrix(0.62500018,0,0,1.0000007,117.12499,-904.36279)"><rect style="opacity:.97;fill:#000;fill-opacity:1;stroke:none;stroke-width:1.54919" id="rect4265" width="12" height="32" x="-922.362" y="-51" transform="matrix(0,-1,-1,0,0,0)"/></g><g id="mask-topleft" transform="matrix(1.1999999,0,0,1.1999998,101.4,-1086.4344)"><path style="opacity:.97;fill:#000;fill-opacity:1;stroke-width:2.2" id="path4277" d="m 124,6 c -3.878,0 -7,3.122 -7,7 v 4 h 11 V 6 Z" transform="matrix(0.90909091,0,0,0.90909091,-93.363636,904.90762)"/></g><g id="mask-bottom" transform="matrix(0.62500018,0,0,1.1999997,117.12499,-1095.2344)"><rect id="rect4291" width="10" height="32" x="944.362" y="-51" transform="rotate(90)" style="opacity:.97;fill:#000;fill-opacity:1;stroke:none;stroke-width:1.41421"/></g><g id="mask-left" transform="translate(103.99999,-904.36219)"><rect id="rect4317" width="12" height="20" x="-25" y="922.362" transform="scale(-1,1)" style="opacity:.97;fill:#000;fill-opacity:1;stroke:none;stroke-width:1.22475"/></g><g id="mask-right" transform="matrix(1.2000001,0,0,0.62500169,92.599995,-554.72795)"><rect style="opacity:.97;fill:#000;fill-opacity:1;stroke:none;stroke-width:1.41421" id="rect4323" width="10" height="32" x="47" y="916.362"/></g><rect style="opacity:.97000002;fill:#000;fill-opacity:1;stroke:none;stroke-width:.62500125" id="mask-center" width="20" height="20" x="129" y="18"/><rect style="color:#eff0f1;opacity:0;fill:#1a1a1a;fill-opacity:1;stroke:none;stroke-width:.62499976" id="shadow-center" width="20" height="20" x="45" y="68.866" class="ColorScheme-Background"/><use id="topright" width="100%" height="100%" x="0" y="0" transform="matrix(-1,0,0,1,108,0)" xlink:href="#topleft"/><use id="bottomleft" width="100%" height="100%" x="0" y="0" transform="matrix(1,0,0,-1,9.2939377e-7,56.000015)" xlink:href="#topleft"/><use id="bottomright" width="100%" height="100%" x="0" y="0" transform="rotate(-180,54.000001,28.000013)" xlink:href="#topleft"/><use id="mask-topright" width="100%" height="100%" x="0" y="0" transform="matrix(-1,0,0,1,278,-2.0170001e-6)" xlink:href="#mask-topleft"/><use id="mask-bottomleft" width="100%" height="100%" x="0" y="0" transform="matrix(1,0,0,-1,-5.28e-7,56.000002)" xlink:href="#mask-topleft"/><use id="mask-bottomright" width="100%" height="100%" x="0" y="0" transform="rotate(-180,139,28.000001)" xlink:href="#mask-topleft"/></svg>